<svg width="18" height="18" viewBox="0 0 18 18" fill="none" xmlns="http://www.w3.org/2000/svg">
<path d="M7.53751 1.89844L3.02251 4.84594C1.57501 5.79094 1.57501 7.90594 3.02251 8.85094L7.53751 11.7984C8.34751 12.3309 9.68251 12.3309 10.4925 11.7984L14.985 8.85094C16.425 7.90594 16.425 5.79844 14.985 4.85344L10.4925 1.90594C9.68251 1.36594 8.34751 1.36594 7.53751 1.89844Z" stroke="#3F41D1" stroke-width="1.5" stroke-linecap="round" stroke-linejoin="round"/>
<path d="M4.22247 9.80859L4.21497 13.3261C4.21497 14.2786 4.94997 15.2986 5.84997 15.5986L8.24247 16.3936C8.65497 16.5286 9.33747 16.5286 9.75747 16.3936L12.15 15.5986C13.05 15.2986 13.785 14.2786 13.785 13.3261V9.84609" stroke="#3F41D1" stroke-width="1.5" stroke-linecap="round" stroke-linejoin="round"/>
<path d="M16.05 11.25V6.75" stroke="#3F41D1" stroke-width="1.5" stroke-linecap="round" stroke-linejoin="round"/>
</svg>
