<svg width="16" height="16" viewBox="0 0 16 16" fill="none" xmlns="http://www.w3.org/2000/svg">
<path d="M13.4319 11.9837L13.4319 11.9837L13.4293 11.9841L13.2227 12.0107L13.2202 12.0111C12.0725 12.165 10.4895 12.6332 9.22075 13.1652C9.12589 13.2039 9 13.133 9 13.0066V3.73329C9 3.67883 9.03174 3.61607 9.09887 3.57921C10.2605 2.95099 12.0265 2.39141 13.2017 2.28662H13.22C13.7439 2.28662 14.1667 2.70943 14.1667 3.23329V11.16C14.1667 11.5519 13.8304 11.9344 13.4319 11.9837Z" fill="#3F41D1" stroke="#3F41D1"/>
<path d="M4.83333 4.65995H3.33333C2.78385 4.65995 2.33333 5.11048 2.33333 5.65995C2.33333 6.22043 2.78821 6.65995 3.33333 6.65995C2.78385 6.65995 2.33333 7.11048 2.33333 7.65995C2.33333 8.22043 2.78821 8.65995 3.33333 8.65995H5.33333C5.87845 8.65995 6.33333 8.22043 6.33333 7.65995C6.33333 7.11048 5.8828 6.65995 5.33333 6.65995H4.83333C5.37845 6.65995 5.83333 6.22043 5.83333 5.65995C5.83333 5.11048 5.3828 4.65995 4.83333 4.65995Z" fill="#3F41D1" stroke="#3F41D1"/>
</svg>
