<svg width="16" height="16" viewBox="0 0 16 16" fill="none" xmlns="http://www.w3.org/2000/svg">
<path d="M8.33323 14.6667H2.7199C1.94657 14.6667 1.31323 14.0467 1.31323 13.2867V3.39336C1.31323 1.6467 2.61323 0.853363 4.20657 1.63336L7.16657 3.0867C7.80657 3.40003 8.33323 4.23336 8.33323 4.94003V14.6667Z" fill="#3F41D1" stroke="#3F41D1" stroke-linecap="round" stroke-linejoin="round"/>
<path d="M14.6466 10.0401V12.5601C14.6466 14.0001 13.9799 14.6668 12.5399 14.6668H8.33325V6.94678L8.64659 7.01344L11.6466 7.68678L12.9999 7.98678C13.8799 8.18011 14.5999 8.63344 14.6399 9.91344C14.6466 9.95344 14.6466 9.99344 14.6466 10.0401Z" stroke="#3F41D1" stroke-linecap="round" stroke-linejoin="round"/>
<path d="M3.66675 6.00012H5.98008" stroke="#F7F7F7" stroke-width="1.5" stroke-linecap="round" stroke-linejoin="round"/>
<path d="M3.66675 8.66675H5.98008" stroke="#F7F7F7" stroke-width="1.5" stroke-linecap="round" stroke-linejoin="round"/>
<path d="M11.6467 7.68676V9.83343C11.6467 10.6601 10.9734 11.3334 10.1467 11.3334C9.32006 11.3334 8.64673 10.6601 8.64673 9.83343V7.01343L11.6467 7.68676Z" stroke="#3F41D1" stroke-width="1.5" stroke-linecap="round" stroke-linejoin="round"/>
<path d="M14.6401 9.91343C14.6001 10.7001 13.9467 11.3334 13.1467 11.3334C12.3201 11.3334 11.6467 10.6601 11.6467 9.83343V7.68677L13.0001 7.98677C13.8801 8.1801 14.6001 8.63343 14.6401 9.91343Z" stroke="#3F41D1" stroke-width="1.5" stroke-linecap="round" stroke-linejoin="round"/>
</svg>
