<svg width="25" height="24" viewBox="0 0 25 24" fill="none" xmlns="http://www.w3.org/2000/svg">
<path d="M17.4 22H7.60001C5.90001 22 4.5 20.61 4.5 18.9V5.10001C4.5 3.40001 5.89001 2 7.60001 2H17.4C19.1 2 20.5 3.39001 20.5 5.10001V18.9C20.5 20.61 19.11 22 17.4 22Z" stroke="#3F41D1" stroke-width="1.5" stroke-linecap="round" stroke-linejoin="round"/>
<path d="M19 13H6C5.17 13 4.5 12.33 4.5 11.5V9.5C4.5 8.67 5.17 8 6 8H19C19.83 8 20.5 8.67 20.5 9.5V11.5C20.5 12.33 19.83 13 19 13Z" stroke="#3F41D1" stroke-width="1.5" stroke-linecap="round" stroke-linejoin="round"/>
<path d="M8.99451 17.7H9.00349" stroke="#3F41D1" stroke-width="2.5" stroke-linecap="round" stroke-linejoin="round"/>
<path d="M15.9945 17.7H16.0035" stroke="#3F41D1" stroke-width="2.5" stroke-linecap="round" stroke-linejoin="round"/>
<path d="M10 5H15" stroke="#3F41D1" stroke-width="1.5" stroke-linecap="round" stroke-linejoin="round"/>
</svg>
