<svg width="14" height="14" viewBox="0 0 14 14" fill="none" xmlns="http://www.w3.org/2000/svg">
<path d="M4.40532 11.4111L4.43461 11.4184L4.46457 11.4221C4.46679 11.4224 4.46911 11.4227 4.47153 11.423C4.51421 11.4284 4.588 11.4377 4.66659 11.4377C4.98573 11.4377 5.30147 11.3133 5.53352 11.0754C5.77137 10.8434 5.89575 10.5276 5.89575 10.2085C5.89575 9.88766 5.77004 9.57026 5.52971 9.33787C5.24896 9.05957 4.83291 8.91983 4.42853 9.00071L4.41686 9.00304L4.40532 9.00593C4.40301 9.0065 4.40051 9.00712 4.39783 9.00778C4.3556 9.01824 4.26941 9.0396 4.17775 9.08324C4.1231 9.10723 4.05185 9.14239 3.98673 9.1858L3.98003 9.19028L3.97347 9.19496C3.97146 9.1964 3.96909 9.19807 3.96639 9.19998C3.93489 9.22221 3.85861 9.27607 3.79071 9.35038C3.55868 9.58158 3.43742 9.89338 3.43742 10.2085C3.43742 10.5236 3.55868 10.8354 3.79071 11.0666C3.85862 11.1409 3.93489 11.1948 3.96639 11.217C3.96909 11.2189 3.97146 11.2206 3.97347 11.222L3.98003 11.2267L3.98674 11.2312C4.05185 11.2746 4.1231 11.3098 4.17775 11.3337C4.26941 11.3774 4.35561 11.3987 4.39784 11.4092C4.40051 11.4099 4.40301 11.4105 4.40532 11.4111ZM10.0131 11.2312L10.0198 11.2267L10.0264 11.222C10.0284 11.2206 10.0307 11.2189 10.0334 11.217C10.0649 11.1948 10.1412 11.1409 10.2091 11.0666C10.4412 10.8354 10.5624 10.5236 10.5624 10.2085C10.5624 9.89338 10.4412 9.58158 10.2091 9.35038C10.1412 9.27607 10.0649 9.22221 10.0334 9.19997C10.0307 9.19807 10.0284 9.1964 10.0264 9.19496L10.0198 9.19028L10.0131 9.1858C9.94789 9.14233 9.87654 9.10713 9.82186 9.08314C9.73821 9.04342 9.65548 9.02089 9.62496 9.01258C9.62137 9.0116 9.61851 9.01082 9.61645 9.01023L9.59151 9.00311L9.56598 8.99861C9.41118 8.97129 9.25708 8.97032 9.10111 8.99956L9.08645 9.00231L9.07199 9.00593C9.06967 9.0065 9.06718 9.00712 9.0645 9.00778C9.02227 9.01824 8.93608 9.03959 8.84442 9.08324C8.78977 9.10723 8.71852 9.14239 8.6534 9.1858L8.64669 9.19028L8.64013 9.19496C8.63812 9.1964 8.63575 9.19807 8.63305 9.19998C8.60156 9.22222 8.52528 9.27607 8.45737 9.35039C8.22535 9.58158 8.10408 9.89338 8.10408 10.2085C8.10408 10.5236 8.22535 10.8354 8.45737 11.0666C8.52528 11.1409 8.60156 11.1948 8.63306 11.217C8.63575 11.2189 8.63812 11.2206 8.64013 11.222L8.64669 11.2267L8.6534 11.2312C8.71852 11.2746 8.78977 11.3098 8.84442 11.3338C8.93608 11.3774 9.02227 11.3987 9.06451 11.4092C9.06718 11.4099 9.06968 11.4105 9.07199 11.4111L9.10128 11.4184L9.13123 11.4221C9.13345 11.4224 9.13578 11.4227 9.1382 11.423C9.18088 11.4284 9.25467 11.4377 9.33325 11.4377C9.40563 11.4377 9.47704 11.4295 9.51996 11.4246C9.52518 11.424 9.52997 11.4234 9.5343 11.4229L9.57605 11.4183L9.61644 11.4068C9.6185 11.4062 9.62137 11.4054 9.62496 11.4044C9.65548 11.3961 9.73821 11.3736 9.82186 11.3339C9.87654 11.3099 9.94789 11.2747 10.0131 11.2312ZM2.83325 11.0252V8.0835H11.1666V11.0252C11.1666 11.7455 10.5748 12.3335 9.85825 12.3335H4.14159C3.42128 12.3335 2.83325 11.7417 2.83325 11.0252Z" fill="#3F41D1" stroke="#3F41D1"/>
<path d="M4.14159 1.9165H4.90292C4.57342 2.12808 4.35409 2.49781 4.35409 2.9165C4.35409 3.3352 4.57342 3.70492 4.90292 3.9165H3.08325V2.97484C3.08325 2.39155 3.5583 1.9165 4.14159 1.9165ZM9.64575 2.9165C9.64575 2.49781 9.42642 2.12808 9.09692 1.9165H9.85825C10.4415 1.9165 10.9166 2.39155 10.9166 2.97484V3.9165H9.09692C9.42642 3.70492 9.64575 3.3352 9.64575 2.9165Z" fill="#3F41D1" stroke="#3F41D1" stroke-width="1.5"/>
<path d="M10.9166 6V6.25H3.08325V6H10.9166Z" fill="#3F41D1" stroke="#3F41D1" stroke-width="1.5"/>
</svg>
