<svg width="40" height="40" viewBox="0 0 40 40" fill="none" xmlns="http://www.w3.org/2000/svg">
<g clip-path="url(#clip0_67530_118539)">
<rect y="6.10352e-05" width="40" height="40" rx="20" fill="#EBEBFA"/>
<path d="M29.97 26.3301C29.97 26.6901 29.89 27.0601 29.72 27.4201C29.55 27.7801 29.33 28.1201 29.04 28.4401C28.55 28.9801 28.01 29.3701 27.4 29.6201C26.8 29.8701 26.15 30.0001 25.45 30.0001C24.43 30.0001 23.34 29.7601 22.19 29.2701C21.04 28.7801 19.89 28.1201 18.75 27.2901C17.6 26.4501 16.51 25.5201 15.47 24.4901C14.44 23.4501 13.51 22.3601 12.68 21.2201C11.86 20.0801 11.2 18.9401 10.72 17.8101C10.24 16.6701 10 15.5801 10 14.5401C10 13.8601 10.12 13.2101 10.36 12.6101C10.6 12.0001 10.98 11.4401 11.51 10.9401C12.15 10.3101 12.85 10.0001 13.59 10.0001C13.87 10.0001 14.15 10.0601 14.4 10.1801C14.66 10.3001 14.89 10.4801 15.07 10.7401L17.39 14.0101C17.57 14.2601 17.7 14.4901 17.79 14.7101C17.88 14.9201 17.93 15.1301 17.93 15.3201C17.93 15.5601 17.86 15.8001 17.72 16.0301C17.59 16.2601 17.4 16.5001 17.16 16.7401L16.4 17.5301C16.29 17.6401 16.24 17.7701 16.24 17.9301C16.24 18.0101 16.25 18.0801 16.27 18.1601C16.3 18.2401 16.33 18.3001 16.35 18.3601C16.53 18.6901 16.84 19.1201 17.28 19.6401C17.73 20.1601 18.21 20.6901 18.73 21.2201C19.27 21.7501 19.79 22.2401 20.32 22.6901C20.84 23.1301 21.27 23.4301 21.61 23.6101C21.66 23.6301 21.72 23.6601 21.79 23.6901C21.87 23.7201 21.95 23.7301 22.04 23.7301C22.21 23.7301 22.34 23.6701 22.45 23.5601L23.21 22.8101C23.46 22.5601 23.7 22.3701 23.93 22.2501C24.16 22.1101 24.39 22.0401 24.64 22.0401C24.83 22.0401 25.03 22.0801 25.25 22.1701C25.47 22.2601 25.7 22.3901 25.95 22.5601L29.26 24.9101C29.52 25.0901 29.7 25.3001 29.81 25.5501C29.91 25.8001 29.97 26.0501 29.97 26.3301Z" stroke="#3F41D1" stroke-width="1.5" stroke-miterlimit="10"/>
</g>
<defs>
<clipPath id="clip0_67530_118539">
<rect y="6.10352e-05" width="40" height="40" rx="20" fill="white"/>
</clipPath>
</defs>
</svg>
