<svg width="25" height="24" viewBox="0 0 25 24" fill="none" xmlns="http://www.w3.org/2000/svg">
<path d="M7.50998 22H17.99C20.75 22 21.85 20.31 21.98 18.25L22.5 9.99C22.64 7.83 20.92 6 18.75 6C18.14 6 17.58 5.65 17.3 5.11L16.58 3.66C16.12 2.75 14.92 2 13.9 2H11.61C10.58 2 9.37998 2.75 8.91998 3.66L8.19998 5.11C7.91998 5.65 7.35998 6 6.74998 6C4.57998 6 2.85998 7.83 2.99998 9.99L3.51998 18.25C3.63998 20.31 4.74998 22 7.50998 22Z" stroke="white" stroke-width="1.5" stroke-linecap="round" stroke-linejoin="round"/>
<path d="M11.25 8H14.25" stroke="white" stroke-width="1.5" stroke-linecap="round" stroke-linejoin="round"/>
<path d="M12.75 18C14.54 18 16 16.54 16 14.75C16 12.96 14.54 11.5 12.75 11.5C10.96 11.5 9.5 12.96 9.5 14.75C9.5 16.54 10.96 18 12.75 18Z" stroke="white" stroke-width="1.5" stroke-linecap="round" stroke-linejoin="round"/>
</svg>
