<svg width="14" height="14" viewBox="0 0 14 14" fill="none" xmlns="http://www.w3.org/2000/svg">
<path d="M6.87199 8.58407L6.87219 8.58419L8.67198 9.65826C8.83487 9.76294 9.00674 9.79817 9.15842 9.79817C9.47526 9.79817 9.78965 9.63881 9.96687 9.33871C10.2384 8.88901 10.0868 8.31334 9.64038 8.05109L7.83499 6.97369C7.83276 6.97174 7.82735 6.9668 7.81928 6.95773C7.80315 6.9396 7.78426 6.9137 7.76647 6.88244C7.74871 6.85121 7.73585 6.82127 7.72817 6.79727C7.72378 6.78354 7.72223 6.77537 7.72175 6.77259V4.3865C7.72175 3.8712 7.29956 3.449 6.78425 3.449C6.26894 3.449 5.84675 3.8712 5.84675 4.3865V6.77817C5.84675 7.47291 6.27141 8.22529 6.87199 8.58407ZM1.66675 6.99984C1.66675 4.06181 4.06206 1.6665 7.00008 1.6665C9.93811 1.6665 12.3334 4.06181 12.3334 6.99984C12.3334 9.93786 9.93811 12.3332 7.00008 12.3332C4.06206 12.3332 1.66675 9.93786 1.66675 6.99984Z" fill="#3F41D1" stroke="#3F41D1"/>
</svg>
