<svg width="40" height="40" viewBox="0 0 40 40" fill="none" xmlns="http://www.w3.org/2000/svg">
<g clip-path="url(#clip0_67599_55356)">
<rect width="40" height="40" rx="20" fill="#EBEBFA"/>
<path d="M19 10H17C12 10 10 12 10 17V23C10 28 12 30 17 30H23C28 30 30 28 30 23V21" stroke="#3F41D1" stroke-width="1.5" stroke-linecap="round" stroke-linejoin="round"/>
<path d="M24.0399 11.0212L16.1599 18.9012C15.8599 19.2012 15.5599 19.7912 15.4999 20.2212L15.0699 23.2312C14.9099 24.3212 15.6799 25.0812 16.7699 24.9312L19.7799 24.5012C20.1999 24.4412 20.7899 24.1412 21.0999 23.8412L28.9799 15.9612C30.3399 14.6012 30.9799 13.0212 28.9799 11.0212C26.9799 9.02123 25.3999 9.66123 24.0399 11.0212Z" stroke="#3F41D1" stroke-width="1.5" stroke-miterlimit="10" stroke-linecap="round" stroke-linejoin="round"/>
<path d="M22.9102 12.1484C23.5802 14.5384 25.4502 16.4084 27.8502 17.0884" stroke="#3F41D1" stroke-width="1.5" stroke-miterlimit="10" stroke-linecap="round" stroke-linejoin="round"/>
</g>
<defs>
<clipPath id="clip0_67599_55356">
<rect width="40" height="40" rx="20" fill="white"/>
</clipPath>
</defs>
</svg>
