<svg width="22" height="20" viewBox="0 0 22 20" fill="none" xmlns="http://www.w3.org/2000/svg">
<path d="M19.2637 4.98307C16.2261 4.70807 13.1703 4.56641 10.1235 4.56641C8.3174 4.56641 6.51126 4.64974 4.70511 4.81641L2.84424 4.98307" stroke="#A3A3A3" stroke-width="1.5" stroke-linecap="round" stroke-linejoin="round"/>
<path d="M7.86084 4.14297L8.06152 3.0513C8.20747 2.25964 8.31694 1.66797 9.85854 1.66797H12.2485C13.7901 1.66797 13.9087 2.29297 14.0455 3.05964L14.2462 4.14297" stroke="#A3A3A3" stroke-width="1.5" stroke-linecap="round" stroke-linejoin="round"/>
<path d="M17.3022 7.61719L16.7093 16.0089C16.609 17.3172 16.5269 18.3339 13.9818 18.3339H8.12556C5.58054 18.3339 5.49844 17.3172 5.3981 16.0089L4.80518 7.61719" stroke="#A3A3A3" stroke-width="1.5" stroke-linecap="round" stroke-linejoin="round"/>
<path d="M9.53027 13.75H12.5679" stroke="#A3A3A3" stroke-width="1.5" stroke-linecap="round" stroke-linejoin="round"/>
<path d="M8.77344 10.418H13.3344" stroke="#A3A3A3" stroke-width="1.5" stroke-linecap="round" stroke-linejoin="round"/>
</svg>
