<svg width="19" height="19" viewBox="0 0 19 19" fill="none" xmlns="http://www.w3.org/2000/svg">
<path d="M12.9525 1.70752H11.0025C8.60254 1.70752 7.10254 3.20752 7.10254 5.60752V8.64502H11.79C12.0975 8.64502 12.3525 8.90002 12.3525 9.20752C12.3525 9.51502 12.0975 9.77002 11.79 9.77002H7.10254V12.8075C7.10254 15.2075 8.60254 16.7075 11.0025 16.7075H12.945C15.345 16.7075 16.845 15.2075 16.845 12.8075V5.60752C16.8525 3.20752 15.3525 1.70752 12.9525 1.70752Z" fill="#3F41D1"/>
<path d="M3.77262 8.64502L5.32512 7.09252C5.43762 6.98002 5.49012 6.83752 5.49012 6.69502C5.49012 6.55252 5.43762 6.40252 5.32512 6.29752C5.10762 6.08002 4.74762 6.08002 4.53012 6.29752L2.01762 8.81002C1.80012 9.02752 1.80012 9.38752 2.01762 9.60502L4.53012 12.1175C4.74762 12.335 5.10762 12.335 5.32512 12.1175C5.54262 11.9 5.54262 11.54 5.32512 11.3225L3.77262 9.77002H7.10262V8.64502H3.77262Z" fill="#3F41D1"/>
</svg>
