<svg width="23" height="23" viewBox="0 0 23 23" fill="none" xmlns="http://www.w3.org/2000/svg">
<path d="M10.4076 2.07404H8.5557C3.92607 2.07404 2.07422 3.92589 2.07422 8.55552V14.1111C2.07422 18.7407 3.92607 20.5926 8.5557 20.5926H14.1113C18.7409 20.5926 20.5927 18.7407 20.5927 14.1111V12.2592" stroke="#3F41D1" stroke-width="1.5" stroke-linecap="round" stroke-linejoin="round"/>
<path d="M15.0741 3.01849L7.77777 10.3148C7.5 10.5926 7.22222 11.1389 7.16666 11.537L6.76851 14.3241C6.62037 15.3333 7.33333 16.037 8.34259 15.8981L11.1296 15.5C11.5185 15.4444 12.0648 15.1666 12.3518 14.8889L19.6481 7.59257C20.9074 6.33331 21.5 4.87035 19.6481 3.01849C17.7963 1.16664 16.3333 1.75924 15.0741 3.01849Z" stroke="#3F41D1" stroke-width="1.5" stroke-miterlimit="10" stroke-linecap="round" stroke-linejoin="round"/>
<path d="M14.0278 4.06479C14.6482 6.27775 16.3797 8.00923 18.6019 8.63886" stroke="#3F41D1" stroke-width="1.5" stroke-miterlimit="10" stroke-linecap="round" stroke-linejoin="round"/>
</svg>
