<svg width="242" height="36" viewBox="0 0 242 36" fill="none" xmlns="http://www.w3.org/2000/svg">
<path d="M76.1825 2.82422V16.9806C76.1825 20.2694 76.0396 23.4153 73.6098 25.8462C71.4659 27.9911 68.1786 28.7062 65.1771 28.7062C62.1758 28.7062 58.8885 27.9911 56.7444 25.8462C54.1718 23.4153 54.1718 20.1264 54.1718 16.9806V2.82422H60.7464V16.1227C60.7464 19.4115 61.0323 22.9864 65.1771 22.9864C69.465 22.9864 69.6079 19.4115 69.6079 16.1227V2.82422H76.1825Z" fill="#2D5EAC"/>
<path d="M80.3267 28.1342V2.82422H89.76C94.1907 2.82422 97.1922 4.54014 97.1922 9.40194C97.1922 11.6898 96.4776 13.5488 94.4765 14.5497C98.0497 14.9787 99.6219 17.4096 99.6219 20.9845C99.6219 26.2753 95.0482 27.9911 90.4746 27.9911H80.3267V28.1342ZM86.9015 12.6908H87.6161C89.3311 12.6908 91.1892 12.4048 91.1892 10.2599C91.1892 7.97201 89.1882 7.829 87.3302 7.829H86.9015V12.6908ZM86.9015 22.9864H87.759C89.76 22.9864 93.0473 23.1294 93.0473 20.2694C93.0473 17.2666 89.76 17.5526 87.6161 17.5526H86.9015V22.9864Z" fill="#2D5EAC"/>
<path d="M102.91 28.1342V2.82422H112.343C116.774 2.82422 119.775 4.54014 119.775 9.40194C119.775 11.6898 119.061 13.5488 117.059 14.5497C120.633 14.9787 122.205 17.4096 122.205 20.9845C122.205 26.2753 117.631 27.9911 113.058 27.9911H102.91V28.1342ZM109.485 12.6908H110.199C111.914 12.6908 113.772 12.4048 113.772 10.2599C113.772 7.97201 111.771 7.829 109.913 7.829H109.485V12.6908ZM109.485 22.9864H110.342C112.343 22.9864 115.63 23.1294 115.63 20.2694C115.63 17.2666 112.343 17.5526 110.199 17.5526H109.485V22.9864Z" fill="#2D5EAC"/>
<path d="M132.212 22.5574H140.073V28.1342H125.637V2.82422H132.212V22.5574Z" fill="#2D5EAC"/>
<path d="M148.789 8.40098V12.6908H156.221V18.2675H148.789V22.5574H156.65V28.1342H142.357V2.82422H156.65V8.40098H148.789Z" fill="#2D5EAC"/>
<path d="M176.66 12.5478V2.82422H183.234V28.1342H176.66V17.8386H167.227V28.1342H160.509V2.82422H167.084V12.5478H176.66Z" fill="#2D5EAC"/>
<path d="M214.108 14.9773C214.108 23.128 208.248 28.8478 200.102 28.8478C191.954 28.8478 186.094 23.128 186.094 14.9773C186.094 7.39861 192.811 1.96484 200.102 1.96484C207.39 1.96484 214.108 7.39861 214.108 14.9773ZM192.956 14.9773C192.956 19.2672 196.1 22.556 200.102 22.556C203.959 22.556 207.248 19.4101 207.248 14.9773C207.248 11.5454 204.104 8.25657 200.102 8.25657C196.242 8.39956 192.956 11.5454 192.956 14.9773Z" fill="#2D5EAC"/>
<path d="M216.537 2.82422H224.541L228.398 9.40194L232.258 2.82422H240.262L232.258 14.5497L241.548 27.9911H233.687L228.398 19.6976L222.539 27.9911H214.677L224.541 14.5497L216.537 2.82422Z" fill="#2D5EAC"/>
<path d="M43.451 2.82422V12.5478H33.8748V2.82422H27.4431V10.1169L32.8744 15.6937L27.4431 21.1275V28.1342H33.8748V17.6955H43.451V28.1342H50.0256V2.82422H43.451Z" fill="#2D5EAC"/>
<path d="M27.9191 12.4375L24.786 15.5719L27.9191 18.7064L31.052 15.5719L27.9191 12.4375Z" fill="#D3DD25"/>
<path d="M24.7588 9.33203L21.6257 12.4665L24.7588 15.6009L27.8917 12.4665L24.7588 9.33203Z" fill="#BED330"/>
<path d="M21.7004 6.31641L18.5675 9.45085L21.7004 12.5853L24.8334 9.45085L21.7004 6.31641Z" fill="#F7BF15"/>
<path d="M18.5436 3.21094L15.4108 6.34538L18.5438 9.47982L21.6767 6.34538L18.5436 3.21094Z" fill="#E96824"/>
<path d="M15.482 0L12.349 3.13444L15.482 6.26889L18.615 3.13444L15.482 0Z" fill="#E51E26"/>
<path d="M15.4855 24.8789L12.3525 28.0133L15.4855 31.1478L18.6184 28.0133L15.4855 24.8789Z" fill="#007E40"/>
<path d="M18.4944 21.8164L15.3615 24.9508L18.4944 28.0853L21.6275 24.9508L18.4944 21.8164Z" fill="#08A955"/>
<path d="M21.7041 18.7578L18.571 21.8923L21.7041 25.0267L24.837 21.8923L21.7041 18.7578Z" fill="#38AC4A"/>
<path d="M24.8117 15.5977L21.6786 18.7321L24.8117 21.8666L27.9445 18.7321L24.8117 15.5977Z" fill="#70B744"/>
<path d="M15.5382 18.7109L12.4053 21.8455L15.5382 24.9798L18.6712 21.8455L15.5382 18.7109Z" fill="#2B2C6C"/>
<path d="M18.5436 15.6484L15.4108 18.7829L18.5436 21.9173L21.6767 18.7829L18.5436 15.6484Z" fill="#3C3D92"/>
<path d="M21.6514 12.4844L18.5183 15.6188L21.6514 18.7532L24.7843 15.6188L21.6514 12.4844Z" fill="#743E93"/>
<path d="M15.5348 6.26562L12.4019 9.40007L15.5348 12.5345L18.6678 9.40007L15.5348 6.26562Z" fill="#C71D5C"/>
<path d="M18.4911 9.37891L15.358 12.5133L18.4911 15.6478L21.624 12.5133L18.4911 9.37891Z" fill="#E31A54"/>
<path d="M15.4855 12.4375L12.3525 15.5719L15.4855 18.7064L18.6184 15.5719L15.4855 12.4375Z" fill="#363088"/>
<path d="M7.52135 8.55469L5.09583 10.9814L7.52135 13.408L9.94688 10.9814L7.52135 8.55469Z" fill="#F7BF15"/>
<path d="M8.45908 16.1875L5.83142 18.8165L8.45908 21.4453L11.0867 18.8165L8.45908 16.1875Z" fill="#38AC4A"/>
<path d="M2.12234 11.7461L0 13.8694L2.12234 15.9928L4.24467 13.8694L2.12234 11.7461Z" fill="#E96824"/>
<path d="M161.936 34.7101H163.508V35.8541H160.65V30.9922H161.936V34.7101Z" fill="#2D5EAC"/>
<path d="M165.08 31.9907V32.8488H166.51V33.9926H165.08V34.8507H166.652V35.9947H163.937V31.1328H166.652V32.2768H165.08V31.9907Z" fill="#2D5EAC"/>
<path d="M168.655 34.996L168.369 35.8541H167.083L168.941 30.9922H170.37L172.229 35.8541H170.942L170.656 34.996H168.655ZM169.513 32.4221L168.941 33.9951H169.942L169.513 32.4221Z" fill="#2D5EAC"/>
<path d="M176.515 35.8541H174.943L173.8 33.9951V35.8541H172.513V30.9922H174.371C175.372 30.9922 176.086 31.4212 176.086 32.565C176.086 33.2802 175.658 33.852 175.086 33.9951L176.515 35.8541ZM173.8 33.137C174.371 33.137 174.8 32.9941 174.8 32.565C174.8 32.1362 174.371 31.9932 173.943 31.9932H173.8V33.137Z" fill="#2D5EAC"/>
<path d="M176.944 30.8516H178.23L180.517 33.8545V30.8516H181.804V35.7133H180.517L178.23 32.7105V35.7133H176.944V30.8516Z" fill="#2D5EAC"/>
<path d="M192.807 31.9907V32.8488H194.238V33.9926H192.807V34.8507H194.38V35.9947H191.665V31.1328H194.38V32.2768H192.807V31.9907Z" fill="#2D5EAC"/>
<path d="M196.238 34.996L195.954 35.8541H194.667L196.525 30.9922H197.954L199.811 35.8541H198.527L198.24 34.996H196.238ZM197.24 32.4221L196.667 33.9951H197.669L197.24 32.4221Z" fill="#2D5EAC"/>
<path d="M204.099 35.8541H202.526L201.382 33.9951V35.8541H200.097V30.9922H201.955C202.955 30.9922 203.67 31.4212 203.67 32.565C203.67 33.2802 203.241 33.852 202.668 33.9951L204.099 35.8541ZM201.382 33.137C201.955 33.137 202.384 32.9941 202.384 32.565C202.384 32.1362 201.955 31.9932 201.526 31.9932H201.382V33.137Z" fill="#2D5EAC"/>
<path d="M204.528 30.8516H205.813L208.101 33.8545V30.8516H209.386V35.7133H208.101L205.813 32.7105V35.7133H204.528V30.8516Z" fill="#2D5EAC"/>
<path d="M223.968 32.9964C223.968 33.7114 223.968 34.2834 223.539 34.9983C223.11 35.7133 222.395 35.9994 221.537 35.9994C219.966 35.9994 218.964 34.9983 218.964 33.4255C218.964 31.8524 220.108 30.8516 221.679 30.8516C222.681 30.8516 223.395 31.2804 223.823 32.2815L222.681 32.8535C222.537 32.4244 222.108 32.1385 221.679 32.1385C220.822 32.1385 220.393 32.9964 220.393 33.7114C220.393 34.4263 220.822 35.2844 221.679 35.2844C222.252 35.2844 222.681 34.9983 222.681 34.4263H221.679V33.4255H223.968V32.9964Z" fill="#2D5EAC"/>
<path d="M228.685 35.8541H227.113L225.969 33.9951V35.8541H224.683V30.9922H226.54C227.542 30.9922 228.256 31.4212 228.256 32.565C228.256 33.2802 227.827 33.852 227.256 33.9951L228.685 35.8541ZM225.827 33.137C226.398 33.137 226.827 32.9941 226.827 32.565C226.827 32.1362 226.398 31.9932 225.969 31.9932H225.827V33.137Z" fill="#2D5EAC"/>
<path d="M234.115 33.2848C234.115 34.8577 232.971 36.0017 231.399 36.0017C229.826 36.0017 228.684 34.8577 228.684 33.2848C228.684 31.8547 229.97 30.7109 231.399 30.7109C232.828 30.7109 234.115 31.7118 234.115 33.2848ZM229.97 33.2848C229.97 34.1427 230.542 34.7147 231.399 34.7147C232.115 34.7147 232.828 34.1427 232.828 33.2848C232.828 32.5697 232.257 31.9979 231.399 31.9979C230.684 31.9979 229.97 32.5697 229.97 33.2848Z" fill="#2D5EAC"/>
<path d="M236.402 33.9975L237.403 30.8516H238.403L239.403 33.9975L240.26 30.8516H241.547L239.976 35.7133H238.689L237.831 32.8535L236.831 35.7133H235.545L234.114 30.8516H235.401L236.402 33.9975Z" fill="#2D5EAC"/>
<path d="M187.663 33.2844C187.663 33.8564 187.09 34.4284 186.518 34.4284C185.947 34.4284 185.376 33.8564 185.376 33.2844C185.376 32.7126 185.947 32.1406 186.518 32.1406C187.234 32.1406 187.663 32.7126 187.663 33.2844Z" fill="#2D5EAC"/>
<path d="M215.106 33.2844C215.106 33.8564 214.535 34.4284 213.963 34.4284C213.39 34.4284 212.819 33.8564 212.819 33.2844C212.819 32.7126 213.39 32.1406 213.963 32.1406C214.677 32.1406 215.106 32.7126 215.106 33.2844Z" fill="#2D5EAC"/>
</svg>
