<svg width="65" height="32" viewBox="0 0 65 32" fill="none" xmlns="http://www.w3.org/2000/svg">
<path d="M39.8333 16.5C39.8333 15.12 40.9533 14 42.3333 14V13C42.3333 9 41.3333 8 37.3333 8H27.3333C23.3333 8 22.3333 9 22.3333 13V13.5C23.7133 13.5 24.8333 14.62 24.8333 16C24.8333 17.38 23.7133 18.5 22.3333 18.5V19C22.3333 23 23.3333 24 27.3333 24H37.3333C41.3333 24 42.3333 23 42.3333 19C40.9533 19 39.8333 17.88 39.8333 16.5Z" stroke="#666666" stroke-width="1.5" stroke-linecap="round" stroke-linejoin="round"/>
<path d="M30.3333 8L30.3333 24" stroke="#666666" stroke-width="1.5" stroke-linecap="round" stroke-linejoin="round" stroke-dasharray="5 5"/>
</svg>
