<svg width="65" height="32" viewBox="0 0 65 32" fill="none" xmlns="http://www.w3.org/2000/svg">
<g clip-path="url(#clip0_68922_1527)">
<rect x="0.666656" width="64" height="32" rx="16" fill="#3F41D1"/>
<path d="M34.6597 7.19955L34.66 7.19974L40.4199 11.2297C40.4199 11.2297 40.42 11.2297 40.42 11.2297C40.8892 11.5582 41.3335 12.0968 41.6609 12.724C41.9884 13.3512 42.1766 14.0243 42.1766 14.6001V21.3801C42.1766 23.6539 40.3305 25.5001 38.0566 25.5001H27.2766C25.0042 25.5001 23.1566 23.6453 23.1566 21.3701V14.4701C23.1566 13.9356 23.327 13.2965 23.6252 12.6909C23.9233 12.0856 24.3277 11.5569 24.7542 11.2243L24.7543 11.2242L29.7629 7.3153C29.7631 7.31513 29.7633 7.31496 29.7635 7.31479C31.1004 6.2795 33.2695 6.22547 34.6597 7.19955ZM32.6666 23.2501C33.3528 23.2501 33.9166 22.6862 33.9166 22.0001V19.0001C33.9166 18.3139 33.3528 17.7501 32.6666 17.7501C31.9805 17.7501 31.4166 18.3139 31.4166 19.0001V22.0001C31.4166 22.6862 31.9805 23.2501 32.6666 23.2501Z" fill="white" stroke="white"/>
</g>
<defs>
<clipPath id="clip0_68922_1527">
<rect x="0.666656" width="64" height="32" rx="16" fill="white"/>
</clipPath>
</defs>
</svg>
