<svg width="56" height="56" viewBox="0 0 56 56" fill="none" xmlns="http://www.w3.org/2000/svg">
<rect width="56" height="56" rx="12" fill="#EBEBFA"/>
<path d="M35.9702 26H19.9702V34C19.9702 37 20.9702 38 23.9702 38H31.9702C34.9702 38 35.9702 37 35.9702 34V26Z" stroke="#3F41D1" stroke-width="1.5" stroke-miterlimit="10" stroke-linecap="round" stroke-linejoin="round"/>
<path d="M37.5 23V24C37.5 25.1 36.97 26 35.5 26H20.5C18.97 26 18.5 25.1 18.5 24V23C18.5 21.9 18.97 21 20.5 21H35.5C36.97 21 37.5 21.9 37.5 23Z" stroke="#3F41D1" stroke-width="1.5" stroke-miterlimit="10" stroke-linecap="round" stroke-linejoin="round"/>
<path d="M27.6398 21H22.1198C21.7798 20.63 21.7898 20.06 22.1498 19.7L23.5698 18.28C23.9398 17.91 24.5498 17.91 24.9198 18.28L27.6398 21Z" stroke="#3F41D1" stroke-width="1.5" stroke-miterlimit="10" stroke-linecap="round" stroke-linejoin="round"/>
<path d="M33.8701 21H28.3501L31.0701 18.28C31.4401 17.91 32.0501 17.91 32.4201 18.28L33.8401 19.7C34.2001 20.06 34.2101 20.63 33.8701 21Z" stroke="#3F41D1" stroke-width="1.5" stroke-miterlimit="10" stroke-linecap="round" stroke-linejoin="round"/>
<path d="M24.9399 26V31.14C24.9399 31.94 25.8199 32.41 26.4899 31.98L27.4299 31.36C27.7699 31.14 28.1999 31.14 28.5299 31.36L29.4199 31.96C30.0799 32.4 30.9699 31.93 30.9699 31.13V26H24.9399Z" stroke="#3F41D1" stroke-width="1.5" stroke-miterlimit="10" stroke-linecap="round" stroke-linejoin="round"/>
</svg>
