<svg width="57" height="56" viewBox="0 0 57 56" fill="none" xmlns="http://www.w3.org/2000/svg">
<rect x="0.5" width="56" height="56" rx="12" fill="#EBEBFA"/>
<path d="M37 27.3V23.04C37 19.01 36.06 18 32.28 18H24.72C20.94 18 20 19.01 20 23.04V34.3C20 36.96 21.46 37.59 23.23 35.69L23.24 35.68C24.06 34.81 25.31 34.88 26.02 35.83L27.03 37.18" stroke="#3F41D1" stroke-width="1.5" stroke-linecap="round" stroke-linejoin="round"/>
<path d="M34.7 37.4C36.4673 37.4 37.9 35.9673 37.9 34.2C37.9 32.4327 36.4673 31 34.7 31C32.9327 31 31.5 32.4327 31.5 34.2C31.5 35.9673 32.9327 37.4 34.7 37.4Z" stroke="#3F41D1" stroke-width="1.5" stroke-linecap="round" stroke-linejoin="round"/>
<path d="M38.5 38L37.5 37" stroke="#3F41D1" stroke-width="1.5" stroke-linecap="round" stroke-linejoin="round"/>
<path d="M24.5 23H32.5" stroke="#3F41D1" stroke-width="1.5" stroke-linecap="round" stroke-linejoin="round"/>
<path d="M25.5 27H31.5" stroke="#3F41D1" stroke-width="1.5" stroke-linecap="round" stroke-linejoin="round"/>
</svg>
