<svg width="56" height="56" viewBox="0 0 56 56" fill="none" xmlns="http://www.w3.org/2000/svg">
<rect width="56" height="56" rx="12" fill="#EBEBFA"/>
<path d="M32.793 23.875C32.593 23.8417 32.3847 23.8333 32.168 23.8333H23.8347C23.6013 23.8333 23.3763 23.85 23.1597 23.8833C23.2763 23.65 23.443 23.4334 23.643 23.2334L26.3513 20.5167C27.493 19.3834 29.343 19.3834 30.4847 20.5167L31.943 21.9917C32.4763 22.5167 32.7597 23.1833 32.793 23.875Z" stroke="#3F41D1" stroke-width="1.5" stroke-linecap="round" stroke-linejoin="round"/>
<path d="M25.5002 33.8333C25.5002 34.4583 25.3252 35.05 25.0168 35.55C24.4418 36.5167 23.3835 37.1667 22.1668 37.1667C20.9502 37.1667 19.8918 36.5167 19.3168 35.55C19.0085 35.05 18.8335 34.4583 18.8335 33.8333C18.8335 31.9917 20.3252 30.5 22.1668 30.5C24.0085 30.5 25.5002 31.9917 25.5002 33.8333Z" stroke="#3F41D1" stroke-width="1.5" stroke-miterlimit="10" stroke-linecap="round" stroke-linejoin="round"/>
<path d="M23.4101 33.8162H20.9268" stroke="#3F41D1" stroke-width="1.5" stroke-miterlimit="10" stroke-linecap="round" stroke-linejoin="round"/>
<path d="M22.167 32.5996V35.0913" stroke="#3F41D1" stroke-width="1.5" stroke-miterlimit="10" stroke-linecap="round" stroke-linejoin="round"/>
<path d="M36.3332 28V32.1666C36.3332 34.6666 34.6665 36.3333 32.1665 36.3333H24.3582C24.6165 36.1166 24.8415 35.85 25.0165 35.55C25.3248 35.05 25.4998 34.4583 25.4998 33.8333C25.4998 31.9916 24.0082 30.5 22.1665 30.5C21.1665 30.5 20.2748 30.9416 19.6665 31.6333V28C19.6665 25.7333 21.0332 24.15 23.1582 23.8833C23.3748 23.85 23.5998 23.8333 23.8332 23.8333H32.1665C32.3832 23.8333 32.5915 23.8416 32.7915 23.875C34.9415 24.125 36.3332 25.7166 36.3332 28Z" stroke="#3F41D1" stroke-width="1.5" stroke-linecap="round" stroke-linejoin="round"/>
<path d="M36.3332 28.4167H33.8332C32.9165 28.4167 32.1665 29.1667 32.1665 30.0834C32.1665 31 32.9165 31.75 33.8332 31.75H36.3332" stroke="#3F41D1" stroke-width="1.5" stroke-linecap="round" stroke-linejoin="round"/>
</svg>
