<svg width="57" height="56" viewBox="0 0 57 56" fill="none" xmlns="http://www.w3.org/2000/svg">
<rect x="0.5" width="56" height="56" rx="12" fill="#EBEBFA"/>
<path d="M28.5 28C31.2614 28 33.5 25.7614 33.5 23C33.5 20.2386 31.2614 18 28.5 18C25.7386 18 23.5 20.2386 23.5 23C23.5 25.7614 25.7386 28 28.5 28Z" stroke="#3F41D1" stroke-width="1.5" stroke-linecap="round" stroke-linejoin="round"/>
<path d="M19.9102 38C19.9102 34.13 23.7602 31 28.5002 31C29.4602 31 30.3902 31.13 31.2602 31.37" stroke="#3F41D1" stroke-width="1.5" stroke-linecap="round" stroke-linejoin="round"/>
<path d="M38.5 34C38.5 34.32 38.46 34.63 38.38 34.93C38.29 35.33 38.13 35.72 37.92 36.06C37.23 37.22 35.96 38 34.5 38C33.47 38 32.54 37.61 31.84 36.97C31.54 36.71 31.28 36.4 31.08 36.06C30.71 35.46 30.5 34.75 30.5 34C30.5 32.92 30.93 31.93 31.63 31.21C32.36 30.46 33.38 30 34.5 30C35.68 30 36.75 30.51 37.47 31.33C38.11 32.04 38.5 32.98 38.5 34Z" stroke="#3F41D1" stroke-width="1.5" stroke-miterlimit="10" stroke-linecap="round" stroke-linejoin="round"/>
<path d="M35.9897 33.98H33.0098" stroke="#3F41D1" stroke-width="1.5" stroke-miterlimit="10" stroke-linecap="round" stroke-linejoin="round"/>
<path d="M34.5 32.52V35.51" stroke="#3F41D1" stroke-width="1.5" stroke-miterlimit="10" stroke-linecap="round" stroke-linejoin="round"/>
</svg>
