<svg width="56" height="56" viewBox="0 0 56 56" fill="none" xmlns="http://www.w3.org/2000/svg">
<rect width="56" height="56" rx="12" fill="#EBEBFA"/>
<path d="M38 32.74V20.67C38 19.47 37.02 18.58 35.83 18.68H35.77C33.67 18.86 30.48 19.93 28.7 21.05L28.53 21.16C28.24 21.34 27.76 21.34 27.47 21.16L27.22 21.01C25.44 19.9 22.26 18.84 20.16 18.67C18.97 18.57 18 19.47 18 20.66V32.74C18 33.7 18.78 34.6 19.74 34.72L20.03 34.76C22.2 35.05 25.55 36.15 27.47 37.2L27.51 37.22C27.78 37.37 28.21 37.37 28.47 37.22C30.39 36.16 33.75 35.05 35.93 34.76L36.26 34.72C37.22 34.6 38 33.7 38 32.74Z" stroke="#3F41D1" stroke-width="1.5" stroke-linecap="round" stroke-linejoin="round"/>
<path d="M28 21.49V36.49" stroke="#3F41D1" stroke-width="1.5" stroke-linecap="round" stroke-linejoin="round"/>
<path d="M23.75 24.49H21.5" stroke="#3F41D1" stroke-width="1.5" stroke-linecap="round" stroke-linejoin="round"/>
<path d="M24.5 27.49H21.5" stroke="#3F41D1" stroke-width="1.5" stroke-linecap="round" stroke-linejoin="round"/>
</svg>
