<svg width="56" height="56" viewBox="0 0 56 56" fill="none" xmlns="http://www.w3.org/2000/svg">
<rect width="56" height="56" rx="12" fill="#EBEBFA"/>
<path d="M28.92 18.26L35.43 21.77C36.19 22.18 36.19 23.35 35.43 23.76L28.92 27.27C28.34 27.58 27.66 27.58 27.08 27.27L20.57 23.76C19.81 23.35 19.81 22.18 20.57 21.77L27.08 18.26C27.66 17.95 28.34 17.95 28.92 18.26Z" stroke="#3F41D1" stroke-width="1.5" stroke-linecap="round" stroke-linejoin="round"/>
<path d="M19.61 26.13L25.66 29.16C26.41 29.54 26.89 30.31 26.89 31.15V36.87C26.89 37.7 26.02 38.23 25.28 37.86L19.23 34.83C18.48 34.45 18 33.68 18 32.84V27.12C18 26.29 18.87 25.76 19.61 26.13Z" stroke="#3F41D1" stroke-width="1.5" stroke-linecap="round" stroke-linejoin="round"/>
<path d="M36.3899 26.13L30.3399 29.16C29.5899 29.54 29.1099 30.31 29.1099 31.15V36.87C29.1099 37.7 29.9799 38.23 30.7199 37.86L36.7699 34.83C37.5199 34.45 37.9999 33.68 37.9999 32.84V27.12C37.9999 26.29 37.1299 25.76 36.3899 26.13Z" stroke="#3F41D1" stroke-width="1.5" stroke-linecap="round" stroke-linejoin="round"/>
</svg>
