<svg width="57" height="56" viewBox="0 0 57 56" fill="none" xmlns="http://www.w3.org/2000/svg">
<rect x="0.5" width="56" height="56" rx="12" fill="#EBEBFA"/>
<path d="M33.4 38H23.6C21.9 38 20.5 36.61 20.5 34.9V21.1C20.5 19.4 21.89 18 23.6 18H33.4C35.1 18 36.5 19.39 36.5 21.1V34.9C36.5 36.61 35.11 38 33.4 38Z" stroke="#3F41D1" stroke-width="1.5" stroke-linecap="round" stroke-linejoin="round"/>
<path d="M35 29H22C21.17 29 20.5 28.33 20.5 27.5V25.5C20.5 24.67 21.17 24 22 24H35C35.83 24 36.5 24.67 36.5 25.5V27.5C36.5 28.33 35.83 29 35 29Z" stroke="#3F41D1" stroke-width="1.5" stroke-linecap="round" stroke-linejoin="round"/>
<path d="M24.9945 33.7H25.0035" stroke="#3F41D1" stroke-width="2.5" stroke-linecap="round" stroke-linejoin="round"/>
<path d="M31.9945 33.7H32.0035" stroke="#3F41D1" stroke-width="2.5" stroke-linecap="round" stroke-linejoin="round"/>
<path d="M26 21H31" stroke="#3F41D1" stroke-width="1.5" stroke-linecap="round" stroke-linejoin="round"/>
</svg>
