<svg width="56" height="56" viewBox="0 0 56 56" fill="none" xmlns="http://www.w3.org/2000/svg">
<rect width="56" height="56" rx="12" fill="#3F41D1"/>
<path d="M28 28C30.7614 28 33 25.7614 33 23C33 20.2386 30.7614 18 28 18C25.2386 18 23 20.2386 23 23C23 25.7614 25.2386 28 28 28Z" stroke="white" stroke-width="1.5" stroke-linecap="round" stroke-linejoin="round"/>
<path d="M19.4102 38C19.4102 34.13 23.2602 31 28.0002 31" stroke="white" stroke-width="1.5" stroke-linecap="round" stroke-linejoin="round"/>
<path d="M34.2 37.4C35.9673 37.4 37.4 35.9673 37.4 34.2C37.4 32.4327 35.9673 31 34.2 31C32.4327 31 31 32.4327 31 34.2C31 35.9673 32.4327 37.4 34.2 37.4Z" stroke="white" stroke-width="1.5" stroke-linecap="round" stroke-linejoin="round"/>
<path d="M38 38L37 37" stroke="white" stroke-width="1.5" stroke-linecap="round" stroke-linejoin="round"/>
</svg>
