<svg width="20" height="20" viewBox="0 0 20 20" fill="none" xmlns="http://www.w3.org/2000/svg">
<path d="M7.50008 18.3346H12.5001C16.6667 18.3346 18.3334 16.668 18.3334 12.5013V7.5013C18.3334 3.33464 16.6667 1.66797 12.5001 1.66797H7.50008C3.33341 1.66797 1.66675 3.33464 1.66675 7.5013V12.5013C1.66675 16.668 3.33341 18.3346 7.50008 18.3346Z" stroke="#666666" stroke-width="1.5" stroke-linecap="round" stroke-linejoin="round"/>
<path d="M9.99992 12.9154C11.6107 12.9154 12.9166 11.6095 12.9166 9.9987C12.9166 8.38787 11.6107 7.08203 9.99992 7.08203C8.38909 7.08203 7.08325 8.38787 7.08325 9.9987C7.08325 11.6095 8.38909 12.9154 9.99992 12.9154Z" stroke="#666666" stroke-width="1.5" stroke-linecap="round" stroke-linejoin="round"/>
<path d="M14.6968 5.83464H14.7065" stroke="#666666" stroke-width="2" stroke-linecap="round" stroke-linejoin="round"/>
</svg>
