<svg width="14" height="14" viewBox="0 0 14 14" fill="none" xmlns="http://www.w3.org/2000/svg">
<path d="M12.0284 4.92933C11.4159 2.23433 9.06505 1.021 7.00005 1.021C7.00005 1.021 7.00005 1.021 6.99422 1.021C4.93506 1.021 2.57839 2.2285 1.96589 4.9235C1.28339 7.9335 3.12672 10.4827 4.79506 12.0868C5.41339 12.6818 6.20672 12.9793 7.00005 12.9793C7.79339 12.9793 8.58672 12.6818 9.19922 12.0868C10.8676 10.4827 12.7109 7.93933 12.0284 4.92933ZM7.00005 7.85183C5.98505 7.85183 5.16256 7.02933 5.16256 6.01433C5.16256 4.99933 5.98505 4.17683 7.00005 4.17683C8.01505 4.17683 8.83755 4.99933 8.83755 6.01433C8.83755 7.02933 8.01505 7.85183 7.00005 7.85183Z" fill="#3F41D1"/>
</svg>
