<svg width="242" height="36" viewBox="0 0 242 36" fill="none" xmlns="http://www.w3.org/2000/svg">
<path d="M76.1826 2.82373V16.9801C76.1826 20.2689 76.0397 23.4148 73.6099 25.8457C71.4661 27.9906 68.1788 28.7057 65.1772 28.7057C62.1759 28.7057 58.8886 27.9906 56.7446 25.8457C54.1719 23.4148 54.1719 20.126 54.1719 16.9801V2.82373H60.7465V16.1222C60.7465 19.411 61.0324 22.9859 65.1772 22.9859C69.4651 22.9859 69.608 19.411 69.608 16.1222V2.82373H76.1826Z" fill="white"/>
<path d="M80.3267 28.1337V2.82373H89.7599C94.1907 2.82373 97.1922 4.53965 97.1922 9.40145C97.1922 11.6894 96.4776 13.5483 94.4764 14.5492C98.0497 14.9782 99.6218 17.4091 99.6218 20.984C99.6218 26.2748 95.0482 27.9906 90.4745 27.9906H80.3267V28.1337ZM86.9014 12.6903H87.6161C89.3311 12.6903 91.1891 12.4043 91.1891 10.2594C91.1891 7.97152 89.1882 7.82851 87.3301 7.82851H86.9014V12.6903ZM86.9014 22.9859H87.7589C89.7599 22.9859 93.0472 23.1289 93.0472 20.2689C93.0472 17.2662 89.7599 17.5521 87.6161 17.5521H86.9014V22.9859Z" fill="white"/>
<path d="M102.91 28.1337V2.82373H112.343C116.774 2.82373 119.775 4.53965 119.775 9.40145C119.775 11.6894 119.061 13.5483 117.059 14.5492C120.633 14.9782 122.205 17.4091 122.205 20.984C122.205 26.2748 117.631 27.9906 113.058 27.9906H102.91V28.1337ZM109.484 12.6903H110.199C111.914 12.6903 113.772 12.4043 113.772 10.2594C113.772 7.97152 111.771 7.82851 109.913 7.82851H109.484V12.6903ZM109.484 22.9859H110.342C112.343 22.9859 115.63 23.1289 115.63 20.2689C115.63 17.2662 112.343 17.5521 110.199 17.5521H109.484V22.9859Z" fill="white"/>
<path d="M132.212 22.5569H140.073V28.1337H125.637V2.82373H132.212V22.5569Z" fill="white"/>
<path d="M148.789 8.40049V12.6903H156.221V18.267H148.789V22.5569H156.65V28.1337H142.357V2.82373H156.65V8.40049H148.789Z" fill="white"/>
<path d="M176.66 12.5473V2.82373H183.235V28.1337H176.66V17.8382H167.227V28.1337H160.509V2.82373H167.084V12.5473H176.66Z" fill="white"/>
<path d="M214.108 14.9771C214.108 23.1278 208.248 28.8476 200.102 28.8476C191.954 28.8476 186.094 23.1278 186.094 14.9771C186.094 7.39843 192.812 1.96466 200.102 1.96466C207.39 1.96466 214.108 7.39843 214.108 14.9771ZM192.956 14.9771C192.956 19.267 196.1 22.5558 200.102 22.5558C203.96 22.5558 207.248 19.4099 207.248 14.9771C207.248 11.5452 204.104 8.25639 200.102 8.25639C196.242 8.39938 192.956 11.5452 192.956 14.9771Z" fill="white"/>
<path d="M216.537 2.82373H224.541L228.398 9.40145L232.258 2.82373H240.262L232.258 14.5492L241.548 27.9906H233.687L228.398 19.6971L222.539 27.9906H214.677L224.541 14.5492L216.537 2.82373Z" fill="white"/>
<path d="M43.4507 2.82373V12.5473H33.8746V2.82373H27.4429V10.1164L32.8742 15.6932L27.4429 21.127V28.1337H33.8746V17.695H43.4507V28.1337H50.0253V2.82373H43.4507Z" fill="white"/>
<path d="M27.9192 12.4358L24.7861 15.5702L27.9192 18.7047L31.0521 15.5702L27.9192 12.4358Z" fill="#D3DD25"/>
<path d="M24.759 9.33038L21.626 12.4648L24.759 15.5993L27.8919 12.4648L24.759 9.33038Z" fill="#BED330"/>
<path d="M21.7003 6.31647L18.5674 9.45091L21.7003 12.5854L24.8333 9.45091L21.7003 6.31647Z" fill="#F7BF15"/>
<path d="M18.5435 3.21106L15.4106 6.3455L18.5437 9.47995L21.6766 6.3455L18.5435 3.21106Z" fill="#E96824"/>
<path d="M15.4821 0L12.3491 3.13444L15.4821 6.26889L18.6151 3.13444L15.4821 0Z" fill="#E51E26"/>
<path d="M15.4855 24.8787L12.3525 28.013L15.4855 31.1475L18.6184 28.013L15.4855 24.8787Z" fill="#007E40"/>
<path d="M18.4943 21.8155L15.3613 24.9498L18.4943 28.0844L21.6273 24.9498L18.4943 21.8155Z" fill="#08A955"/>
<path d="M21.7044 18.7593L18.5713 21.8939L21.7044 25.0282L24.8372 21.8939L21.7044 18.7593Z" fill="#38AC4A"/>
<path d="M24.8118 15.5976L21.6787 18.732L24.8118 21.8665L27.9447 18.732L24.8118 15.5976Z" fill="#70B744"/>
<path d="M15.5382 18.71L12.4053 21.8446L15.5382 24.9789L18.6712 21.8446L15.5382 18.71Z" fill="#2B2C6C"/>
<path d="M18.5435 15.6469L15.4106 18.7813L18.5435 21.9157L21.6766 18.7813L18.5435 15.6469Z" fill="#3C3D92"/>
<path d="M21.6511 12.4851L18.5181 15.6196L21.6511 18.754L24.784 15.6196L21.6511 12.4851Z" fill="#743E93"/>
<path d="M15.5348 6.26721L12.4019 9.40165L15.5348 12.5361L18.6678 9.40165L15.5348 6.26721Z" fill="#C71D5C"/>
<path d="M18.491 9.37964L15.3579 12.5141L18.491 15.6485L21.6239 12.5141L18.491 9.37964Z" fill="#E31A54"/>
<path d="M15.4855 12.4358L12.3525 15.5702L15.4855 18.7047L18.6184 15.5702L15.4855 12.4358Z" fill="#363088"/>
<path d="M7.52123 8.55579L5.0957 10.9825L7.52123 13.4091L9.94676 10.9825L7.52123 8.55579Z" fill="#F7BF15"/>
<path d="M8.4592 16.1891L5.83154 18.8181L8.4592 21.4469L11.0869 18.8181L8.4592 16.1891Z" fill="#38AC4A"/>
<path d="M2.12234 11.7457L0 13.8691L2.12234 15.9924L4.24467 13.8691L2.12234 11.7457Z" fill="#E96824"/>
<path d="M161.936 34.7088H163.508V35.8528H160.65V30.9909H161.936V34.7088Z" fill="white"/>
<path d="M165.08 31.9897V32.8478H166.51V33.9916H165.08V34.8497H166.653V35.9937H163.937V31.1318H166.653V32.2758H165.08V31.9897Z" fill="white"/>
<path d="M168.655 34.9947L168.369 35.8528H167.083L168.941 30.9909H170.37L172.228 35.8528H170.942L170.656 34.9947H168.655ZM169.513 32.4208L168.941 33.9938H169.941L169.513 32.4208Z" fill="white"/>
<path d="M176.515 35.8528H174.943L173.8 33.9938V35.8528H172.513V30.9909H174.371C175.372 30.9909 176.086 31.4199 176.086 32.5638C176.086 33.2789 175.657 33.8507 175.086 33.9938L176.515 35.8528ZM173.8 33.1358C174.371 33.1358 174.8 32.9928 174.8 32.5638C174.8 32.1349 174.371 31.9919 173.942 31.9919H173.8V33.1358Z" fill="white"/>
<path d="M176.944 30.8501H178.23L180.517 33.853V30.8501H181.804V35.7118H180.517L178.23 32.709V35.7118H176.944V30.8501Z" fill="white"/>
<path d="M192.807 31.9897V32.8478H194.238V33.9916H192.807V34.8497H194.38V35.9937H191.665V31.1318H194.38V32.2758H192.807V31.9897Z" fill="white"/>
<path d="M196.238 34.9947L195.954 35.8528H194.667L196.525 30.9909H197.954L199.811 35.8528H198.527L198.24 34.9947H196.238ZM197.24 32.4208L196.667 33.9938H197.669L197.24 32.4208Z" fill="white"/>
<path d="M204.099 35.8528H202.526L201.382 33.9938V35.8528H200.097V30.9909H201.955C202.955 30.9909 203.67 31.4199 203.67 32.5638C203.67 33.2789 203.241 33.8507 202.668 33.9938L204.099 35.8528ZM201.382 33.1358C201.955 33.1358 202.384 32.9928 202.384 32.5638C202.384 32.1349 201.955 31.9919 201.526 31.9919H201.382V33.1358Z" fill="white"/>
<path d="M204.528 30.8501H205.813L208.101 33.853V30.8501H209.386V35.7118H208.101L205.813 32.709V35.7118H204.528V30.8501Z" fill="white"/>
<path d="M223.968 32.9949C223.968 33.7099 223.968 34.2819 223.539 34.9968C223.11 35.7118 222.395 35.9979 221.537 35.9979C219.966 35.9979 218.964 34.9968 218.964 33.424C218.964 31.851 220.108 30.8501 221.679 30.8501C222.681 30.8501 223.395 31.279 223.823 32.28L222.681 32.852C222.537 32.423 222.108 32.137 221.679 32.137C220.822 32.137 220.393 32.9949 220.393 33.7099C220.393 34.4248 220.822 35.2829 221.679 35.2829C222.252 35.2829 222.681 34.9968 222.681 34.4248H221.679V33.424H223.968V32.9949Z" fill="white"/>
<path d="M228.685 35.8528H227.113L225.969 33.9938V35.8528H224.683V30.9909H226.54C227.542 30.9909 228.256 31.4199 228.256 32.5638C228.256 33.2789 227.827 33.8507 227.256 33.9938L228.685 35.8528ZM225.827 33.1358C226.398 33.1358 226.827 32.9928 226.827 32.5638C226.827 32.1349 226.398 31.9919 225.969 31.9919H225.827V33.1358Z" fill="white"/>
<path d="M234.115 33.2831C234.115 34.856 232.971 36 231.399 36C229.826 36 228.684 34.856 228.684 33.2831C228.684 31.853 229.971 30.7092 231.399 30.7092C232.828 30.7092 234.115 31.7101 234.115 33.2831ZM229.971 33.2831C229.971 34.141 230.542 34.713 231.399 34.713C232.115 34.713 232.828 34.141 232.828 33.2831C232.828 32.568 232.257 31.9962 231.399 31.9962C230.684 31.9962 229.971 32.568 229.971 33.2831Z" fill="white"/>
<path d="M236.403 33.996L237.403 30.8501H238.403L239.403 33.996L240.26 30.8501H241.547L239.976 35.7118H238.689L237.831 32.852L236.831 35.7118H235.545L234.114 30.8501H235.401L236.403 33.996Z" fill="white"/>
<path d="M187.663 33.2825C187.663 33.8545 187.09 34.4265 186.518 34.4265C185.947 34.4265 185.376 33.8545 185.376 33.2825C185.376 32.7107 185.947 32.1387 186.518 32.1387C187.234 32.1387 187.663 32.7107 187.663 33.2825Z" fill="white"/>
<path d="M215.106 33.2825C215.106 33.8545 214.535 34.4265 213.964 34.4265C213.391 34.4265 212.819 33.8545 212.819 33.2825C212.819 32.7107 213.391 32.1387 213.964 32.1387C214.677 32.1387 215.106 32.7107 215.106 33.2825Z" fill="white"/>
</svg>
