<svg width="18" height="20" viewBox="0 0 18 20" fill="none" xmlns="http://www.w3.org/2000/svg">
<path d="M9.00329 2.29276e-06C8.9474 2.29276e-06 8.89273 0.0118128 8.84413 0.0389771L0.164465 4.74785C0.11286 4.77598 0.0702286 4.8174 0.0412523 4.86755C0.0122761 4.91769 -0.00192461 4.97463 0.000209561 5.03211C0.00234373 5.08959 0.0207303 5.14539 0.0533502 5.19337C0.0859701 5.24136 0.131562 5.27968 0.185119 5.30412L2.25055 6.24306V7.18791H1.9298C1.84462 7.18759 1.76278 7.2201 1.70221 7.27832C1.64163 7.33654 1.60726 7.41572 1.60662 7.49853V10.3106C1.60662 10.4842 1.7512 10.6248 1.9298 10.6248H3.21644C3.39383 10.6248 3.53598 10.4831 3.53598 10.3106V7.49971C3.53598 7.41722 3.50235 7.33809 3.44246 7.27965C3.38257 7.22121 3.3013 7.18822 3.21644 7.18791H2.89326V6.53833L5.29281 7.62844C5.38271 7.84812 5.52122 8.07842 5.7144 8.28983V8.37605C5.10206 8.43983 4.6343 8.96776 4.6343 9.59962C4.6343 10.2622 5.14701 10.822 5.83346 10.8279C5.86141 10.8279 5.88206 10.8279 5.90879 10.8256C6.13477 11.4279 6.54665 11.9487 7.07151 12.3196V12.9975L6.97674 12.9054C6.94651 12.8759 6.91051 12.8525 6.87087 12.8367C6.83123 12.8209 6.78875 12.8129 6.7459 12.8133C6.66229 12.8148 6.58256 12.8478 6.52356 12.9054L5.63178 13.7711C4.05355 13.9022 2.42064 14.9085 1.67101 16.6741C1.61877 16.8159 1.28709 17.5139 1.28709 18.5816V19.687C1.28709 19.8595 1.42924 20 1.60662 20H16.3939C16.5713 20 16.7146 19.8583 16.7146 19.687V18.5816C16.7146 17.7194 16.4959 17.0604 16.3149 16.6446C15.6042 14.9782 14.0101 13.9105 12.3687 13.7699L11.4782 12.9054C11.4483 12.8762 11.4129 12.8529 11.3738 12.8371C11.3347 12.8213 11.2927 12.8131 11.2504 12.8131C11.208 12.8131 11.1661 12.8213 11.127 12.8371C11.0879 12.8529 11.0524 12.8762 11.0226 12.9054L10.9302 12.9952V12.3184C11.4539 11.9487 11.8657 11.4267 12.0917 10.8256C12.1184 10.8279 12.1403 10.8291 12.1683 10.8291C12.8389 10.8291 13.3674 10.2646 13.3674 9.59962C13.3674 8.97721 12.9106 8.44219 12.2861 8.37841L12.2885 8.28511C12.4696 8.0926 12.6166 7.84812 12.7077 7.62962L17.8154 5.30531C17.8687 5.28086 17.9141 5.24265 17.9466 5.19484C17.9791 5.14704 17.9975 5.09148 17.9998 5.03421C18.002 4.97695 17.9881 4.92018 17.9594 4.8701C17.9307 4.82002 17.8885 4.77855 17.8373 4.75021L9.15759 0.0377961C9.11024 0.0127993 9.05717 -0.000198554 9.00329 2.29276e-06ZM9.00086 0.672023L16.9759 4.99469L12.8863 6.85721C12.9004 6.67574 12.8914 6.49327 12.8596 6.31393V4.49628C12.855 4.36067 12.7997 4.23133 12.7041 4.13252C12.6207 4.04469 12.522 3.97192 12.4125 3.91756C12.147 3.78882 11.8651 3.69509 11.5741 3.63884C10.9011 3.48884 9.99956 3.40026 9.00086 3.40026C8.00095 3.40026 7.09945 3.48884 6.42515 3.63884C6.13461 3.69518 5.8531 3.78891 5.58804 3.91756C5.47855 3.97192 5.37983 4.04469 5.29645 4.13252C5.20124 4.23151 5.14639 4.36083 5.14215 4.49628V6.3092C5.12879 6.3777 5.09841 6.5714 5.11664 6.85721L2.89326 5.84623V3.98252L9.00086 0.672023ZM11.4308 4.24708C11.6648 4.2931 11.892 4.36688 12.1075 4.46676C12.1683 4.49982 12.2023 4.52581 12.2169 4.53998V5.65962C12.0093 5.57737 11.7946 5.51334 11.5754 5.46829C10.9011 5.3183 9.99956 5.2309 8.99965 5.2309C8.00095 5.2309 7.09945 5.3183 6.42636 5.46711C6.20781 5.51235 5.99361 5.57556 5.78608 5.65608V4.53998C5.81885 4.51075 5.85566 4.48611 5.89543 4.46676C6.02907 4.39589 6.26599 4.3144 6.56851 4.24708C7.17235 4.11362 8.04105 4.02622 9.00086 4.02622C9.96068 4.02622 10.8257 4.11362 11.4308 4.24708ZM2.24933 4.33211V5.55096L1.02587 4.99587L2.24933 4.33211ZM11.4296 6.07653C11.7333 6.14385 11.9714 6.22771 12.1075 6.29857C12.1488 6.32219 12.2035 6.35526 12.2169 6.36944C12.2182 6.38385 12.2211 6.39809 12.2254 6.41195C12.2327 6.44739 12.3748 7.24224 11.8244 7.8493H10.0773C9.29488 7.8493 8.63516 7.28239 8.51852 6.54305C8.50488 6.46658 8.46248 6.39776 8.39958 6.34996C8.33667 6.30216 8.25774 6.27879 8.1781 6.28438C8.09846 6.28997 8.0238 6.32413 7.96862 6.38022C7.91343 6.43632 7.88165 6.51034 7.87946 6.58793C7.87564 6.92254 7.7367 7.24229 7.49261 7.47824C7.24852 7.7142 6.91882 7.84746 6.57459 7.8493H6.17608C5.60748 7.19972 5.78001 6.41668 5.78244 6.37534C5.81671 6.34479 5.85514 6.31896 5.89664 6.29857C6.03029 6.22771 6.26234 6.14622 6.56487 6.08008C7.1687 5.94544 8.04226 5.85568 9.00208 5.85568C9.9619 5.85568 10.8269 5.94307 11.432 6.07653H11.4296ZM8.25245 7.5375C8.4546 7.82682 8.72669 8.0635 9.04485 8.22679C9.36302 8.39008 9.71753 8.47499 10.0773 8.47408H11.6446V9.72954C11.6446 11.1468 10.471 12.2948 9.00086 12.2948C8.65367 12.296 8.30965 12.2306 7.98857 12.1022C7.66749 11.9738 7.37567 11.785 7.12988 11.5466C6.8841 11.3082 6.6892 11.025 6.55637 10.7131C6.42354 10.4013 6.35541 10.067 6.3559 9.72954V8.47408H6.57216C7.37039 8.47408 7.97058 8.01465 8.25245 7.5375ZM2.25055 7.81151H2.89326V9.99882H2.24933L2.25055 7.81151ZM5.71318 9.01146V9.73072C5.71318 9.88898 5.72533 10.0449 5.7472 10.1961C5.50057 10.1571 5.27701 9.91615 5.27701 9.59962C5.27701 9.3079 5.47019 9.06461 5.71318 9.01146ZM12.2861 9.01146C12.5218 9.06697 12.7223 9.29845 12.7223 9.59962C12.7223 9.91615 12.5036 10.1547 12.2509 10.1949C12.2742 10.0412 12.286 9.88607 12.2861 9.73072V9.01146ZM7.71301 12.668C8.10908 12.831 8.54282 12.9196 8.99965 12.9196C9.4415 12.9212 9.87913 12.836 10.2863 12.6692V13.6199L8.99843 14.8719L7.71301 13.6211V12.668ZM6.74711 13.568L8.54525 15.3124L8.03619 15.8084L6.24048 14.0605L6.74711 13.568ZM11.2485 13.568L11.7588 14.064L9.96554 15.8096L9.45283 15.3124L11.2485 13.568ZM12.3262 14.3947C13.693 14.5246 14.9675 15.3573 15.6309 16.686C15.9224 17.2776 16.0727 17.9256 16.0707 18.5816V19.3752H13.8206V18.4386C13.8206 18.2615 13.6748 18.1221 13.4938 18.1245C13.4518 18.1249 13.4104 18.1334 13.3718 18.1495C13.3332 18.1655 13.2982 18.1888 13.2689 18.218C13.2396 18.2471 13.2164 18.2816 13.2008 18.3195C13.1852 18.3574 13.1774 18.3979 13.1779 18.4386V19.3752H4.82262V18.4386C4.82262 18.2615 4.67682 18.1221 4.49458 18.1245C4.45262 18.1249 4.41116 18.1334 4.37257 18.1495C4.33399 18.1655 4.29903 18.1888 4.2697 18.218C4.24036 18.2471 4.21723 18.2816 4.20161 18.3195C4.186 18.3574 4.17821 18.3979 4.17869 18.4386V19.3752H1.9298V18.5816C1.9298 17.9957 2.04401 17.4454 2.25419 16.9411C2.82037 15.571 4.11916 14.5412 5.6743 14.3959L7.80899 16.4698C7.93534 16.5915 8.13703 16.5915 8.26338 16.4698L9.00086 15.7541L9.73834 16.4698C9.8647 16.5915 10.0664 16.5915 10.1915 16.4698L12.3262 14.3947Z" fill="#666666"/>
</svg>
