<svg width="40" height="40" viewBox="0 0 40 40" fill="none" xmlns="http://www.w3.org/2000/svg">
<g clip-path="url(#clip0_63790_176756)">
<rect x="4" y="4" width="32" height="32" rx="8" fill="#CFD5F1"/>
<path d="M15.8192 24.626C13.1452 24.626 12.1792 23.156 11.9972 21.448H13.1732C13.3272 22.638 13.8032 23.646 15.8192 23.646C17.1072 23.646 18.1012 22.89 18.1012 21.756C18.1012 20.622 17.5832 20.146 15.6792 19.838C13.5792 19.516 12.3332 18.858 12.3332 17.08C12.3332 15.54 13.6632 14.364 15.5532 14.364C17.5552 14.364 18.8012 15.344 18.9972 17.122H17.9052C17.6672 15.862 16.9392 15.344 15.5532 15.344C14.1812 15.344 13.4672 16.03 13.4672 16.968C13.4672 17.948 13.8312 18.452 15.8752 18.76C18.1012 19.11 19.2772 19.782 19.2772 21.672C19.2772 23.352 17.8072 24.626 15.8192 24.626ZM24.3915 24.626C21.7175 24.626 20.7515 23.156 20.5695 21.448H21.7455C21.8995 22.638 22.3755 23.646 24.3915 23.646C25.6795 23.646 26.6735 22.89 26.6735 21.756C26.6735 20.622 26.1555 20.146 24.2515 19.838C22.1515 19.516 20.9055 18.858 20.9055 17.08C20.9055 15.54 22.2355 14.364 24.1255 14.364C26.1275 14.364 27.3735 15.344 27.5695 17.122H26.4775C26.2395 15.862 25.5115 15.344 24.1255 15.344C22.7535 15.344 22.0395 16.03 22.0395 16.968C22.0395 17.948 22.4035 18.452 24.4475 18.76C26.6735 19.11 27.8495 19.782 27.8495 21.672C27.8495 23.352 26.3795 24.626 24.3915 24.626Z" fill="#3F41D1"/>
</g>
<rect x="4.5" y="4.5" width="31" height="31" rx="7.5" stroke="#3F41D1"/>
<defs>
<clipPath id="clip0_63790_176756">
<rect x="4" y="4" width="32" height="32" rx="8" fill="white"/>
</clipPath>
</defs>
</svg>
