<svg width="45" height="45" viewBox="0 0 45 45" fill="none" xmlns="http://www.w3.org/2000/svg">
<path d="M14.4002 0H16.2002V5.39983H14.4002V0ZM18.0001 0H19.8001V1.80064H18.0001V0ZM21.6 0H28.7998V7.19978H30.5998V8.99972H23.4V7.19978H26.9999V3.59989H25.1992V1.80064H23.4V3.59989H21.6V0ZM0 0V12.5996H12.5996V0H0ZM10.8004 10.8004H1.80064V1.80064H10.8004V10.8004ZM32.3997 0V12.5996H45V0H32.3997ZM43.2001 10.8004H34.1996V1.80064H43.2001V10.8004Z" fill="#212121"/>
<path d="M3.59989 3.59989H8.99972V8.99972H3.59989V3.59989ZM19.8001 3.59989H21.6007V5.39983H19.8001V3.59989ZM35.9996 3.59989H41.4001V8.99972H35.9996V3.59989ZM16.1995 5.39983H19.8001V7.19978H18.0001V8.99972H19.8001V12.5996H21.6V16.1995H19.8001V14.4002H18.0001V10.8004H16.1995V14.4002H18.0001V16.1995H14.4002V8.99972H16.1995V5.39983Z" fill="#212121"/>
<path d="M21.6 10.8004H23.4V12.6003H21.6V10.8004ZM25.1992 10.8004H26.9999V12.6003H25.1992V10.8004ZM28.7998 10.8004H30.6004V12.6003H28.7998V10.8004ZM3.59989 14.4002H8.99972V16.1995H10.8004V18.0001H8.99972V19.8001H7.19978V16.1995H3.59989V14.4002ZM10.8004 14.4002H12.6003V16.2002L10.8004 16.1995V14.4002ZM23.4 14.4002H25.1999V16.2002H23.4V14.4002ZM26.9999 14.4002H28.7998V18.0001H26.9999V14.4002ZM30.5997 14.4002H35.9996V18.0001H34.1996V16.1995H30.5997V14.4002ZM39.5995 14.4002H45V16.1995H41.4001V18.0001H45V23.4H39.5995V21.6H41.4001V19.8001H37.7995V18.0001H39.5995V14.4002Z" fill="#212121"/>
<path d="M12.5996 16.1995H14.4002V19.8001H18.0001V16.1995H19.8001V18.0001H25.1992V19.8001H19.8001V21.6H16.1995V23.4H7.19978V25.1992H5.39983V19.8001H7.19978L7.19978 21.6H12.5996V19.8001H10.8004L10.8004 18.0001L12.5996 18.0001V16.1995ZM3.59989 18.0001H5.39983V19.8001H3.59989V18.0001ZM28.7998 18.0001L30.6004 18.0001V19.8001H28.7998L28.7998 18.0001ZM0 19.8001H3.59989V23.4H1.80064V30.5998H0V19.8001ZM25.1992 19.8001H26.9999V21.6007H25.1992V19.8001Z" fill="#212121"/>
<path d="M21.6 21.6H25.1992V25.1992H23.4V23.4H21.6V21.6ZM28.7998 21.6H30.6004V23.4H28.7998V21.6ZM37.7995 23.4H39.6002V25.1999H37.7995V23.4ZM3.59989 25.1992L5.39983 25.1992V26.9999H8.99972V28.7998H7.19978V30.5998H5.39983V28.7998H3.59989V25.1992ZM10.8004 25.1992H12.6003V26.9999H10.8004V25.1992Z" fill="#212121"/>
<path d="M39.5995 25.1992H45V30.5998H43.2001V26.9999H39.5995V25.1992Z" fill="#212121"/>
<path d="M37.7995 28.7998V25.1999H35.9996V23.4H34.1996V21.6H35.9996V23.4H37.7995V19.8001H34.1996V18.0001H32.3997V19.8001H30.5998V21.6H32.3997V25.1992H34.1996V28.7991H28.7998V26.9999H32.3997V25.1992H28.7998V23.3993H26.9999V25.1992H25.1992L25.1992 28.7991H23.3993V30.5998H21.5993V28.7998L23.3993 28.7991V25.1999H21.5993V26.9999H19.8001V25.1992H21.6V23.3993H16.1995V25.1992H18.0001V26.9999H12.5996V28.7998H8.99972V30.5998H14.4002V28.7998H19.8001V30.5998H14.4002V32.3997H18.0001V34.1996H16.1995V35.9996H14.3996V41.4001H16.1995V39.5995H18.0001V35.9996H19.8001V34.1996H21.6V32.3997H25.1992V30.5998H26.9999V34.1996H28.7998V37.7995H26.9999V34.1996H23.4V35.9996H19.8001V39.5995H21.6V37.7995H25.1992V39.5995H28.7991V41.4001H30.5998V39.5995H32.3997V37.7995H35.9996V39.5995H39.5995V37.7995H37.7995V35.9996H39.5995V34.1996H37.7995V32.3997H39.5995V30.5998H41.4001V28.7998H37.7995ZM35.9996 35.9996H30.5998V30.5998H35.9996V35.9996ZM41.4001 30.5998H43.2001L43.2001 32.3997H45V34.1996H41.4001V30.5998Z" fill="#212121"/>
<path d="M32.3997 32.3997H34.2003V34.2003H32.3997V32.3997ZM0 32.3997V45H12.5996V32.3997H0ZM10.8004 43.2001H1.80064V34.1996H10.8004V43.2001Z" fill="#212121"/>
<path d="M3.59989 35.9996H8.99972V41.4001H3.59989V35.9996ZM39.5995 35.9996H41.4001V37.7995H39.5995V35.9996ZM43.2001 37.7995H45V45H37.7995V43.2001H43.2001V37.7995ZM21.6 39.5995H25.1992V41.4001H21.6V39.5995ZM32.3997 39.5995H35.9996L35.9996 41.4001H37.7995V43.2001H34.1996V45H30.5997V43.2001H32.3997V39.5995Z" fill="#212121"/>
<path d="M39.5995 39.5995H41.4001V41.4001H39.5995V39.5995ZM19.8001 41.4001H21.6007V43.2007H19.8001V41.4001ZM25.1992 43.2001H28.7991V45H25.1992V43.2001Z" fill="#212121"/>
</svg>
