<svg width="64" height="32" viewBox="0 0 64 32" fill="none" xmlns="http://www.w3.org/2000/svg">
<path d="M22.77 14C22.34 14 22 13.66 22 13.23V10.92C22 8.21 24.21 6 26.92 6H29.23C29.66 6 30 6.34 30 6.77C30 7.2 29.66 7.54 29.23 7.54H26.92C25.05 7.54 23.54 9.06 23.54 10.92V13.23C23.54 13.66 23.19 14 22.77 14Z" fill="#666666"/>
<path d="M41.23 14C40.81 14 40.46 13.66 40.46 13.23V10.92C40.46 9.05 38.94 7.54 37.08 7.54H34.77C34.34 7.54 34 7.19 34 6.77C34 6.35 34.34 6 34.77 6H37.08C39.79 6 42 8.21 42 10.92V13.23C42 13.66 41.66 14 41.23 14Z" fill="#666666"/>
<path d="M37.08 26.0001H35.69C35.27 26.0001 34.92 25.6601 34.92 25.2301C34.92 24.8101 35.26 24.4601 35.69 24.4601H37.08C38.95 24.4601 40.46 22.9401 40.46 21.0801V19.7001C40.46 19.2801 40.8 18.9301 41.23 18.9301C41.65 18.9301 42 19.2701 42 19.7001V21.0801C42 23.7901 39.79 26.0001 37.08 26.0001Z" fill="#666666"/>
<path d="M29.23 26H26.92C24.21 26 22 23.79 22 21.08V18.77C22 18.34 22.34 18 22.77 18C23.2 18 23.54 18.34 23.54 18.77V21.08C23.54 22.95 25.06 24.46 26.92 24.46H29.23C29.65 24.46 30 24.8 30 25.23C30 25.66 29.66 26 29.23 26Z" fill="#666666"/>
<path d="M38.46 15.23H37.1H26.9H25.54C25.11 15.23 24.77 15.58 24.77 16C24.77 16.42 25.11 16.77 25.54 16.77H26.9H37.1H38.46C38.89 16.77 39.23 16.42 39.23 16C39.23 15.58 38.89 15.23 38.46 15.23Z" fill="#666666"/>
<path d="M26.9 17.94V18.27C26.9 19.93 28.24 21.27 29.9 21.27H34.1C35.76 21.27 37.1 19.93 37.1 18.27V17.94C37.1 17.82 37.01 17.73 36.89 17.73H27.11C26.99 17.73 26.9 17.82 26.9 17.94Z" fill="#666666"/>
<path d="M26.9 14.06V13.73C26.9 12.07 28.24 10.73 29.9 10.73H34.1C35.76 10.73 37.1 12.07 37.1 13.73V14.06C37.1 14.18 37.01 14.27 36.89 14.27H27.11C26.99 14.27 26.9 14.18 26.9 14.06Z" fill="#666666"/>
</svg>
