<svg width="25" height="24" viewBox="0 0 25 24" fill="none" xmlns="http://www.w3.org/2000/svg">
<path d="M21 11.3V7.04001C21 3.01001 20.06 2 16.28 2H8.72C4.94 2 4 3.01001 4 7.04001V18.3C4 20.96 5.46001 21.59 7.23001 19.69L7.23999 19.68C8.05999 18.81 9.30999 18.88 10.02 19.83L11.03 21.18" stroke="#3F41D1" stroke-width="1.5" stroke-linecap="round" stroke-linejoin="round"/>
<path d="M18.7 21.4C20.4673 21.4 21.9 19.9673 21.9 18.2C21.9 16.4327 20.4673 15 18.7 15C16.9327 15 15.5 16.4327 15.5 18.2C15.5 19.9673 16.9327 21.4 18.7 21.4Z" stroke="#3F41D1" stroke-width="1.5" stroke-linecap="round" stroke-linejoin="round"/>
<path d="M22.5 22L21.5 21" stroke="#3F41D1" stroke-width="1.5" stroke-linecap="round" stroke-linejoin="round"/>
<path d="M8.5 7H16.5" stroke="#3F41D1" stroke-width="1.5" stroke-linecap="round" stroke-linejoin="round"/>
<path d="M9.5 11H15.5" stroke="#3F41D1" stroke-width="1.5" stroke-linecap="round" stroke-linejoin="round"/>
</svg>
