<svg width="16" height="16" viewBox="0 0 16 16" fill="none" xmlns="http://www.w3.org/2000/svg">
<path d="M12.6627 5.09164L12.6627 5.09166L12.6652 5.09566C12.7072 5.16145 12.6918 5.26986 12.6027 5.32462L12.2116 5.55661L12.2096 5.55781L3.46959 10.7978L3.46813 10.7987C3.38682 10.8478 3.28044 10.8196 3.23415 10.7386L3.23353 10.7375C2.62227 9.6739 2.34708 8.37879 2.58582 7.01982L2.58587 7.01953C2.98847 4.71979 4.88448 2.8846 7.19699 2.55501C9.49053 2.23099 11.5616 3.32995 12.6627 5.09164Z" fill="#3F41D1" stroke="#3F41D1"/>
<path d="M4.96063 12.5795L4.96065 12.5795L4.95582 12.5763C4.84891 12.5056 4.85397 12.348 4.96125 12.2837C4.96149 12.2835 4.96172 12.2834 4.96195 12.2833L13.2324 7.42498C13.2325 7.42491 13.2326 7.42484 13.2327 7.42478C13.3313 7.36744 13.4751 7.42147 13.4881 7.57157C13.5184 7.99836 13.5003 8.43295 13.4327 8.87607C13.0171 11.4681 10.7164 13.4573 8.08523 13.5001C6.922 13.5184 5.84938 13.1821 4.96063 12.5795Z" fill="#3F41D1" stroke="#3F41D1"/>
</svg>
