<svg width="40" height="40" viewBox="0 0 40 40" fill="none" xmlns="http://www.w3.org/2000/svg">
<g clip-path="url(#clip0_66693_69742)">
<rect width="40" height="40" rx="20" fill="#EBEBFA"/>
<path d="M25 29H15C11 29 10 28 10 24V16C10 12 11 11 15 11H25C29 11 30 12 30 16V24C30 28 29 29 25 29Z" stroke="#3F41D1" stroke-width="1.5" stroke-linecap="round" stroke-linejoin="round"/>
<path d="M22 16H27" stroke="#3F41D1" stroke-width="1.5" stroke-linecap="round" stroke-linejoin="round"/>
<path d="M23 20H27" stroke="#3F41D1" stroke-width="1.5" stroke-linecap="round" stroke-linejoin="round"/>
<path d="M25 24H27" stroke="#3F41D1" stroke-width="1.5" stroke-linecap="round" stroke-linejoin="round"/>
<path d="M16.4999 19.2919C17.4996 19.2919 18.3099 18.4815 18.3099 17.4819C18.3099 16.4822 17.4996 15.6719 16.4999 15.6719C15.5003 15.6719 14.6899 16.4822 14.6899 17.4819C14.6899 18.4815 15.5003 19.2919 16.4999 19.2919Z" stroke="#3F41D1" stroke-width="1.5" stroke-linecap="round" stroke-linejoin="round"/>
<path d="M20 24.3317C19.86 22.8817 18.71 21.7417 17.26 21.6117C16.76 21.5617 16.25 21.5617 15.74 21.6117C14.29 21.7517 13.14 22.8817 13 24.3317" stroke="#3F41D1" stroke-width="1.5" stroke-linecap="round" stroke-linejoin="round"/>
</g>
<defs>
<clipPath id="clip0_66693_69742">
<rect width="40" height="40" rx="20" fill="white"/>
</clipPath>
</defs>
</svg>
