<svg width="16" height="16" viewBox="0 0 16 16" fill="none" xmlns="http://www.w3.org/2000/svg">
<path d="M1.83325 7.33337C1.83325 6.50285 2.50273 5.83337 3.33325 5.83337H4.33325C4.79044 5.83337 5.16659 6.20952 5.16659 6.66671V13.3334C5.16659 13.7906 4.79044 14.1667 4.33325 14.1667H3.33325C2.50273 14.1667 1.83325 13.4972 1.83325 12.6667V7.33337ZM3.49992 12.3334C4.04939 12.3334 4.49992 11.8829 4.49992 11.3334V8.66671C4.49992 8.11723 4.04939 7.66671 3.49992 7.66671C2.95044 7.66671 2.49992 8.11723 2.49992 8.66671V11.3334C2.49992 11.8829 2.95044 12.3334 3.49992 12.3334Z" fill="#3F41D1" stroke="#4B4DD4"/>
<path d="M12.6667 1.33337H8.66675C7.56008 1.33337 6.66675 2.22671 6.66675 3.33337V12.6667C6.66675 13.7734 7.56008 14.6667 8.66675 14.6667H9.00008C9.18675 14.6667 9.33341 14.52 9.33341 14.3334V12C9.33341 11.6334 9.63341 11.3334 10.0001 11.3334H11.3334C11.7001 11.3334 12.0001 11.6334 12.0001 12V14.3334C12.0001 14.52 12.1467 14.6667 12.3334 14.6667H12.6667C13.7734 14.6667 14.6667 13.7734 14.6667 12.6667V3.33337C14.6667 2.22671 13.7734 1.33337 12.6667 1.33337ZM9.83341 8.66671C9.83341 8.94004 9.60675 9.16671 9.33341 9.16671C9.06008 9.16671 8.83341 8.94004 8.83341 8.66671V5.33337C8.83341 5.06004 9.06008 4.83337 9.33341 4.83337C9.60675 4.83337 9.83341 5.06004 9.83341 5.33337V8.66671ZM12.5001 8.66671C12.5001 8.94004 12.2734 9.16671 12.0001 9.16671C11.7267 9.16671 11.5001 8.94004 11.5001 8.66671V5.33337C11.5001 5.06004 11.7267 4.83337 12.0001 4.83337C12.2734 4.83337 12.5001 5.06004 12.5001 5.33337V8.66671Z" fill="#3F41D1"/>
</svg>
