<svg width="65" height="32" viewBox="0 0 65 32" fill="none" xmlns="http://www.w3.org/2000/svg">
<g clip-path="url(#clip0_77822_4119)">
<rect x="0.75" width="64" height="32" rx="16" fill="#3F41D1"/>
<path d="M37.26 9.01L35.3 7.05C33.9 5.65 31.6 5.65 30.2 7.05L28.24 9.01C27.85 9.4 27.85 10.04 28.24 10.43L32.05 14.24C32.44 14.63 33.07 14.63 33.46 14.24L37.27 10.43C37.65 10.04 37.65 9.4 37.26 9.01Z" fill="white"/>
<path d="M25.76 11.49L23.8 13.45C22.4 14.85 22.4 17.15 23.8 18.55L25.76 20.51C26.15 20.9 26.78 20.9 27.17 20.51L30.98 16.7C31.37 16.31 31.37 15.68 30.98 15.29L27.18 11.49C26.79 11.1 26.15 11.1 25.76 11.49Z" fill="white"/>
<path d="M41.7 13.45L39.74 11.49C39.35 11.1 38.72 11.1 38.33 11.49L34.52 15.3C34.13 15.69 34.13 16.32 34.52 16.71L38.33 20.52C38.72 20.91 39.35 20.91 39.74 20.52L41.7 18.56C43.1 17.15 43.1 14.85 41.7 13.45Z" fill="white"/>
<path d="M28.2401 22.99L30.2001 24.95C31.6001 26.35 33.9001 26.35 35.3001 24.95L37.2601 22.99C37.6501 22.6 37.6501 21.97 37.2601 21.58L33.4501 17.77C33.0601 17.38 32.4301 17.38 32.0401 17.77L28.2301 21.58C27.8501 21.96 27.8501 22.6 28.2401 22.99Z" fill="white"/>
</g>
<defs>
<clipPath id="clip0_77822_4119">
<rect x="0.75" width="64" height="32" rx="16" fill="white"/>
</clipPath>
</defs>
</svg>
