<svg width="65" height="32" viewBox="0 0 65 32" fill="none" xmlns="http://www.w3.org/2000/svg">
<path d="M38.8084 19.275C38.8084 19.575 38.7417 19.8833 38.6001 20.1833C38.4584 20.4833 38.2751 20.7666 38.0334 21.0333C37.6251 21.4833 37.1751 21.8083 36.6667 22.0166C36.1667 22.225 35.6251 22.3333 35.0417 22.3333C34.1917 22.3333 33.2834 22.1333 32.3251 21.725C31.3667 21.3166 30.4084 20.7666 29.4584 20.075C28.5001 19.375 27.5917 18.6 26.7251 17.7416C25.8667 16.875 25.0917 15.9666 24.4001 15.0166C23.7167 14.0666 23.1667 13.1166 22.7667 12.175C22.3667 11.225 22.1667 10.3166 22.1667 9.44996C22.1667 8.88329 22.2667 8.34163 22.4667 7.84163C22.6667 7.33329 22.9834 6.86663 23.4251 6.44996C23.9584 5.92496 24.5417 5.66663 25.1584 5.66663C25.3917 5.66663 25.6251 5.71663 25.8334 5.81663C26.0501 5.91663 26.2417 6.06663 26.3917 6.28329L28.3251 9.00829C28.4751 9.21663 28.5834 9.40829 28.6584 9.59163C28.7334 9.76663 28.7751 9.94163 28.7751 10.1C28.7751 10.3 28.7167 10.5 28.6001 10.6916C28.4917 10.8833 28.3334 11.0833 28.1334 11.2833L27.5001 11.9416C27.4084 12.0333 27.3667 12.1416 27.3667 12.275C27.3667 12.3416 27.3751 12.4 27.3917 12.4666C27.4167 12.5333 27.4417 12.5833 27.4584 12.6333C27.6084 12.9083 27.8667 13.2666 28.2334 13.7C28.6084 14.1333 29.0084 14.575 29.4417 15.0166C29.8917 15.4583 30.3251 15.8666 30.7667 16.2416C31.2001 16.6083 31.5584 16.8583 31.8417 17.0083C31.8834 17.025 31.9334 17.05 31.9917 17.075C32.0584 17.1 32.1251 17.1083 32.2001 17.1083C32.3417 17.1083 32.4501 17.0583 32.5417 16.9666L33.1751 16.3416C33.3834 16.1333 33.5834 15.975 33.7751 15.875C33.9667 15.7583 34.1584 15.7 34.3667 15.7C34.5251 15.7 34.6917 15.7333 34.8751 15.8083C35.0584 15.8833 35.2501 15.9916 35.4584 16.1333L38.2167 18.0916C38.4334 18.2416 38.5834 18.4166 38.6751 18.625C38.7584 18.8333 38.8084 19.0416 38.8084 19.275Z" stroke="#666666" stroke-width="1.5" stroke-miterlimit="10"/>
<path d="M35.9167 11.4999C35.9167 10.9999 35.525 10.2333 34.9417 9.60825C34.4083 9.03325 33.7 8.58325 33 8.58325" stroke="#666666" stroke-width="1.5" stroke-linecap="round" stroke-linejoin="round"/>
<path d="M38.8333 11.5C38.8333 8.27496 36.225 5.66663 33 5.66663" stroke="#666666" stroke-width="1.5" stroke-linecap="round" stroke-linejoin="round"/>
</svg>
