<svg width="65" height="32" viewBox="0 0 65 32" fill="none" xmlns="http://www.w3.org/2000/svg">
<path d="M28.0001 22.3333H33.0001C37.1667 22.3333 38.8334 20.6666 38.8334 16.5V11.5C38.8334 7.33329 37.1667 5.66663 33.0001 5.66663H28.0001C23.8334 5.66663 22.1667 7.33329 22.1667 11.5V16.5C22.1667 20.6666 23.8334 22.3333 28.0001 22.3333Z" stroke="#666666" stroke-width="1.5" stroke-linecap="round" stroke-linejoin="round"/>
<path d="M33.4167 19.4167C34.3333 19.4167 35.0833 18.6667 35.0833 17.75V10.25C35.0833 9.33337 34.3333 8.58337 33.4167 8.58337C32.5 8.58337 31.75 9.33337 31.75 10.25V17.75C31.75 18.6667 32.4917 19.4167 33.4167 19.4167Z" stroke="#666666" stroke-width="1.5" stroke-linecap="round" stroke-linejoin="round"/>
<path d="M27.5834 19.4166C28.5001 19.4166 29.2501 18.6666 29.2501 17.75V14.8333C29.2501 13.9166 28.5001 13.1666 27.5834 13.1666C26.6667 13.1666 25.9167 13.9166 25.9167 14.8333V17.75C25.9167 18.6666 26.6584 19.4166 27.5834 19.4166Z" stroke="#666666" stroke-width="1.5" stroke-linecap="round" stroke-linejoin="round"/>
</svg>
