<svg width="299" height="299" viewBox="0 0 299 299" fill="none" xmlns="http://www.w3.org/2000/svg">
<path d="M258.139 70.4401C259.56 69.8123 260.766 68.7815 261.608 67.4752C262.45 66.169 262.89 64.6446 262.875 63.0907C262.875 58.7013 259.568 55.1313 255.454 55.1133C251.339 55.0954 247.991 58.6356 247.973 63.0249C247.944 64.5916 248.379 66.1318 249.224 67.4514C250.069 68.7711 251.286 69.811 252.721 70.4401C241.257 72.1683 241.777 84.6306 241.777 84.6306L268.885 84.7562C268.885 84.7562 269.507 72.1563 258.139 70.4401Z" fill="#F5F5F5"/>
<path d="M97.9643 23.8725L80.2456 17.6055L62.7003 23.7888C60.4638 24.8293 58.5143 25.4512 58.5143 27.5083V37.7401C58.4923 44.9263 60.4965 51.9731 64.2969 58.0721C68.1221 64.2887 73.7557 69.1878 80.4429 72.1132C87.6189 69.8168 92.9651 63.7053 96.2421 58.4728C100.038 52.3721 102.04 45.326 102.019 38.1408V28.9376C101.995 26.0074 100.416 24.5781 97.9643 23.8725Z" fill="white"/>
<path d="M86.112 40.3873C86.1162 39.4742 85.8654 38.5781 85.3878 37.7998C84.9103 37.0216 84.2249 36.3921 83.4089 35.9824C82.5929 35.5726 81.6787 35.3989 80.7692 35.4806C79.8598 35.5624 78.9913 35.8965 78.2614 36.4453C77.5316 36.994 76.9695 37.7357 76.6385 38.5866C76.3074 39.4376 76.2205 40.3641 76.3876 41.2618C76.5547 42.1595 76.9691 42.9927 77.5841 43.6676C78.1992 44.3424 78.9905 44.8322 79.8688 45.0816V52.4191H82.5479V45.0816C83.572 44.7939 84.4742 44.1797 85.1175 43.3324C85.7608 42.4852 86.11 41.4511 86.112 40.3873Z" fill="#8C8C8C"/>
<path d="M248.612 118.698L251.632 120.337L250.275 122.609L247.225 120.815L247.285 124.17H244.678V120.785L241.658 122.591L240.324 120.319L243.344 118.68L240.324 117.018L241.658 114.745L244.702 116.611V113.227H247.309L247.249 116.611L250.299 114.781L251.656 117.054L248.612 118.698Z" fill="#626262"/>
<path d="M261.194 118.699L264.214 120.337L262.857 122.609L259.807 120.815L259.867 124.17H257.26L257.289 120.786L254.24 122.615L252.906 120.343L255.926 118.704L252.906 117.042L254.24 114.77L257.289 116.6L257.26 113.215H259.867L259.807 116.6L262.857 114.77L264.214 117.042L261.194 118.699Z" fill="#626262"/>
<path d="M273.776 118.697L276.802 120.335L275.445 122.608L272.395 120.814L272.449 124.168H269.841L269.871 120.784L266.822 122.614L265.488 120.341L268.514 118.703L265.512 117.034L266.846 114.762L269.895 116.592L269.865 113.207H272.473L272.419 116.592L275.469 114.762L276.826 117.034L273.776 118.697Z" fill="#626262"/>
<path d="M145.757 261.84V280.414H172.918H202.877V261.84H145.757Z" fill="#F5F5F5"/>
<path d="M143.359 256.645V261.841H204.875V256.645H172.918H143.359Z" fill="white"/>
<path d="M174.114 280.415H202.877V261.841H204.875V256.645H172.918V261.357L174.114 280.415Z" fill="white"/>
<path d="M165.329 264.832H153.746V267.631H165.329V264.832Z" fill="#626262"/>
<path d="M167.129 271.129H152.251V277.031H167.129V271.129Z" fill="white"/>
<path d="M154.541 238.094V256.668H181.708H211.668V238.094H154.541Z" fill="#F5F5F5"/>
<path d="M152.143 232.898V238.095H213.665V232.898H181.708H152.143Z" fill="white"/>
<path d="M182.904 256.669H211.668V238.095H213.665V232.898H181.708V237.617L182.904 256.669Z" fill="white"/>
<path d="M174.114 241.09H162.53V243.888H174.114V241.09Z" fill="#626262"/>
<path d="M175.92 247.383H161.041V253.285H175.92V247.383Z" fill="white"/>
<path d="M277.514 280.558C277.514 280.642 220.196 280.713 149.506 280.713C78.8164 280.713 21.4861 280.642 21.4861 280.558C21.4861 280.474 78.7925 280.402 149.506 280.402C220.219 280.402 277.514 280.462 277.514 280.558Z" fill="#263238"/>
<path d="M238.476 146.941H149.362C147.255 146.941 145.547 148.65 145.547 150.757V196.886C145.547 198.993 147.255 200.702 149.362 200.702H238.476C240.584 200.702 242.292 198.993 242.292 196.886V150.757C242.292 148.65 240.584 146.941 238.476 146.941Z" fill="white"/>
<path d="M238.482 200.701C238.482 200.701 238.74 200.701 239.23 200.611C239.957 200.454 240.623 200.09 241.149 199.565C241.533 199.178 241.829 198.713 242.017 198.201C242.124 197.906 242.196 197.599 242.232 197.286C242.232 196.963 242.232 196.616 242.232 196.258C242.232 194.822 242.232 193.166 242.232 191.306C242.232 183.849 242.202 173.073 242.184 159.756C242.184 158.087 242.184 156.383 242.184 154.643V152C242.184 151.109 242.274 150.206 241.909 149.38C241.657 148.756 241.24 148.211 240.701 147.807C240.162 147.402 239.523 147.152 238.853 147.084C238.411 147.054 237.92 147.084 237.454 147.084H231.683H206.675H149.374C148.764 147.083 148.163 147.234 147.626 147.525C147.089 147.815 146.634 148.235 146.301 148.747C145.961 149.253 145.756 149.837 145.703 150.445C145.673 151.043 145.703 151.701 145.703 152.323V174.437C145.703 179.221 145.703 183.925 145.703 188.549V195.391C145.703 195.953 145.703 196.521 145.703 197.071C145.73 197.609 145.873 198.135 146.121 198.614C146.376 199.083 146.729 199.493 147.156 199.814C147.584 200.134 148.075 200.36 148.597 200.474C149.129 200.559 149.668 200.587 150.206 200.557H173.569H195.361L226.911 200.605L235.486 200.635L226.911 200.665L195.361 200.713H173.569H150.206C149.648 200.742 149.089 200.712 148.537 200.623C147.974 200.502 147.443 200.259 146.983 199.912C146.522 199.565 146.142 199.122 145.87 198.614C145.595 198.101 145.438 197.533 145.41 196.951C145.41 196.353 145.41 195.827 145.41 195.259C145.41 193.005 145.41 190.72 145.41 188.418V174.437C145.41 169.653 145.41 164.779 145.41 159.816V152.341C145.41 151.707 145.41 151.097 145.41 150.439C145.454 149.785 145.66 149.152 146.008 148.597C146.371 148.045 146.864 147.589 147.443 147.27C148.029 146.958 148.681 146.792 149.345 146.785H206.645H231.653H237.424C237.902 146.785 238.357 146.785 238.847 146.785C239.327 146.835 239.793 146.973 240.223 147.192C241.076 147.625 241.745 148.351 242.106 149.237C242.281 149.671 242.374 150.133 242.381 150.6C242.381 151.049 242.381 151.497 242.381 151.946V154.589C242.381 156.327 242.381 158.032 242.381 159.702C242.381 173.019 242.339 183.795 242.328 191.252C242.328 193.112 242.328 194.769 242.328 196.204C242.328 196.563 242.328 196.904 242.328 197.238C242.289 197.557 242.213 197.871 242.1 198.171C241.907 198.691 241.603 199.163 241.209 199.553C240.671 200.082 239.989 200.442 239.248 200.587C239.062 200.622 238.874 200.642 238.686 200.647L238.482 200.701Z" fill="#263238"/>
<path d="M179.256 165.938V166.608H176.458V163.02H179.185V163.689H177.289V164.449H178.963V165.101H177.289V165.938H179.256Z" fill="#263238"/>
<path d="M183.239 162.996V166.584H182.551L180.757 164.389V166.584H179.932V162.996H180.596L182.39 165.191V162.996H183.239Z" fill="#263238"/>
<path d="M184.848 163.678H183.688V162.996H186.839V163.678H185.679V166.608H184.848V163.678Z" fill="#263238"/>
<path d="M190.086 165.938V166.608H187.288V163.02H190.02V163.689H188.119V164.449H189.799V165.101H188.119V165.938H190.086Z" fill="#263238"/>
<path d="M193.058 166.608L192.359 165.603H191.593V166.608H190.762V163.02H192.329C193.292 163.02 193.896 163.516 193.896 164.329C193.903 164.572 193.836 164.812 193.703 165.016C193.571 165.22 193.379 165.379 193.154 165.471L193.961 166.631L193.058 166.608ZM192.275 163.677H191.593V164.933H192.275C192.783 164.933 193.04 164.7 193.04 164.305C193.04 163.911 192.783 163.677 192.275 163.677Z" fill="#263238"/>
<path d="M195.785 164.802C195.809 164.412 195.946 164.038 196.18 163.726C196.415 163.413 196.736 163.177 197.103 163.046C197.471 162.914 197.869 162.894 198.248 162.987C198.627 163.08 198.971 163.283 199.236 163.57L198.697 164.066C198.586 163.934 198.447 163.827 198.29 163.754C198.133 163.681 197.962 163.642 197.788 163.642C197.496 163.663 197.222 163.794 197.022 164.008C196.823 164.223 196.712 164.505 196.712 164.799C196.712 165.092 196.823 165.374 197.022 165.589C197.222 165.804 197.496 165.935 197.788 165.956C197.962 165.958 198.134 165.922 198.292 165.848C198.449 165.774 198.588 165.666 198.697 165.531L199.236 166.028C198.972 166.317 198.629 166.522 198.25 166.617C197.87 166.712 197.471 166.693 197.103 166.562C196.734 166.431 196.412 166.194 196.178 165.881C195.944 165.568 195.807 165.192 195.785 164.802Z" fill="#263238"/>
<path d="M199.499 164.802C199.477 164.406 199.575 164.013 199.779 163.674C199.983 163.334 200.285 163.064 200.644 162.898C201.004 162.731 201.405 162.677 201.796 162.741C202.187 162.805 202.55 162.985 202.837 163.258C203.125 163.531 203.324 163.883 203.409 164.27C203.494 164.657 203.46 165.061 203.313 165.429C203.166 165.797 202.912 166.112 202.584 166.334C202.256 166.556 201.868 166.674 201.472 166.674C201.218 166.688 200.963 166.651 200.724 166.563C200.484 166.476 200.265 166.34 200.081 166.165C199.896 165.989 199.749 165.778 199.649 165.543C199.549 165.309 199.498 165.057 199.499 164.802ZM202.602 164.802C202.598 164.579 202.527 164.363 202.4 164.181C202.273 163.998 202.095 163.857 201.888 163.775C201.681 163.693 201.455 163.674 201.237 163.72C201.02 163.767 200.821 163.876 200.665 164.035C200.509 164.194 200.404 164.395 200.362 164.614C200.321 164.833 200.344 165.059 200.43 165.264C200.517 165.469 200.661 165.644 200.847 165.767C201.032 165.89 201.25 165.956 201.472 165.956C201.624 165.959 201.774 165.932 201.914 165.875C202.055 165.818 202.182 165.732 202.288 165.624C202.394 165.516 202.476 165.387 202.53 165.246C202.584 165.104 202.609 164.953 202.602 164.802Z" fill="#263238"/>
<path d="M204.085 162.996H205.712C206.188 162.996 206.644 163.185 206.981 163.522C207.317 163.858 207.506 164.314 207.506 164.79C207.506 165.266 207.317 165.722 206.981 166.059C206.644 166.395 206.188 166.584 205.712 166.584H204.073L204.085 162.996ZM205.682 165.92C205.979 165.92 206.263 165.802 206.473 165.593C206.683 165.383 206.8 165.099 206.8 164.802C206.8 164.505 206.683 164.221 206.473 164.011C206.263 163.802 205.979 163.684 205.682 163.684H204.923V165.92H205.682Z" fill="#263238"/>
<path d="M211.148 165.938V166.608H208.349V163.02H211.094V163.689H209.18V164.449H210.861V165.101H209.18V165.938H211.148Z" fill="#263238"/>
<path d="M165.538 172.379H156.754C155.449 172.379 154.392 173.436 154.392 174.741V188.417C154.392 189.722 155.449 190.779 156.754 190.779H165.538C166.843 190.779 167.9 189.722 167.9 188.417V174.741C167.9 173.436 166.843 172.379 165.538 172.379Z" fill="white"/>
<path d="M182.408 172.379H173.623C172.319 172.379 171.261 173.436 171.261 174.741V188.417C171.261 189.722 172.319 190.779 173.623 190.779H182.408C183.712 190.779 184.77 189.722 184.77 188.417V174.741C184.77 173.436 183.712 172.379 182.408 172.379Z" fill="white"/>
<path d="M199.278 172.379H190.493C189.188 172.379 188.131 173.436 188.131 174.741V188.417C188.131 189.722 189.188 190.779 190.493 190.779H199.278C200.582 190.779 201.64 189.722 201.64 188.417V174.741C201.64 173.436 200.582 172.379 199.278 172.379Z" fill="white"/>
<path d="M216.141 172.379H207.356C206.052 172.379 204.994 173.436 204.994 174.741V188.417C204.994 189.722 206.052 190.779 207.356 190.779H216.141C217.446 190.779 218.503 189.722 218.503 188.417V174.741C218.503 173.436 217.446 172.379 216.141 172.379Z" fill="white"/>
<path d="M233.011 172.379H224.226C222.921 172.379 221.864 173.436 221.864 174.741V188.417C221.864 189.722 222.921 190.779 224.226 190.779H233.011C234.315 190.779 235.373 189.722 235.373 188.417V174.741C235.373 173.436 234.315 172.379 233.011 172.379Z" fill="white"/>
<path d="M164.091 182.989C164.091 184.299 163.075 185.154 161.699 185.154C159.81 185.154 158.811 183.796 158.811 181.566C158.811 179.138 160.109 177.882 162.004 177.882C162.572 177.857 163.136 177.985 163.637 178.253L163.421 178.671C162.988 178.434 162.498 178.32 162.004 178.343C160.396 178.343 159.337 179.401 159.337 181.488C159.337 181.776 159.357 182.064 159.397 182.349C159.565 181.887 159.88 181.492 160.294 181.225C160.707 180.959 161.197 180.835 161.687 180.872C163.122 180.872 164.091 181.709 164.091 182.989ZM163.565 182.989C163.565 181.966 162.829 181.297 161.615 181.297C161.37 181.269 161.122 181.293 160.886 181.366C160.651 181.439 160.433 181.56 160.246 181.721C160.059 181.882 159.907 182.08 159.8 182.302C159.693 182.524 159.633 182.766 159.624 183.013C159.624 183.856 160.33 184.693 161.675 184.693C161.914 184.719 162.156 184.695 162.385 184.621C162.613 184.547 162.824 184.426 163.002 184.265C163.181 184.104 163.323 183.907 163.42 183.687C163.517 183.467 163.566 183.229 163.565 182.989Z" fill="#3F41D1"/>
<path d="M180.775 183.124H179.268V185.116H178.754V183.124H174.658V182.748L178.557 177.934H179.155L175.328 182.664H178.778V180.912H179.28V182.664H180.787L180.775 183.124Z" fill="#3F41D1"/>
<path d="M198.171 186.14C196.089 186.347 193.992 186.347 191.91 186.14C193.992 185.933 196.089 185.933 198.171 186.14Z" fill="#3F41D1"/>
<path d="M151.689 153.774C152.498 153.774 153.154 153.118 153.154 152.309C153.154 151.5 152.498 150.844 151.689 150.844C150.88 150.844 150.224 151.5 150.224 152.309C150.224 153.118 150.88 153.774 151.689 153.774Z" fill="#263238"/>
<path d="M157.376 152.309C157.376 152.599 157.29 152.882 157.129 153.123C156.968 153.364 156.739 153.552 156.471 153.662C156.203 153.773 155.909 153.802 155.625 153.746C155.341 153.689 155.079 153.55 154.875 153.345C154.67 153.14 154.53 152.879 154.474 152.595C154.417 152.31 154.446 152.016 154.557 151.748C154.668 151.48 154.856 151.252 155.097 151.091C155.338 150.93 155.621 150.844 155.911 150.844C156.299 150.844 156.672 150.998 156.947 151.273C157.221 151.548 157.376 151.92 157.376 152.309Z" fill="#263238"/>
<path d="M160.055 153.774C160.864 153.774 161.52 153.118 161.52 152.309C161.52 151.5 160.864 150.844 160.055 150.844C159.246 150.844 158.59 151.5 158.59 152.309C158.59 153.118 159.246 153.774 160.055 153.774Z" fill="#263238"/>
<path d="M242.441 156.437C242.441 156.52 220.776 156.592 194.063 156.592C167.35 156.592 145.685 156.52 145.685 156.437C145.685 156.353 167.338 156.281 194.063 156.281C220.788 156.281 242.441 156.347 242.441 156.437Z" fill="#263238"/>
<path d="M224.675 28.8789H117.848C115.681 28.8789 113.925 30.6352 113.925 32.8018V131.083C113.925 133.25 115.681 135.006 117.848 135.006H224.675C226.841 135.006 228.597 133.25 228.597 131.083V32.8018C228.597 30.6352 226.841 28.8789 224.675 28.8789Z" fill="white"/>
<path d="M224.675 135.006H224.956C225.233 134.983 225.508 134.931 225.775 134.85C226.296 134.691 226.779 134.423 227.191 134.066C227.603 133.709 227.935 133.269 228.167 132.775C228.489 132.034 228.617 131.223 228.538 130.419C228.538 129.528 228.538 128.547 228.538 127.489C228.538 125.372 228.538 122.926 228.538 120.175C228.538 109.172 228.508 93.2653 228.484 73.5791C228.484 63.742 228.484 52.972 228.484 41.4007C228.484 38.5144 228.484 35.5782 228.484 32.5922C228.439 31.8621 228.183 31.1607 227.748 30.5728C227.313 29.9849 226.717 29.5356 226.032 29.2793C225.32 29.054 224.57 28.9727 223.825 29.0401H202.483H117.86C116.962 29.0453 116.095 29.3696 115.414 29.955C114.711 30.549 114.251 31.3815 114.122 32.2932C114.081 32.7504 114.067 33.2097 114.08 33.6686V70.4875C114.08 84.6421 114.08 98.2944 114.08 111.301C114.08 117.807 114.08 124.144 114.08 130.311C114.08 130.694 114.08 131.089 114.08 131.454C114.115 131.821 114.202 132.181 114.338 132.524C114.614 133.211 115.086 133.801 115.695 134.222C116.298 134.643 117.011 134.876 117.746 134.892H128.815H160.994L207.59 134.946H220.255L207.59 134.976L160.994 135.024H128.815H117.74C116.95 135.004 116.183 134.753 115.534 134.302C114.885 133.852 114.382 133.221 114.086 132.488C113.94 132.12 113.845 131.734 113.805 131.34C113.776 130.933 113.805 130.563 113.805 130.174C113.805 124.006 113.805 117.67 113.805 111.163C113.805 98.1569 113.805 84.5046 113.805 70.3499C113.805 63.2696 113.805 56.0717 113.805 48.7561V33.6387C113.789 33.1657 113.805 32.6922 113.853 32.2214C113.985 31.2489 114.47 30.3589 115.217 29.7218C115.95 29.0808 116.886 28.7206 117.86 28.7052H202.483H223.79C224.567 28.6381 225.35 28.7276 226.092 28.9683C226.825 29.2428 227.463 29.7237 227.929 30.353C228.395 30.9823 228.669 31.733 228.717 32.5145C228.717 35.5045 228.717 38.4466 228.717 41.3409C228.717 52.9122 228.717 63.6822 228.717 73.5193C228.717 93.1935 228.681 109.112 228.669 120.115C228.669 122.866 228.669 125.312 228.669 127.429C228.669 128.487 228.669 129.468 228.669 130.359C228.745 131.177 228.609 132.001 228.275 132.751C227.975 133.38 227.512 133.917 226.935 134.307C226.358 134.697 225.687 134.926 224.992 134.97L224.675 135.006Z" fill="#263238"/>
<path d="M122.59 36.2354C122.59 36.6283 122.473 37.0124 122.255 37.339C122.037 37.6656 121.726 37.9201 121.363 38.0702C121 38.2203 120.6 38.2592 120.215 38.1821C119.83 38.105 119.476 37.9154 119.199 37.6371C118.921 37.3588 118.733 37.0045 118.657 36.619C118.581 36.2335 118.621 35.8341 118.772 35.4715C118.923 35.1088 119.179 34.7991 119.506 34.5817C119.833 34.3643 120.218 34.2488 120.611 34.25C120.871 34.25 121.129 34.3014 121.369 34.4012C121.61 34.5011 121.829 34.6474 122.012 34.8319C122.196 35.0163 122.342 35.2352 122.441 35.4761C122.54 35.7169 122.591 35.9749 122.59 36.2354Z" fill="#263238"/>
<path d="M126.387 38.2127C127.48 38.2127 128.367 37.3265 128.367 36.2333C128.367 35.1401 127.48 34.2539 126.387 34.2539C125.294 34.2539 124.408 35.1401 124.408 36.2333C124.408 37.3265 125.294 38.2127 126.387 38.2127Z" fill="#263238"/>
<path d="M132.176 38.2127C133.269 38.2127 134.155 37.3265 134.155 36.2333C134.155 35.1401 133.269 34.2539 132.176 34.2539C131.083 34.2539 130.197 35.1401 130.197 36.2333C130.197 37.3265 131.083 38.2127 132.176 38.2127Z" fill="#263238"/>
<path d="M228.597 41.8625C228.597 41.9522 202.925 42.018 171.261 42.018C139.597 42.018 113.925 41.9522 113.925 41.8625C113.925 41.7728 139.591 41.707 171.261 41.707C202.931 41.707 228.597 41.7728 228.597 41.8625Z" fill="#263238"/>
<path d="M187.461 81.8385C187.461 81.8385 187.503 81.7727 187.599 81.6531L187.676 81.5515L187.754 81.4139C187.82 81.3027 187.878 81.1867 187.928 81.0671C187.928 81.0013 187.987 80.9295 188.011 80.8518L188.083 80.6006C188.109 80.5084 188.129 80.4145 188.143 80.3196C188.143 80.2179 188.179 80.1163 188.185 80.0086C188.224 79.5112 188.2 79.0109 188.113 78.5196C187.861 77.1748 187.401 75.8775 186.749 74.6745C185.909 73.0688 184.927 71.5417 183.813 70.1117C182.474 68.3725 181.013 66.7299 179.442 65.1962C177.644 63.4308 175.723 61.7943 173.695 60.2985C172.625 59.5092 171.494 58.7437 170.304 58.0261C169.091 57.2849 167.831 56.6237 166.531 56.0468C165.195 55.4371 163.789 54.9952 162.345 54.7312C161.607 54.5997 160.852 54.5815 160.109 54.6773C159.735 54.7304 159.371 54.835 159.026 54.9883C158.688 55.1543 158.382 55.379 158.123 55.6521C157.876 55.9385 157.685 56.2693 157.561 56.6268C157.449 56.9874 157.386 57.3616 157.376 57.7391C157.366 58.4897 157.469 59.2376 157.681 59.9577C158.11 61.3665 158.712 62.7164 159.475 63.9762C160.193 65.2018 160.992 66.3785 161.867 67.4985C162.716 68.5988 163.607 69.6393 164.51 70.614C166.227 72.459 168.074 74.1796 170.035 75.7628C171.737 77.1505 173.536 78.4155 175.417 79.5482C176.965 80.4893 178.594 81.2899 180.285 81.9402C181.556 82.4473 182.897 82.7579 184.262 82.8611C184.758 82.8856 185.256 82.8515 185.745 82.7594C185.852 82.7594 185.948 82.7056 186.044 82.6817C186.137 82.6572 186.229 82.6272 186.319 82.592L186.558 82.4903L186.767 82.3827C186.881 82.3208 186.989 82.2487 187.09 82.1674L187.216 82.0777L187.312 81.988C187.419 81.8804 187.479 81.8325 187.479 81.8325L187.318 81.994L187.222 82.0837L187.102 82.1794C187 82.262 186.89 82.3341 186.773 82.3946L186.576 82.5262L186.331 82.6279C186.244 82.6648 186.154 82.6948 186.062 82.7176C185.962 82.7518 185.86 82.7797 185.757 82.8013C185.265 82.9019 184.763 82.9381 184.262 82.9089C182.894 82.8159 181.548 82.5113 180.273 82.0059C178.576 81.3563 176.941 80.5558 175.387 79.6139C173.506 78.481 171.708 77.2161 170.005 75.8286C168.039 74.2473 166.188 72.5266 164.468 70.6798C163.565 69.7051 162.674 68.6646 161.819 67.5642C160.947 66.4385 160.148 65.258 159.427 64.0301C158.663 62.7644 158.061 61.4084 157.633 59.9936C157.415 59.2643 157.31 58.5061 157.322 57.7451C157.334 57.3614 157.399 56.9813 157.513 56.6149C157.649 56.2442 157.852 55.9017 158.111 55.6042C158.376 55.3201 158.693 55.0887 159.044 54.9225C159.397 54.7653 159.769 54.6567 160.15 54.5996C160.904 54.5037 161.668 54.5218 162.417 54.6534C163.872 54.9196 165.288 55.3656 166.633 55.981C167.935 56.5587 169.197 57.2219 170.412 57.9663C171.608 58.6839 172.738 59.4494 173.809 60.2447C175.84 61.7431 177.76 63.3859 179.556 65.1603C181.13 66.6966 182.593 68.3433 183.933 70.0878C185.043 71.5219 186.022 73.0529 186.857 74.6625C187.507 75.872 187.965 77.1753 188.215 78.5256C188.298 79.0214 188.318 79.5257 188.274 80.0266C188.265 80.1292 188.249 80.2311 188.227 80.3315C188.217 80.4272 188.197 80.5214 188.167 80.6126L188.095 80.8697C188.07 80.9434 188.04 81.0153 188.005 81.085C187.96 81.2077 187.9 81.3242 187.826 81.4319C187.805 81.4803 187.779 81.5264 187.748 81.5694L187.67 81.6711L187.461 81.8385Z" fill="#3F41D1"/>
<path d="M192.885 68.7296V68.5024V68.3768C192.885 68.3289 192.885 68.2811 192.855 68.2213C192.834 68.0925 192.8 67.9663 192.753 67.8446C192.753 67.7788 192.706 67.701 192.676 67.6293L192.556 67.3901C192.517 67.3034 192.469 67.2212 192.413 67.1449C192.361 67.0551 192.303 66.9692 192.239 66.8878C191.941 66.488 191.591 66.13 191.199 65.8233C190.111 64.9882 188.901 64.3266 187.611 63.8619C185.916 63.2211 184.166 62.7348 182.384 62.4087C180.214 62.0014 178.018 61.7496 175.812 61.6553C173.294 61.5326 170.77 61.5865 168.259 61.8167C166.938 61.9423 165.586 62.1277 164.217 62.3848C162.818 62.6371 161.437 62.9827 160.085 63.4194C158.679 63.8452 157.332 64.4481 156.078 65.2134C155.439 65.6054 154.864 66.0935 154.374 66.6605C154.131 66.9481 153.93 67.2681 153.776 67.6113C153.628 67.96 153.547 68.3332 153.537 68.7117C153.548 69.0894 153.627 69.462 153.77 69.812C153.926 70.154 154.127 70.4738 154.368 70.7628C154.862 71.3302 155.438 71.8201 156.078 72.216C157.334 72.9778 158.68 73.5804 160.085 74.01C161.439 74.441 162.819 74.7865 164.217 75.0445C165.586 75.3016 166.938 75.481 168.259 75.6066C170.77 75.8416 173.294 75.8975 175.812 75.774C178.019 75.6858 180.216 75.4461 182.39 75.0564C184.172 74.7304 185.922 74.2441 187.617 73.6033C188.904 73.1338 190.114 72.4726 191.205 71.6419C191.596 71.3336 191.946 70.9758 192.245 70.5774C192.309 70.494 192.367 70.406 192.418 70.3143C192.475 70.2381 192.523 70.1558 192.562 70.0691L192.682 69.8359C192.712 69.7582 192.735 69.6864 192.759 69.6147C192.807 69.4931 192.841 69.3668 192.861 69.2379C192.861 69.1841 192.861 69.1362 192.891 69.0884V68.9628V68.7296C192.891 68.7296 192.891 68.8073 192.891 68.9628V69.0884C192.891 69.1362 192.891 69.1841 192.891 69.2439C192.872 69.3725 192.84 69.4988 192.795 69.6206C192.795 69.6924 192.747 69.7641 192.717 69.8419L192.604 70.0811C192.562 70.1679 192.514 70.2517 192.46 70.3322C192.407 70.4211 192.349 70.507 192.287 70.5894C191.99 70.9931 191.64 71.3551 191.246 71.6658C190.16 72.5079 188.95 73.1757 187.658 73.6452C185.962 74.2931 184.211 74.7855 182.426 75.1162C180.254 75.525 178.056 75.7807 175.848 75.8817C173.328 76.0094 170.802 75.9574 168.289 75.7262C166.962 75.6006 165.604 75.4212 164.235 75.1641C162.833 74.9054 161.449 74.5599 160.091 74.1295C158.679 73.7025 157.327 73.0998 156.066 72.3355C155.419 71.9379 154.836 71.4439 154.338 70.8705C154.095 70.5741 153.894 70.2462 153.74 69.8957C153.578 69.5387 153.495 69.1514 153.495 68.7595C153.495 68.3677 153.578 67.9803 153.74 67.6233C153.896 67.274 154.097 66.9464 154.338 66.6486C154.841 66.0759 155.428 65.582 156.078 65.1835C157.342 64.4203 158.696 63.8176 160.109 63.3895C161.464 62.9535 162.846 62.6079 164.247 62.3549C165.622 62.0978 166.974 61.9184 168.301 61.7928C170.797 61.55 173.307 61.4841 175.812 61.5955C178.02 61.6953 180.219 61.9531 182.39 62.3669C184.175 62.6946 185.927 63.185 187.623 63.832C188.914 64.3015 190.125 64.9693 191.211 65.8114C191.603 66.1236 191.952 66.4854 192.251 66.8878C192.315 66.9712 192.373 67.0592 192.424 67.1509C192.479 67.2306 192.527 67.3146 192.568 67.402L192.682 67.6353C192.712 67.713 192.735 67.7907 192.759 67.8565C192.805 67.9804 192.837 68.1087 192.855 68.2392C192.855 68.2931 192.855 68.3469 192.855 68.3887V68.5203C192.885 68.6519 192.885 68.7296 192.885 68.7296Z" fill="#3F41D1"/>
<path d="M185.697 52.42L185.5 52.2944L185.392 52.2227C185.348 52.1973 185.302 52.1753 185.254 52.1569C185.14 52.0946 185.02 52.0445 184.896 52.0074C184.824 52.0074 184.752 51.9536 184.674 51.9356L184.417 51.8818C184.325 51.8616 184.231 51.8476 184.136 51.84C184.033 51.8338 183.929 51.8338 183.825 51.84C183.326 51.8336 182.828 51.8899 182.342 52.0074C181.019 52.3587 179.757 52.9092 178.599 53.6399C177.054 54.5853 175.598 55.6702 174.251 56.8811C172.608 58.3375 171.069 59.9082 169.647 61.5814C168.007 63.4955 166.507 65.5238 165.156 67.6511C164.45 68.7693 163.756 69.9653 163.122 71.1613C162.465 72.4218 161.892 73.7243 161.406 75.0603C160.892 76.4384 160.548 77.8743 160.384 79.336C160.304 80.0823 160.338 80.8365 160.485 81.5725C160.567 81.941 160.698 82.297 160.874 82.631C161.059 82.9608 161.305 83.2529 161.598 83.4921C161.902 83.7137 162.245 83.8778 162.608 83.9765C162.974 84.0651 163.35 84.1033 163.726 84.0901C164.477 84.0483 165.217 83.8931 165.921 83.6296C167.297 83.1077 168.603 82.4167 169.808 81.5725C170.98 80.7693 172.099 79.8903 173.157 78.9413C174.197 78.0144 175.172 77.0576 176.081 76.0889C177.801 74.2473 179.39 72.287 180.835 70.2225C182.102 68.4293 183.241 66.5489 184.244 64.5953C185.08 62.9884 185.768 61.3091 186.301 59.5781C186.719 58.2732 186.935 56.9119 186.941 55.5416C186.939 55.0443 186.871 54.5496 186.737 54.0705C186.737 53.9629 186.672 53.8672 186.642 53.7715C186.612 53.6758 186.576 53.5921 186.534 53.5084L186.421 53.2752C186.379 53.2034 186.331 53.1376 186.295 53.0778C186.227 52.9656 186.147 52.8613 186.056 52.7669L185.96 52.6473L185.864 52.5635L185.697 52.4081L185.87 52.5576L185.966 52.6413C186.003 52.6764 186.037 52.7144 186.068 52.7549C186.158 52.8501 186.238 52.9543 186.307 53.0659C186.349 53.1316 186.397 53.1914 186.438 53.2632L186.552 53.5024C186.598 53.5863 186.636 53.6744 186.666 53.7655C186.696 53.8612 186.737 53.9569 186.761 54.0645C186.899 54.5449 186.972 55.0418 186.977 55.5416C186.979 56.9155 186.767 58.2814 186.349 59.59C185.818 61.3259 185.134 63.011 184.304 64.6252C183.302 66.5828 182.162 68.4672 180.895 70.2643C179.453 72.3354 177.865 74.2999 176.141 76.1427C175.232 77.1174 174.257 78.0802 173.211 79.0071C172.151 79.9577 171.03 80.8386 169.856 81.6443C168.646 82.4949 167.334 83.19 165.951 83.7134C165.239 83.9793 164.491 84.1366 163.732 84.1798C163.346 84.1928 162.96 84.1545 162.584 84.0662C162.21 83.9606 161.857 83.7884 161.544 83.5579C161.242 83.3121 160.988 83.0119 160.796 82.6728C160.615 82.3314 160.481 81.9674 160.396 81.5905C160.25 80.846 160.218 80.084 160.3 79.33C160.462 77.8595 160.807 76.415 161.328 75.0304C161.814 73.6925 162.387 72.388 163.045 71.1255C163.685 69.8816 164.372 68.6976 165.084 67.5733C166.443 65.447 167.95 63.4188 169.593 61.5036C171.018 59.8307 172.56 58.2619 174.209 56.8093C175.564 55.5998 177.025 54.515 178.575 53.5682C179.739 52.8406 181.007 52.2961 182.336 51.9536C182.823 51.8332 183.324 51.7769 183.825 51.7861C183.933 51.7861 184.035 51.7861 184.136 51.7861C184.233 51.7934 184.329 51.8073 184.423 51.828L184.68 51.8818L184.902 51.9596C185.026 51.9985 185.147 52.0506 185.26 52.115C185.308 52.1334 185.354 52.1554 185.398 52.1808L185.506 52.2586L185.697 52.42Z" fill="#3F41D1"/>
<path d="M153.297 76.8557C153.399 76.9579 153.468 77.0879 153.496 77.2293C153.524 77.3707 153.509 77.5172 153.454 77.6503C153.398 77.7834 153.305 77.8971 153.185 77.9771C153.065 78.0571 152.924 78.0997 152.78 78.0997C152.636 78.0997 152.495 78.0571 152.375 77.9771C152.255 77.8971 152.162 77.7834 152.106 77.6503C152.051 77.5172 152.036 77.3707 152.064 77.2293C152.092 77.0879 152.161 76.9579 152.263 76.8557C152.331 76.7875 152.411 76.7334 152.5 76.6965C152.589 76.6596 152.684 76.6406 152.78 76.6406C152.876 76.6406 152.971 76.6596 153.06 76.6965C153.149 76.7334 153.23 76.7875 153.297 76.8557Z" fill="#3F41D1"/>
<path d="M194.553 54.1983C194.555 54.3441 194.512 54.4869 194.432 54.6086C194.352 54.7303 194.238 54.8255 194.103 54.8821C193.969 54.9387 193.821 54.9541 193.678 54.9264C193.535 54.8987 193.403 54.8292 193.3 54.7265C193.196 54.6239 193.126 54.4929 193.097 54.35C193.068 54.2072 193.082 54.059 193.138 53.9242C193.193 53.7895 193.287 53.6742 193.409 53.5932C193.53 53.5121 193.672 53.4688 193.818 53.4688C193.914 53.468 194.01 53.4863 194.099 53.5226C194.188 53.5589 194.269 53.6125 194.338 53.6803C194.406 53.7482 194.46 53.8288 194.497 53.9178C194.534 54.0067 194.553 54.102 194.553 54.1983Z" fill="#3F41D1"/>
<path d="M157.914 79.2596C157.914 79.2963 157.903 79.3321 157.883 79.3626C157.862 79.3931 157.833 79.4168 157.799 79.4309C157.766 79.4449 157.728 79.4486 157.692 79.4414C157.656 79.4343 157.623 79.4166 157.597 79.3907C157.571 79.3648 157.554 79.3317 157.547 79.2958C157.54 79.2598 157.543 79.2225 157.557 79.1887C157.571 79.1548 157.595 79.1258 157.626 79.1055C157.656 79.0851 157.692 79.0742 157.729 79.0742C157.778 79.0742 157.825 79.0938 157.86 79.1285C157.894 79.1633 157.914 79.2104 157.914 79.2596Z" fill="#3F41D1"/>
<path d="M161.879 58.7713C161.879 58.808 161.868 58.8438 161.847 58.8743C161.827 58.9048 161.798 58.9286 161.764 58.9426C161.73 58.9566 161.693 58.9603 161.657 58.9531C161.621 58.946 161.588 58.9283 161.562 58.9024C161.536 58.8765 161.519 58.8434 161.511 58.8075C161.504 58.7715 161.508 58.7342 161.522 58.7004C161.536 58.6665 161.56 58.6376 161.59 58.6172C161.621 58.5968 161.657 58.5859 161.693 58.5859C161.742 58.5859 161.79 58.6055 161.824 58.6402C161.859 58.675 161.879 58.7222 161.879 58.7713Z" fill="#3F41D1"/>
<path d="M190.876 68.7283C190.876 68.7775 190.856 68.8247 190.821 68.8594C190.787 68.8942 190.739 68.9137 190.69 68.9137C190.641 68.9137 190.594 68.8942 190.559 68.8594C190.524 68.8247 190.505 68.7775 190.505 68.7283C190.505 68.6792 190.524 68.632 190.559 68.5973C190.594 68.5625 190.641 68.543 190.69 68.543C190.739 68.543 190.787 68.5625 190.821 68.5973C190.856 68.632 190.876 68.6792 190.876 68.7283Z" fill="#3F41D1"/>
<path d="M193.459 60.0721C193.459 60.1213 193.439 60.1684 193.405 60.2032C193.37 60.2379 193.323 60.2575 193.274 60.2575C193.224 60.2575 193.177 60.2379 193.143 60.2032C193.108 60.1684 193.088 60.1213 193.088 60.0721C193.088 60.0229 193.108 59.9758 193.143 59.941C193.177 59.9063 193.224 59.8867 193.274 59.8867C193.323 59.8867 193.37 59.9063 193.405 59.941C193.439 59.9758 193.459 60.0229 193.459 60.0721Z" fill="#3F41D1"/>
<path d="M180.937 72.8125H178.641V60.3083C178.641 58.892 178.078 57.5338 177.076 56.5323C176.075 55.5308 174.717 54.9682 173.3 54.9682C171.884 54.9682 170.526 55.5308 169.524 56.5323C168.523 57.5338 167.96 58.892 167.96 60.3083V72.8125H165.646V60.3083C165.646 58.283 166.451 56.3407 167.883 54.9085C169.315 53.4764 171.257 52.6719 173.282 52.6719C175.308 52.6719 177.25 53.4764 178.682 54.9085C180.114 56.3407 180.919 58.283 180.919 60.3083L180.937 72.8125Z" fill="#3F41D1"/>
<g opacity="0.3">
<path d="M180.937 72.8125H178.641V60.3083C178.641 58.892 178.078 57.5338 177.076 56.5323C176.075 55.5308 174.717 54.9682 173.3 54.9682C171.884 54.9682 170.526 55.5308 169.524 56.5323C168.523 57.5338 167.96 58.892 167.96 60.3083V72.8125H165.646V60.3083C165.646 58.283 166.451 56.3407 167.883 54.9085C169.315 53.4764 171.257 52.6719 173.282 52.6719C175.308 52.6719 177.25 53.4764 178.682 54.9085C180.114 56.3407 180.919 58.283 180.919 60.3083L180.937 72.8125Z" fill="white"/>
</g>
<path d="M182.247 67.2539H164.354C163.611 67.2539 163.009 67.8563 163.009 68.5994V79.1122C163.009 79.8553 163.611 80.4577 164.354 80.4577H182.247C182.99 80.4577 183.592 79.8553 183.592 79.1122V68.5994C183.592 67.8563 182.99 67.2539 182.247 67.2539Z" fill="#3F41D1"/>
<path d="M175.023 72.1379C175.025 71.8168 174.938 71.5015 174.771 71.2274C174.603 70.9533 174.363 70.7314 174.076 70.5868C173.789 70.4422 173.468 70.3807 173.148 70.4091C172.828 70.4375 172.523 70.5548 172.266 70.7477C172.009 70.9406 171.812 71.2014 171.695 71.5007C171.579 71.8 171.549 72.1258 171.608 72.4415C171.667 72.7571 171.813 73.0499 172.03 73.2869C172.246 73.5238 172.525 73.6955 172.834 73.7824V76.3538H173.767V73.7824C174.127 73.6831 174.445 73.4686 174.672 73.1716C174.898 72.8747 175.022 72.5116 175.023 72.1379Z" fill="white"/>
<path d="M164.109 79.2082C164.061 79.2082 164.019 77.0076 164.019 74.2926C164.019 71.5777 164.061 69.3711 164.109 69.3711C164.157 69.3711 164.193 71.5717 164.193 74.2926C164.193 77.0135 164.151 79.2082 164.109 79.2082Z" fill="white"/>
<path d="M171.955 74.3376C171.955 74.3376 171.871 74.3376 171.752 74.224C171.582 74.0978 171.433 73.9466 171.309 73.7755C171.091 73.4936 170.939 73.1666 170.864 72.8183C170.789 72.4701 170.792 72.1094 170.874 71.7627C170.956 71.4159 171.114 71.0919 171.337 70.8142C171.561 70.5365 171.843 70.3122 172.164 70.1576C172.351 70.0572 172.553 69.9866 172.762 69.9483C172.839 69.9339 172.918 69.9339 172.995 69.9483C172.731 70.038 172.473 70.1459 172.224 70.2712C171.932 70.4323 171.677 70.6525 171.475 70.9179C171.274 71.1833 171.129 71.4879 171.052 71.8122C170.975 72.1365 170.967 72.4734 171.027 72.8012C171.088 73.129 171.217 73.4405 171.405 73.7157C171.571 73.9375 171.755 74.1454 171.955 74.3376Z" fill="white"/>
<path d="M203.858 91.7773H140.488C137.41 91.7773 134.915 94.2726 134.915 97.3507V98.0324C134.915 101.111 137.41 103.606 140.488 103.606H203.858C206.936 103.606 209.432 101.111 209.432 98.0324V97.3507C209.432 94.2726 206.936 91.7773 203.858 91.7773Z" fill="#F5F5F5"/>
<path d="M204.402 107.992H141.032C137.954 107.992 135.459 110.487 135.459 113.566V114.247C135.459 117.325 137.954 119.821 141.032 119.821H204.402C207.48 119.821 209.976 117.325 209.976 114.247V113.566C209.976 110.487 207.48 107.992 204.402 107.992Z" fill="#F5F5F5"/>
<path d="M146.689 97.5931V95.8828H147.401V97.5692C147.401 98.1672 147.652 98.3884 148.083 98.3884C148.513 98.3884 148.764 98.1492 148.764 97.5692V95.8828H149.464V97.5931C149.464 97.961 149.318 98.3139 149.058 98.5741C148.798 98.8343 148.445 98.9805 148.077 98.9805C147.709 98.9805 147.356 98.8343 147.096 98.5741C146.836 98.3139 146.689 97.961 146.689 97.5931Z" fill="#263238"/>
<path d="M149.889 98.7257L150.11 98.2353C150.358 98.3829 150.641 98.4614 150.929 98.4625C151.246 98.4625 151.36 98.3788 151.36 98.2473C151.36 97.8645 149.943 98.2473 149.943 97.3204C149.943 96.8719 150.343 96.5549 151.031 96.5549C151.344 96.5499 151.655 96.6217 151.934 96.7642L151.707 97.2486C151.501 97.1313 151.268 97.0714 151.031 97.0752C150.726 97.0752 150.594 97.1709 150.594 97.2905C150.594 97.6911 152.012 97.2905 152.012 98.2293C152.012 98.6659 151.611 98.9768 150.905 98.9768C150.55 98.9847 150.199 98.898 149.889 98.7257Z" fill="#263238"/>
<path d="M154.727 97.9589H152.933C152.969 98.106 153.058 98.2348 153.182 98.3216C153.306 98.4084 153.458 98.4474 153.608 98.4314C153.718 98.4362 153.828 98.4186 153.931 98.3795C154.034 98.3404 154.127 98.2807 154.206 98.2041L154.571 98.5988C154.446 98.7277 154.295 98.8282 154.128 98.8932C153.961 98.9582 153.781 98.9863 153.602 98.9755C153.433 98.9968 153.261 98.9818 153.099 98.9313C152.936 98.8808 152.786 98.7961 152.658 98.6828C152.531 98.5696 152.429 98.4304 152.36 98.2746C152.291 98.1188 152.255 97.95 152.257 97.7795C152.257 97.6173 152.289 97.4567 152.353 97.3076C152.417 97.1584 152.511 97.0238 152.628 96.912C152.745 96.8001 152.884 96.7133 153.037 96.6568C153.189 96.6004 153.351 96.5754 153.513 96.5835C153.672 96.5795 153.831 96.6075 153.979 96.6658C154.128 96.7242 154.263 96.8116 154.378 96.9231C154.492 97.0345 154.583 97.1677 154.645 97.3148C154.707 97.4619 154.739 97.6199 154.739 97.7795C154.739 97.8274 154.727 97.8991 154.727 97.9589ZM152.933 97.5583H154.087C154.052 97.4316 153.977 97.3198 153.873 97.24C153.769 97.1603 153.641 97.1171 153.51 97.1171C153.378 97.1171 153.251 97.1603 153.146 97.24C153.042 97.3198 152.967 97.4316 152.933 97.5583Z" fill="#263238"/>
<path d="M156.676 96.5536V97.1875H156.521C156.437 97.187 156.354 97.2042 156.277 97.238C156.2 97.2717 156.131 97.3212 156.075 97.3832C156.019 97.4452 155.976 97.5184 155.95 97.598C155.923 97.6776 155.914 97.7618 155.923 97.8452V98.9516H155.241V96.6014H155.893V96.8765C155.989 96.765 156.11 96.6777 156.246 96.6216C156.382 96.5655 156.529 96.5422 156.676 96.5536Z" fill="#263238"/>
<path d="M159.463 97.593V98.9385H158.781V97.7007C158.781 97.318 158.608 97.1445 158.303 97.1445C157.998 97.1445 157.74 97.3479 157.74 97.7784V98.9385H157.059V96.5884H157.711V96.8754C157.812 96.7726 157.933 96.6918 158.067 96.6383C158.2 96.5848 158.344 96.5596 158.488 96.5645C158.623 96.5556 158.758 96.5766 158.884 96.6259C159.01 96.6753 159.124 96.7518 159.217 96.85C159.31 96.9482 159.38 97.0656 159.423 97.1941C159.465 97.3225 159.479 97.4587 159.463 97.593Z" fill="#263238"/>
<path d="M162.16 97.6019V98.9415H161.52V98.6724C161.441 98.7867 161.333 98.8777 161.206 98.9356C161.08 98.9934 160.94 99.0161 160.802 99.0013C160.252 99.0013 159.923 98.6963 159.923 98.2896C159.923 97.883 160.216 97.584 160.934 97.584H161.46C161.46 97.297 161.287 97.1235 160.916 97.1235C160.673 97.1227 160.436 97.2003 160.24 97.3448L159.995 96.8664C160.297 96.6709 160.652 96.5708 161.012 96.5794C161.741 96.5554 162.16 96.8784 162.16 97.6019ZM161.478 98.1999V97.9607H161.012C160.689 97.9607 160.593 98.0803 160.593 98.2358C160.593 98.3913 160.736 98.5229 160.976 98.5229C161.08 98.526 161.183 98.4966 161.269 98.4387C161.356 98.3809 161.423 98.2974 161.46 98.1999H161.478Z" fill="#263238"/>
<path d="M166.746 97.5967V98.9422H166.065V97.7043C166.065 97.3216 165.897 97.1482 165.622 97.1482C165.347 97.1482 165.102 97.3455 165.102 97.7462V98.9422H164.45V97.7043C164.45 97.3216 164.289 97.1482 164.002 97.1482C163.714 97.1482 163.487 97.3455 163.487 97.7462V98.9422H162.776V96.5921H163.427V96.8791C163.52 96.7767 163.634 96.6958 163.761 96.6421C163.888 96.5884 164.025 96.5631 164.163 96.5681C164.315 96.5612 164.466 96.5932 164.602 96.6613C164.738 96.7293 164.855 96.8311 164.94 96.9568C165.042 96.8304 165.171 96.7294 165.319 96.6619C165.466 96.5944 165.628 96.5623 165.79 96.5681C165.924 96.5599 166.058 96.5814 166.183 96.6312C166.307 96.6811 166.42 96.7579 166.511 96.8563C166.603 96.9546 166.671 97.072 166.712 97.2001C166.752 97.3281 166.764 97.4636 166.746 97.5967Z" fill="#263238"/>
<path d="M169.677 97.9589H167.883C167.913 98.1082 167.999 98.2401 168.124 98.3279C168.248 98.4157 168.401 98.4527 168.552 98.4314C168.662 98.4359 168.772 98.4181 168.875 98.379C168.977 98.3399 169.071 98.2804 169.15 98.2041L169.509 98.5988C169.385 98.7284 169.234 98.8293 169.066 98.8943C168.899 98.9594 168.72 98.9871 168.54 98.9755C168.372 98.9959 168.201 98.9801 168.038 98.9292C167.876 98.8783 167.727 98.7935 167.6 98.6803C167.474 98.5672 167.372 98.4283 167.303 98.273C167.235 98.1176 167.2 97.9494 167.201 97.7795C167.201 97.6173 167.233 97.4567 167.297 97.3076C167.361 97.1584 167.455 97.0238 167.572 96.912C167.689 96.8001 167.828 96.7133 167.981 96.6568C168.133 96.6004 168.295 96.5754 168.457 96.5835C168.774 96.5835 169.078 96.7095 169.302 96.9338C169.527 97.1581 169.653 97.4623 169.653 97.7795C169.689 97.8274 169.683 97.8991 169.677 97.9589ZM167.883 97.5583H169.043C169.023 97.4166 168.951 97.2877 168.84 97.1977C168.728 97.1077 168.587 97.0634 168.445 97.0739C168.308 97.0714 168.176 97.1196 168.073 97.2091C167.971 97.2986 167.905 97.423 167.889 97.5583H167.883Z" fill="#263238"/>
<path d="M174.185 97.7439C174.185 98.5273 173.827 98.9758 173.288 98.9758C173.161 98.9842 173.034 98.9516 172.927 98.8828C172.819 98.8139 172.736 98.7124 172.69 98.5931C172.611 98.7175 172.5 98.8185 172.369 98.8858C172.237 98.953 172.09 98.9841 171.943 98.9758C171.669 98.9473 171.416 98.8185 171.232 98.6141C171.048 98.4098 170.946 98.1445 170.946 97.8695C170.946 97.5944 171.048 97.3291 171.232 97.1248C171.416 96.9205 171.669 96.7917 171.943 96.7632C172.07 96.7573 172.196 96.7807 172.312 96.8315C172.428 96.8823 172.531 96.9592 172.613 97.0562V96.7991H173.211V98.2103C173.211 98.4196 173.3 98.4914 173.42 98.4914C173.54 98.4914 173.743 98.2582 173.743 97.7559C173.746 97.5472 173.704 97.3403 173.622 97.1486C173.539 96.957 173.417 96.7848 173.264 96.6432C173.11 96.5017 172.929 96.394 172.731 96.3271C172.534 96.2602 172.324 96.2356 172.116 96.2549C171.696 96.2549 171.293 96.4218 170.996 96.719C170.699 97.0162 170.532 97.4193 170.532 97.8396C170.532 98.2599 170.699 98.6629 170.996 98.9601C171.293 99.2573 171.696 99.4243 172.116 99.4243C172.414 99.4239 172.708 99.3586 172.977 99.2329L173.115 99.6336C172.802 99.7768 172.461 99.8483 172.116 99.8429C171.844 99.8578 171.572 99.817 171.317 99.7232C171.061 99.6294 170.827 99.4845 170.63 99.2973C170.432 99.1101 170.274 98.8845 170.167 98.6344C170.059 98.3843 170.004 98.1149 170.004 97.8426C170.004 97.5703 170.059 97.3008 170.167 97.0507C170.274 96.8006 170.432 96.5751 170.63 96.3879C170.827 96.2007 171.061 96.0557 171.317 95.9619C171.572 95.8681 171.844 95.8274 172.116 95.8423C172.379 95.8208 172.644 95.854 172.894 95.9398C173.143 96.0255 173.372 96.162 173.567 96.3406C173.761 96.5192 173.916 96.7361 174.023 96.9776C174.129 97.2191 174.185 97.48 174.185 97.7439ZM172.625 97.8695C172.633 97.7929 172.625 97.7154 172.601 97.6422C172.577 97.569 172.538 97.5018 172.486 97.4451C172.434 97.3884 172.37 97.3436 172.299 97.3136C172.228 97.2837 172.152 97.2693 172.075 97.2715C171.916 97.2715 171.764 97.3345 171.652 97.4466C171.54 97.5588 171.477 97.7109 171.477 97.8695C171.477 98.0281 171.54 98.1802 171.652 98.2923C171.764 98.4045 171.916 98.4675 172.075 98.4675C172.152 98.4697 172.228 98.4553 172.299 98.4254C172.37 98.3954 172.434 98.3506 172.486 98.2939C172.538 98.2372 172.577 98.17 172.601 98.0968C172.625 98.0235 172.633 97.946 172.625 97.8695Z" fill="#263238"/>
<path d="M178.641 97.5932V98.9387H177.959V97.7008C177.959 97.3181 177.791 97.1447 177.516 97.1447C177.241 97.1447 176.996 97.342 176.996 97.7427V98.9387H176.314V97.7008C176.314 97.3181 176.153 97.1447 175.866 97.1447C175.579 97.1447 175.352 97.342 175.352 97.7427V98.9387H174.67V96.5885H175.322V96.8756C175.414 96.7732 175.528 96.6923 175.655 96.6386C175.782 96.5849 175.919 96.5596 176.057 96.5646C176.209 96.5576 176.36 96.5897 176.496 96.6578C176.633 96.7258 176.749 96.8276 176.835 96.9533C176.935 96.8273 177.064 96.7266 177.21 96.6591C177.357 96.5916 177.517 96.5592 177.678 96.5646C177.812 96.5554 177.947 96.5763 178.073 96.6257C178.198 96.6751 178.311 96.7518 178.403 96.8503C178.496 96.9488 178.565 97.0665 178.606 97.195C178.647 97.3235 178.659 97.4595 178.641 97.5932Z" fill="#263238"/>
<path d="M181.332 97.6019V98.9415H180.698V98.6724C180.619 98.7867 180.51 98.8777 180.384 98.9356C180.258 98.9934 180.118 99.0161 179.98 99.0013C179.43 99.0013 179.101 98.6963 179.101 98.2896C179.101 97.883 179.394 97.584 180.112 97.584H180.65C180.65 97.297 180.476 97.1235 180.112 97.1235C179.868 97.1205 179.63 97.1983 179.436 97.3448L179.191 96.8664C179.491 96.672 179.843 96.572 180.201 96.5794C180.919 96.5554 181.332 96.8784 181.332 97.6019ZM180.65 98.1999V97.9607H180.183C179.866 97.9607 179.765 98.0803 179.765 98.2358C179.765 98.3913 179.908 98.5229 180.148 98.5229C180.255 98.5299 180.361 98.5023 180.452 98.4441C180.542 98.386 180.612 98.3004 180.65 98.1999Z" fill="#263238"/>
<path d="M181.87 95.8844C181.87 95.8307 181.882 95.7777 181.904 95.7287C181.926 95.6798 181.958 95.6359 181.998 95.6C182.038 95.564 182.085 95.5367 182.136 95.5198C182.187 95.5029 182.241 95.4967 182.294 95.5017C182.368 95.5097 182.437 95.5389 182.494 95.5855C182.552 95.6322 182.594 95.6944 182.617 95.7646C182.639 95.8349 182.641 95.9102 182.622 95.9814C182.603 96.0527 182.564 96.1169 182.509 96.1664C182.454 96.2158 182.386 96.2483 182.313 96.26C182.24 96.2717 182.165 96.262 182.098 96.2322C182.03 96.2024 181.973 96.1537 181.932 96.092C181.892 96.0303 181.87 95.9582 181.87 95.8844ZM181.953 96.59H182.629V98.9402H181.953V96.59Z" fill="#263238"/>
<path d="M183.269 95.6797H183.951V98.9208H183.269V95.6797Z" fill="#263238"/>
<path d="M184.417 98.5535C184.417 98.4409 184.462 98.3329 184.542 98.2533C184.621 98.1736 184.729 98.1289 184.842 98.1289C184.954 98.1289 185.062 98.1736 185.142 98.2533C185.222 98.3329 185.266 98.4409 185.266 98.5535C185.266 98.6661 185.222 98.7741 185.142 98.8537C185.062 98.9333 184.954 98.9781 184.842 98.9781C184.729 98.9781 184.621 98.9333 184.542 98.8537C184.462 98.7741 184.417 98.6661 184.417 98.5535Z" fill="#263238"/>
<path d="M185.524 97.7678C185.523 97.6007 185.557 97.4353 185.624 97.2823C185.691 97.1292 185.79 96.9919 185.913 96.8793C186.036 96.7666 186.182 96.681 186.341 96.6281C186.499 96.5751 186.667 96.5559 186.833 96.5718C187.048 96.5536 187.264 96.601 187.452 96.7077C187.64 96.8145 187.791 96.9756 187.886 97.1698L187.359 97.4509C187.299 97.3618 187.216 97.2898 187.12 97.2417C187.024 97.1937 186.916 97.1713 186.809 97.1767C186.701 97.1821 186.597 97.215 186.506 97.2724C186.414 97.3298 186.34 97.4097 186.288 97.5043C186.237 97.599 186.211 97.7053 186.212 97.813C186.214 97.9207 186.243 98.0262 186.297 98.1194C186.351 98.2125 186.429 98.2901 186.521 98.3448C186.614 98.3995 186.719 98.4294 186.827 98.4316C186.937 98.4318 187.045 98.4018 187.139 98.3448C187.232 98.2879 187.309 98.2062 187.359 98.1087L187.886 98.3957C187.79 98.5889 187.638 98.749 187.451 98.8556C187.263 98.9621 187.048 99.0102 186.833 98.9937C186.664 99.0099 186.494 98.99 186.333 98.9353C186.173 98.8805 186.026 98.7923 185.902 98.6763C185.778 98.5604 185.68 98.4194 185.615 98.2628C185.55 98.1061 185.519 97.9374 185.524 97.7678Z" fill="#263238"/>
<path d="M188.077 97.7702C188.058 97.5115 188.117 97.253 188.247 97.0284C188.376 96.8038 188.571 96.6234 188.804 96.5108C189.038 96.3982 189.3 96.3586 189.557 96.3971C189.813 96.4356 190.052 96.5505 190.243 96.7267C190.433 96.9029 190.566 97.1324 190.624 97.3852C190.682 97.638 190.663 97.9025 190.568 98.1441C190.474 98.3858 190.309 98.5934 190.095 98.74C189.881 98.8867 189.628 98.9655 189.369 98.9662C189.204 98.9794 189.038 98.9583 188.882 98.9041C188.725 98.85 188.582 98.764 188.46 98.6516C188.339 98.5392 188.242 98.4028 188.176 98.2511C188.11 98.0994 188.077 97.9356 188.077 97.7702ZM189.967 97.7702C189.956 97.6548 189.913 97.5449 189.841 97.4539C189.769 97.3628 189.672 97.2946 189.563 97.2575C189.453 97.2204 189.335 97.216 189.223 97.2448C189.11 97.2736 189.009 97.3343 188.93 97.4197C188.852 97.5051 188.8 97.6114 188.781 97.7257C188.762 97.84 188.777 97.9574 188.823 98.0636C188.87 98.1697 188.946 98.2601 189.043 98.3238C189.14 98.3874 189.253 98.4215 189.369 98.422C189.452 98.4223 189.534 98.4053 189.611 98.3719C189.687 98.3386 189.755 98.2896 189.812 98.2283C189.868 98.1669 189.911 98.0945 189.938 98.0156C189.964 97.9367 189.974 97.8531 189.967 97.7702Z" fill="#263238"/>
<path d="M195.086 97.5932V98.9387H194.404V97.7008C194.404 97.3181 194.23 97.1447 193.955 97.1447C193.68 97.1447 193.435 97.342 193.435 97.7427V98.9387H192.753V97.7008C192.753 97.3181 192.592 97.1447 192.311 97.1447C192.03 97.1447 191.797 97.342 191.797 97.7427V98.9387H191.115V96.5885H191.761V96.8756C191.854 96.773 191.969 96.6921 192.097 96.6384C192.225 96.5847 192.363 96.5595 192.502 96.5646C192.653 96.5569 192.804 96.5887 192.939 96.6569C193.075 96.725 193.19 96.8272 193.274 96.9533C193.376 96.8276 193.505 96.727 193.653 96.6596C193.8 96.5922 193.961 96.5597 194.123 96.5646C194.257 96.5554 194.392 96.5763 194.518 96.6257C194.643 96.6751 194.756 96.7518 194.848 96.8503C194.941 96.9488 195.01 97.0665 195.051 97.195C195.092 97.3235 195.104 97.4595 195.086 97.5932Z" fill="#263238"/>
<path d="M155.821 113.974L156.927 114.572L156.431 115.403L155.313 114.745V115.977H154.356V114.733L153.273 115.415L152.783 114.584L153.895 113.986L152.783 113.388L153.273 112.556L154.392 113.226V111.988H155.348V113.226L156.467 112.556L156.963 113.388L155.821 113.974Z" fill="#263238"/>
<path d="M160.431 113.974L161.538 114.572L161.041 115.415L159.923 114.757V115.989H158.972V114.745L157.872 115.415L157.382 114.584L158.488 113.986L157.382 113.388L157.872 112.556L158.99 113.226V111.988H159.941V113.226L161.059 112.556L161.556 113.388L160.431 113.974Z" fill="#263238"/>
<path d="M165.048 113.974L166.154 114.572L165.646 115.415L164.534 114.757V115.989H163.577V114.745L162.489 115.415L162.004 114.584L163.111 113.986L162.004 113.388L162.489 112.556L163.607 113.226V111.988H164.564V113.226L165.676 112.556L166.178 113.388L165.048 113.974Z" fill="#263238"/>
<path d="M169.647 113.974L170.753 114.572L170.257 115.403L169.138 114.745V115.977H168.182V114.733L167.099 115.415L166.609 114.584L167.721 113.986L166.609 113.388L167.099 112.556L168.217 113.226V111.988H169.174V113.226L170.292 112.556L170.789 113.388L169.647 113.974Z" fill="#263238"/>
<path d="M174.257 113.974L175.364 114.572L174.867 115.403L173.749 114.746V115.977H172.822V114.734L171.71 115.415L171.219 114.584L172.326 113.986L171.219 113.388L171.71 112.557L172.822 113.203V111.965H173.773V113.203L174.891 112.533L175.387 113.364L174.257 113.974Z" fill="#263238"/>
<path d="M178.868 113.974L179.974 114.572L179.478 115.403L178.36 114.745V115.977H177.403V114.733L176.314 115.415L175.83 114.584L176.936 113.986L175.83 113.388L176.314 112.556L177.433 113.226V111.988H178.389V113.226L179.508 112.556L180.004 113.388L178.868 113.974Z" fill="#263238"/>
<path d="M183.472 113.974L184.579 114.572L184.082 115.403L182.964 114.745V115.977H182.007V114.733L180.925 115.415L180.435 114.584L181.547 113.986L180.435 113.388L180.925 112.556L182.043 113.226V111.988H182.988V113.226L184.106 112.556L184.603 113.388L183.472 113.974Z" fill="#263238"/>
<path d="M188.083 113.974L189.189 114.572L188.693 115.403L187.575 114.745V115.977H186.624V114.733L185.535 115.415L185.045 114.584L186.151 113.986L185.045 113.388L185.535 112.556L186.654 113.226V111.988H187.605V113.226L188.723 112.556L189.219 113.388L188.083 113.974Z" fill="#263238"/>
<path d="M133.773 80.9375H87.1884C86.8698 80.9375 86.5544 81.0003 86.2602 81.1224C85.966 81.2445 85.6987 81.4234 85.4737 81.649C85.2488 81.8745 85.0705 82.1422 84.9491 82.4367C84.8278 82.7312 84.7657 83.0468 84.7665 83.3654V104.582C84.7625 104.902 84.8224 105.218 84.9427 105.514C85.063 105.81 85.2412 106.078 85.4669 106.304C85.6926 106.53 85.9612 106.708 86.2568 106.828C86.5525 106.948 86.8692 107.008 87.1884 107.004H106.731L110.881 112.332L114.344 107.004H133.773C134.091 107.004 134.406 106.942 134.699 106.82C134.993 106.698 135.26 106.52 135.485 106.295C135.71 106.07 135.888 105.803 136.01 105.509C136.132 105.215 136.194 104.9 136.194 104.582V83.3654C136.194 82.7225 135.94 82.1059 135.485 81.6507C135.031 81.1956 134.415 80.9391 133.773 80.9375Z" fill="white"/>
<path d="M133.773 80.9393H134C134.227 80.9589 134.45 81.0092 134.664 81.0888C135.013 81.214 135.328 81.4187 135.585 81.6868C135.951 82.081 136.176 82.5859 136.224 83.122C136.272 85.4302 136.26 88.791 136.278 93.0488C136.278 95.1777 136.278 97.5278 136.278 100.075C136.278 101.355 136.278 102.677 136.278 104.052C136.294 104.404 136.278 104.756 136.23 105.104C136.157 105.467 136.006 105.81 135.788 106.109C135.564 106.416 135.274 106.668 134.94 106.849C134.606 107.029 134.236 107.131 133.856 107.15H114.314L114.433 107.09C113.345 108.758 112.173 110.57 110.977 112.412L110.863 112.585L110.732 112.424L106.582 107.102L106.701 107.162H87.906C87.5651 107.162 87.2482 107.162 86.8834 107.162C86.3527 107.098 85.8545 106.872 85.4573 106.515C85.0601 106.157 84.7833 105.685 84.6648 105.164C84.6052 104.829 84.5832 104.488 84.599 104.148V95.3869C84.599 92.8395 84.599 90.3418 84.599 87.894V83.3671C84.5993 83.0521 84.6581 82.7398 84.7725 82.4462C84.9942 81.8627 85.4188 81.3786 85.9685 81.0828C86.243 80.9423 86.5409 80.8532 86.8475 80.8197C87.1424 80.8049 87.4377 80.8049 87.7326 80.8197H92.8215H99.268H110.833L127.577 80.8675L132.128 80.8974L127.577 80.9273L110.833 80.9751H99.268H87.7804C87.4934 80.9751 87.1824 80.9751 86.9253 80.9751C86.6536 81.0063 86.39 81.0874 86.1479 81.2143C85.6533 81.4677 85.2684 81.893 85.0655 82.4103C84.9629 82.6713 84.9102 82.9492 84.91 83.2296V84.1266C84.91 85.3226 84.91 86.5186 84.91 87.7565V95.2494C84.91 97.7929 84.91 100.384 84.91 103.023V104.016C84.8911 104.334 84.9091 104.653 84.9638 104.967C85.0692 105.425 85.3137 105.839 85.6638 106.153C86.0139 106.467 86.4524 106.664 86.9193 106.719C87.2243 106.749 87.5771 106.719 87.906 106.719H106.803L106.851 106.779L111.001 112.101H110.756L114.218 106.779L114.26 106.713H114.344H133.874C134.218 106.702 134.555 106.612 134.859 106.45C135.162 106.288 135.425 106.059 135.626 105.78C135.829 105.512 135.968 105.201 136.033 104.871C136.079 104.536 136.095 104.198 136.081 103.861C136.081 102.485 136.081 101.164 136.081 99.8839C136.081 97.3364 136.081 94.9863 136.081 92.8574C136.081 88.6116 136.081 85.2508 136.111 82.9366C136.058 82.4364 135.849 81.9656 135.513 81.5911C135.267 81.3168 134.963 81.1021 134.622 80.9632C134.341 80.9148 134.055 80.9068 133.773 80.9393Z" fill="#263238"/>
<path d="M101.756 86.9329V87.7163H101.247V86.9269L100.386 85.5156H100.93L101.528 86.4963L102.126 85.5156H102.629L101.756 86.9329Z" fill="#263238"/>
<path d="M102.605 86.6092C102.594 86.3707 102.655 86.1343 102.78 85.9307C102.904 85.7271 103.087 85.5655 103.305 85.4666C103.522 85.3678 103.764 85.3363 103.999 85.3762C104.235 85.4161 104.453 85.5255 104.626 85.6904C104.798 85.8554 104.918 86.0682 104.968 86.3015C105.019 86.5349 104.999 86.7781 104.91 86.9998C104.821 87.2215 104.668 87.4115 104.471 87.5455C104.273 87.6794 104.04 87.7511 103.801 87.7514C103.646 87.7587 103.492 87.7345 103.347 87.6804C103.202 87.6263 103.07 87.5433 102.958 87.4365C102.846 87.3297 102.757 87.2013 102.697 87.0591C102.636 86.9169 102.605 86.7638 102.605 86.6092ZM104.506 86.6092C104.505 86.4723 104.464 86.3387 104.387 86.2255C104.31 86.1122 104.201 86.0242 104.074 85.9726C103.947 85.921 103.808 85.9081 103.674 85.9356C103.54 85.963 103.417 86.0295 103.32 86.1268C103.224 86.224 103.158 86.3476 103.132 86.482C103.106 86.6164 103.12 86.7556 103.173 86.882C103.225 87.0084 103.314 87.1164 103.428 87.1924C103.542 87.2683 103.676 87.3089 103.813 87.3089C103.905 87.3114 103.997 87.2949 104.083 87.2606C104.168 87.2262 104.246 87.1747 104.311 87.1091C104.376 87.0436 104.427 86.9654 104.461 86.8794C104.494 86.7934 104.51 86.7015 104.506 86.6092Z" fill="#263238"/>
<path d="M105.397 86.7415V85.5156H105.912V86.7116C105.912 87.1302 106.097 87.3096 106.402 87.3096C106.707 87.3096 106.898 87.1362 106.898 86.7116V85.5156H107.407V86.7535C107.407 87.0199 107.301 87.2755 107.112 87.4639C106.924 87.6523 106.669 87.7581 106.402 87.7581C106.136 87.7581 105.88 87.6523 105.692 87.4639C105.503 87.2755 105.397 87.0199 105.397 86.7535V86.7415Z" fill="#263238"/>
<path d="M109.326 87.7163L108.902 87.1183H108.429V87.7163H107.915V85.5156H108.872C109.47 85.5156 109.835 85.8206 109.835 86.3169C109.841 86.4664 109.801 86.6142 109.72 86.7396C109.638 86.8651 109.519 86.9619 109.38 87.0166L109.876 87.7282L109.326 87.7163ZM108.848 85.9223H108.429V86.7116H108.848C109.159 86.7116 109.314 86.5621 109.314 86.3229C109.314 86.0837 109.159 85.9163 108.836 85.9163L108.848 85.9223Z" fill="#263238"/>
<path d="M111.001 86.6083C111.003 86.3631 111.08 86.1243 111.222 85.9245C111.364 85.7247 111.565 85.5734 111.796 85.4911C112.027 85.4089 112.277 85.3997 112.514 85.4647C112.75 85.5298 112.961 85.666 113.118 85.8548L112.789 86.1598C112.721 86.0763 112.635 86.0093 112.538 85.9637C112.441 85.9182 112.334 85.8952 112.227 85.8967C112.05 85.9129 111.886 85.9946 111.766 86.1257C111.646 86.2568 111.58 86.4279 111.58 86.6053C111.58 86.7828 111.646 86.9538 111.766 87.0849C111.886 87.216 112.05 87.2977 112.227 87.3139C112.334 87.3165 112.44 87.2948 112.537 87.2502C112.635 87.2057 112.721 87.1395 112.789 87.0568L113.118 87.3558C112.962 87.5443 112.751 87.6803 112.515 87.7456C112.279 87.8108 112.029 87.8021 111.798 87.7206C111.568 87.6391 111.367 87.4887 111.225 87.2898C111.082 87.0909 111.004 86.853 111.001 86.6083Z" fill="#263238"/>
<path d="M113.279 86.6092C113.268 86.3707 113.329 86.1343 113.454 85.9307C113.579 85.7271 113.762 85.5655 113.979 85.4666C114.196 85.3678 114.438 85.3363 114.674 85.3762C114.909 85.4161 115.127 85.5255 115.3 85.6904C115.473 85.8554 115.592 86.0682 115.643 86.3015C115.693 86.5349 115.673 86.7781 115.584 86.9998C115.496 87.2215 115.343 87.4115 115.145 87.5455C114.947 87.6794 114.714 87.7511 114.475 87.7514C114.321 87.7587 114.166 87.7345 114.021 87.6804C113.877 87.6263 113.744 87.5433 113.632 87.4365C113.521 87.3297 113.432 87.2013 113.371 87.0591C113.31 86.9169 113.279 86.7638 113.279 86.6092ZM115.181 86.6092C115.178 86.4725 115.136 86.3396 115.058 86.2271C114.98 86.1146 114.871 86.0276 114.744 85.9769C114.617 85.9262 114.478 85.9142 114.345 85.9423C114.211 85.9704 114.088 86.0374 113.992 86.1349C113.897 86.2323 113.832 86.3559 113.806 86.4902C113.78 86.6244 113.795 86.7633 113.847 86.8893C113.9 87.0154 113.989 87.123 114.103 87.1987C114.217 87.2744 114.35 87.3148 114.487 87.3148C114.58 87.3174 114.672 87.3008 114.758 87.2661C114.844 87.2314 114.922 87.1793 114.988 87.1131C115.053 87.0469 115.103 86.9679 115.137 86.8813C115.17 86.7946 115.185 86.702 115.181 86.6092Z" fill="#263238"/>
<path d="M116.09 85.5138H117.1C117.255 85.4977 117.412 85.5143 117.56 85.5625C117.708 85.6107 117.844 85.6896 117.96 85.7939C118.076 85.8982 118.168 86.0256 118.232 86.1679C118.295 86.3103 118.328 86.4643 118.328 86.6201C118.328 86.7759 118.295 86.9299 118.232 87.0722C118.168 87.2146 118.076 87.342 117.96 87.4463C117.844 87.5506 117.708 87.6294 117.56 87.6777C117.412 87.7259 117.255 87.7425 117.1 87.7264H116.09V85.5138ZM117.07 87.3078C117.253 87.3078 117.428 87.2353 117.557 87.1064C117.686 86.9774 117.758 86.8025 117.758 86.6201C117.758 86.4377 117.686 86.2628 117.557 86.1338C117.428 86.0049 117.253 85.9324 117.07 85.9324H116.61V87.3078H117.07Z" fill="#263238"/>
<path d="M120.425 87.3096V87.7222H118.709V85.5156H120.383V85.9223H119.217V86.4066H120.246V86.8073H119.217V87.3096H120.425Z" fill="#263238"/>
<path d="M129.228 90.0391H91.7392C90.5667 90.0391 89.6163 90.9895 89.6163 92.162V100.079C89.6163 101.252 90.5667 102.202 91.7392 102.202H129.228C130.4 102.202 131.351 101.252 131.351 100.079V92.162C131.351 90.9895 130.4 90.0391 129.228 90.0391Z" fill="#F5F5F5"/>
<path d="M98.072 96.8778C98.0731 97.1282 98.0218 97.376 97.9213 97.6053C97.8209 97.8347 97.6736 98.0405 97.4888 98.2094C97.3041 98.3784 97.086 98.5068 96.8486 98.5865C96.6113 98.6661 96.3598 98.6952 96.1106 98.6718C94.5677 98.6718 93.7485 97.5595 93.7485 95.7177C93.7485 93.7204 94.8069 92.6978 96.3677 92.6978C96.8308 92.6777 97.291 92.7809 97.7013 92.9968L97.5278 93.3436C97.1731 93.1493 96.7718 93.0562 96.3677 93.0745C95.0461 93.0745 94.179 93.9416 94.179 95.6519C94.1772 95.888 94.1932 96.1239 94.2269 96.3575C94.3673 95.9812 94.6266 95.6608 94.9654 95.445C95.3042 95.2292 95.7041 95.1297 96.1046 95.1615C97.3066 95.1197 98.072 95.8074 98.072 96.8778ZM97.6415 96.8778C97.6415 96.0346 97.0435 95.4904 96.0448 95.4904C95.8442 95.4699 95.6416 95.4904 95.4493 95.5509C95.2569 95.6113 95.0789 95.7103 94.9261 95.8418C94.7733 95.9733 94.6489 96.1346 94.5606 96.3158C94.4722 96.497 94.4218 96.6944 94.4123 96.8957C94.4123 97.5834 95.0102 98.2771 96.0986 98.2771C96.2961 98.3019 96.4966 98.2841 96.6867 98.2249C96.8767 98.1657 97.0518 98.0664 97.2003 97.9338C97.3487 97.8012 97.4671 97.6384 97.5473 97.4562C97.6275 97.2741 97.6678 97.0768 97.6654 96.8778H97.6415Z" fill="#3F41D1"/>
<path d="M105.912 96.9726H104.68V98.6051H104.255V96.9726H100.901V96.6616L104.1 92.7148H104.578L101.439 96.5899H104.267V95.1547H104.68V96.5899H105.912V96.9726Z" fill="#3F41D1"/>
<path d="M112.454 96.9432C112.454 97.9239 111.748 98.6475 110.391 98.6475C110.009 98.6622 109.628 98.5993 109.272 98.4626C108.915 98.3259 108.59 98.1182 108.316 97.8521L108.531 97.5232C108.775 97.7642 109.066 97.9527 109.386 98.0772C109.706 98.2016 110.048 98.2593 110.391 98.2468C111.449 98.2468 112.017 97.7445 112.017 96.9432C112.017 96.1419 111.479 95.6395 110.301 95.6395H109.93V95.3286L111.671 93.098H108.531V92.6914H112.227V92.9904L110.433 95.2568C111.826 95.3106 112.454 95.9864 112.454 96.9432Z" fill="#3F41D1"/>
<path d="M119.6 92.6914V92.9904L117.07 98.5817H116.598L119.104 93.0741H115.797V94.2043H115.378V92.6914H119.6Z" fill="#3F41D1"/>
<path d="M122.59 95.6814C122.59 93.8396 123.541 92.6914 124.892 92.6914C126.244 92.6914 127.201 93.8336 127.201 95.6814C127.201 97.5292 126.25 98.6714 124.892 98.6714C123.535 98.6714 122.59 97.4754 122.59 95.6814ZM126.776 95.6814C126.776 94.0429 126.011 93.0921 124.898 93.0921C123.786 93.0921 123.021 94.0429 123.021 95.6814C123.021 97.3199 123.786 98.2707 124.898 98.2707C126.011 98.2707 126.776 97.296 126.776 95.6814Z" fill="#3F41D1"/>
<path d="M250.801 249.677C258.629 246.352 267.695 239.816 271.731 231.797C263.045 235.402 255.719 241.66 250.801 249.677Z" fill="#263238"/>
<path d="M252.47 237.234C260.297 233.915 269.363 227.379 273.4 219.359C264.711 222.959 257.385 229.216 252.47 237.234Z" fill="#263238"/>
<path d="M254.748 225.136C262.582 221.811 271.641 215.275 275.678 207.262C266.99 210.863 259.664 217.119 254.748 225.136Z" fill="#263238"/>
<path d="M257.571 212.471C264.956 208.105 273.19 200.331 276.276 191.852C268.069 196.633 261.542 203.835 257.588 212.471" fill="#263238"/>
<path d="M260.608 202.777C265.99 195.738 271.008 185.261 270.942 176.184C264.96 183.84 261.366 193.09 260.608 202.777Z" fill="#263238"/>
<path d="M259.101 207.388C258.013 197.868 254.317 185.902 248.026 178.762C249.089 189.123 252.913 199.01 259.101 207.388Z" fill="#263238"/>
<path d="M256.572 217.796C254.658 207.983 249.814 195.844 242.674 188.961C244.629 199.648 249.43 209.609 256.572 217.796Z" fill="#263238"/>
<path d="M253.666 230.496C251.758 220.665 246.902 208.543 239.798 201.66C241.753 212.347 246.554 222.309 253.695 230.496" fill="#263238"/>
<path d="M251.333 246.086C249.414 236.272 244.57 224.133 237.436 217.25C239.391 227.937 244.192 237.899 251.333 246.086Z" fill="#263238"/>
<path d="M260.973 200.93C260.944 200.975 260.924 201.026 260.913 201.079C260.872 201.193 260.824 201.336 260.764 201.516C260.632 201.928 260.447 202.496 260.22 203.214C259.747 204.691 259.113 206.838 258.366 209.505C257.618 212.172 256.793 215.359 255.944 218.918C255.095 222.476 254.258 226.416 253.468 230.567C252.679 234.717 252.063 238.699 251.543 242.323C251.022 245.947 250.652 249.224 250.383 251.975C250.113 254.726 249.922 256.962 249.826 258.511C249.779 259.265 249.743 259.857 249.713 260.305C249.713 260.496 249.713 260.646 249.713 260.772C249.705 260.823 249.705 260.875 249.713 260.927C249.731 260.877 249.741 260.825 249.743 260.772C249.743 260.652 249.743 260.496 249.791 260.311C249.832 259.881 249.892 259.288 249.964 258.517C250.096 256.98 250.317 254.75 250.616 251.999C250.915 249.248 251.327 245.983 251.842 242.365C252.356 238.747 253.038 234.776 253.791 230.626C254.545 226.476 255.418 222.547 256.237 218.983C257.056 215.419 257.87 212.232 258.593 209.559C259.317 206.886 259.915 204.733 260.351 203.25L260.842 201.534C260.889 201.354 260.925 201.205 260.961 201.085C260.972 201.034 260.976 200.982 260.973 200.93Z" fill="#263238"/>
<path d="M246.974 254.857C250.293 247.908 252.709 238.113 251.082 230.5C247.371 238.046 245.943 246.511 246.974 254.857Z" fill="#455A64"/>
<path d="M241.466 245.857C244.785 238.902 247.201 229.113 245.569 221.5C241.856 229.045 240.43 237.511 241.466 245.857Z" fill="#455A64"/>
<path d="M236.515 236.7C239.834 229.746 242.25 219.956 240.617 212.344C236.905 219.889 235.479 228.355 236.515 236.7Z" fill="#455A64"/>
<path d="M231.635 226.829C234.105 219.473 235.343 209.439 232.831 202.102C230.045 210.054 229.63 218.645 231.635 226.829Z" fill="#455A64"/>
<path d="M228.436 218.742C228.191 210.914 225.889 201.107 221.027 195.324C221.135 203.69 223.713 211.836 228.436 218.742Z" fill="#455A64"/>
<path d="M229.925 222.625C224.166 217.195 215.412 211.795 207.542 211.09C213.697 217.065 221.487 221.08 229.925 222.625Z" fill="#455A64"/>
<path d="M233.818 230.866C227.366 225.747 217.774 220.952 209.485 220.934C216.433 226.582 224.902 230.039 233.818 230.866Z" fill="#455A64"/>
<path d="M238.662 240.796C232.209 235.683 222.623 230.881 214.335 230.863C221.281 236.51 229.748 239.967 238.662 240.796Z" fill="#455A64"/>
<path d="M245.425 252.232C238.973 247.113 229.381 242.317 221.093 242.293C228.039 247.945 236.508 251.405 245.425 252.232Z" fill="#455A64"/>
<path d="M227.706 217.324C227.706 217.324 227.706 217.366 227.742 217.45L227.874 217.821L228.412 219.226C228.884 220.422 229.608 222.216 230.523 224.357C232.365 228.656 235.098 234.523 238.488 240.826C240.187 243.965 241.891 246.919 243.482 249.568C245.072 252.218 246.585 254.574 247.883 256.523C249.181 258.473 250.275 260.033 251.016 261.098L251.901 262.294L252.135 262.605C252.189 262.677 252.218 262.712 252.224 262.706C252.205 262.665 252.183 262.625 252.159 262.587L251.949 262.258C251.74 261.953 251.465 261.534 251.112 261.008C250.371 259.926 249.318 258.347 248.056 256.386C246.795 254.424 245.306 252.056 243.715 249.407C242.124 246.758 240.444 243.798 238.745 240.658C235.355 234.415 232.622 228.555 230.714 224.249C229.77 222.108 229.022 220.368 228.52 219.16L227.922 217.773L227.76 217.414C227.745 217.382 227.727 217.352 227.706 217.324Z" fill="#263238"/>
<path d="M231.175 255.699H264.16V262.056H260.77L257.917 280.187H237.526L234.589 262.056H231.175V255.699Z" fill="#3F41D1"/>
<path d="M231.175 261.925C231.175 261.841 238.506 261.77 247.548 261.77C256.59 261.77 263.921 261.841 263.921 261.925C263.921 262.009 256.596 262.075 247.548 262.075C238.5 262.075 231.175 262.009 231.175 261.925Z" fill="#263238"/>
<path d="M42.2248 280.199H36.8727L34.8873 256.094H41.1902L42.2248 280.199Z" fill="#263238"/>
<path d="M88.6296 280.199H93.9817L95.967 256.094H89.6641L88.6296 280.199Z" fill="#263238"/>
<path d="M99.6447 259.15L30.7312 260.764L28.6382 216.255C28.5888 215.223 28.7496 214.191 29.1108 213.222C29.472 212.253 30.0261 211.368 30.7396 210.62C31.4531 209.872 32.311 209.277 33.2614 208.87C34.2118 208.463 35.2349 208.254 36.2687 208.254H94.9863C96.0342 208.254 97.071 208.469 98.0322 208.887C98.9933 209.305 99.8583 209.916 100.573 210.682C101.288 211.448 101.838 212.353 102.189 213.34C102.539 214.328 102.683 215.377 102.611 216.423L99.6447 259.15Z" fill="#3F41D1"/>
<path d="M103.179 216.105H102.988H102.419L100.249 216.141H92.2594C85.514 216.141 76.1971 216.081 65.9115 216.32C55.6199 216.661 46.2911 216.601 39.5517 216.499C36.179 216.445 33.4461 216.38 31.5624 216.32L29.3917 216.248H28.8295C28.766 216.256 28.7017 216.256 28.6382 216.248H28.8295H29.3917H31.5624L39.5517 216.326C46.2971 216.374 55.614 216.398 65.9055 216.051C76.1971 215.818 85.514 215.925 92.2594 215.973L100.249 216.039L102.419 216.069H102.988L103.179 216.105Z" fill="#263238"/>
<path d="M53.7721 208.945C52.2232 209.172 50.716 209.625 49.2991 210.29C47.9271 211.045 46.6754 212.001 45.5855 213.125C45.805 212.708 46.0942 212.332 46.4407 212.013C48.0302 210.377 50.1158 209.314 52.3728 208.987C52.8331 208.891 53.3069 208.876 53.7721 208.945Z" fill="#263238"/>
<path d="M82.1173 128.02L90.5372 143.406L102.856 136.505L108.836 138.485C108.836 138.485 93.7424 154.882 91.2847 155.737C88.8269 156.592 84.1744 156.73 81.5193 153.399C79.1273 150.367 72.047 134.46 72.047 134.46L82.1173 128.02Z" fill="#FFBE9D"/>
<path d="M116.795 117.973C116.687 117.841 116.547 117.738 116.388 117.675C116.229 117.612 116.056 117.592 115.886 117.615L110.032 118.404C109.778 118.442 109.534 118.534 109.319 118.675C109.103 118.815 108.92 119 108.782 119.217L96.577 137.965L97.5098 138.485L104.004 138.281L116.981 118.207L116.795 117.973Z" fill="#263238"/>
<path d="M112.639 120.408C112.686 120.482 112.755 120.539 112.836 120.572C112.918 120.605 113.007 120.612 113.093 120.591C113.178 120.57 113.255 120.523 113.312 120.456C113.369 120.389 113.403 120.306 113.41 120.219C113.418 120.132 113.397 120.044 113.352 119.969C113.307 119.893 113.239 119.834 113.159 119.8C113.078 119.765 112.989 119.757 112.903 119.776C112.817 119.794 112.74 119.84 112.681 119.905C112.612 119.968 112.569 120.055 112.562 120.148C112.554 120.241 112.582 120.334 112.639 120.408Z" fill="white"/>
<path d="M116.981 118.207C116.609 118.311 116.229 118.385 115.845 118.428L112.735 118.913L110.588 119.224C110.406 119.24 110.23 119.297 110.073 119.39C109.915 119.483 109.781 119.61 109.679 119.762L108.985 120.838C108.023 122.315 106.976 123.936 105.876 125.622C103.657 129.019 101.636 132.087 100.153 134.299L98.3889 136.942C98.1838 137.27 97.9539 137.582 97.7012 137.875C97.8696 137.523 98.0698 137.187 98.2992 136.871L99.9736 134.204C101.403 131.955 103.388 128.869 105.607 125.473C106.719 123.78 107.778 122.166 108.74 120.689C108.985 120.324 109.225 119.965 109.452 119.612C109.579 119.429 109.746 119.276 109.939 119.165C110.132 119.053 110.348 118.985 110.57 118.966L112.729 118.691L115.857 118.321C116.228 118.253 116.604 118.215 116.981 118.207Z" fill="#455A64"/>
<path d="M110.469 124.898C110.469 124.898 109.948 124.808 109.661 126.238C109.374 127.667 108.465 131.769 108.465 131.769L105.726 130.316L102.294 130.765C102.294 130.765 101.546 131.452 102.097 131.829C102.647 132.206 104.811 132.588 104.811 132.588L106.408 134.891L101.821 132.678C101.821 132.678 100.291 133.079 100.739 134.012C101.188 134.945 104.279 137.869 104.279 137.869L101.983 137.695L99.268 136.033C99.268 136.033 98.4308 136.075 98.7417 136.786C99.0527 137.498 101.899 140.081 101.899 140.081L105.344 141.756C105.344 141.756 107.227 141.606 107.407 141.05C107.529 140.613 107.605 140.164 107.634 139.711C107.634 139.711 108.633 139.442 108.83 138.957C108.94 138.55 108.962 138.124 108.896 137.707C108.896 137.707 110.463 137.982 110.66 137.109C110.797 136.021 110.752 134.918 110.528 133.844C110.373 133.169 111.198 126.919 111.126 126.734C111.055 126.549 111.455 124.486 110.469 124.898Z" fill="#FFBE9D"/>
<path d="M107.496 141.062C107.224 141.225 106.916 141.32 106.599 141.337C105.071 141.559 103.516 141.189 102.252 140.303C101.78 139.962 101.546 139.705 101.576 139.651C101.606 139.597 102.73 140.506 104.405 140.895C106.079 141.283 107.479 140.954 107.496 141.062Z" fill="#EB996E"/>
<path d="M106.683 139.823C106.629 139.901 106.013 139.584 105.362 139.046C104.71 138.507 104.279 137.975 104.345 137.909C104.411 137.844 104.943 138.25 105.589 138.776C106.235 139.303 106.737 139.739 106.683 139.823Z" fill="#EB996E"/>
<path d="M108.495 136.853C108.441 136.931 107.831 136.62 107.221 136.052C106.611 135.484 106.253 134.91 106.324 134.856C106.396 134.802 106.875 135.257 107.461 135.801C108.047 136.345 108.549 136.77 108.495 136.853Z" fill="#EB996E"/>
<path d="M110.403 134.455C110.307 134.496 109.96 133.857 109.416 133.145C108.872 132.433 108.34 131.949 108.399 131.853C108.459 131.758 109.117 132.176 109.691 132.93C110.085 133.349 110.334 133.884 110.403 134.455Z" fill="#EB996E"/>
<path d="M112.729 245.357C112.775 245.17 112.775 244.976 112.729 244.789C112.632 244.272 112.428 243.781 112.131 243.348C112.034 243.197 111.919 243.059 111.79 242.935C111.705 242.855 111.601 242.8 111.487 242.774C111.373 242.749 111.255 242.755 111.144 242.792C111.079 242.814 111.02 242.851 110.971 242.9C110.923 242.948 110.886 243.008 110.863 243.073C110.821 243.197 110.821 243.331 110.863 243.455C110.945 243.663 111.045 243.863 111.162 244.053C111.383 244.43 111.569 244.801 111.856 245.249C111.94 245.37 112.055 245.465 112.188 245.525C112.322 245.585 112.47 245.608 112.615 245.59C112.883 245.543 113.135 245.432 113.351 245.267C113.747 244.977 114.108 244.642 114.427 244.269C114.581 244.091 114.725 243.906 114.858 243.713C115.003 243.524 115.111 243.308 115.175 243.079C115.211 242.944 115.198 242.8 115.139 242.673C115.08 242.547 114.978 242.445 114.852 242.385C114.734 242.35 114.608 242.346 114.488 242.373C114.367 242.4 114.256 242.458 114.164 242.54C113.891 242.779 113.65 243.053 113.447 243.354C113.146 243.776 112.906 244.239 112.735 244.729C112.656 244.902 112.615 245.089 112.615 245.279C112.899 244.65 113.241 244.05 113.638 243.485C113.841 243.216 114.073 242.972 114.332 242.756C114.469 242.66 114.637 242.594 114.738 242.648C114.797 242.683 114.843 242.737 114.867 242.801C114.891 242.865 114.892 242.936 114.87 243.001C114.808 243.188 114.713 243.362 114.589 243.515C114.463 243.695 114.326 243.868 114.182 244.041C113.873 244.389 113.528 244.704 113.154 244.98C112.979 245.115 112.773 245.205 112.556 245.243C112.466 245.254 112.376 245.24 112.294 245.202C112.213 245.164 112.144 245.104 112.095 245.028C111.862 244.687 111.635 244.263 111.413 243.91C111.312 243.724 111.186 243.545 111.126 243.396C111.067 243.246 111.126 243.126 111.216 243.079C111.473 242.977 111.73 243.27 111.904 243.515C112.293 244.072 112.573 244.697 112.729 245.357Z" fill="#263238"/>
<path d="M98.0361 245.861L90.7405 261.678L78.9659 256.237L86.5126 236.664L98.0361 245.861Z" fill="#FFBE9D"/>
<path d="M92.092 260.621L87.8282 268.754C87.8282 268.754 98.7417 280.038 97.7191 282.561L72.0649 270.261L79.1094 253.953L92.092 260.621Z" fill="#455A64"/>
<path d="M80.4549 263.836C80.173 263.8 79.8876 263.866 79.6498 264.022C79.412 264.178 79.2374 264.413 79.1572 264.685C79.1031 264.966 79.1593 265.257 79.3141 265.498C79.4689 265.738 79.7104 265.91 79.9885 265.977C80.2879 266.022 80.5936 265.955 80.8465 265.788C81.0993 265.622 81.2815 265.367 81.3579 265.074C81.3833 264.775 81.2915 264.477 81.1019 264.244C80.9123 264.011 80.6396 263.86 80.3413 263.824" fill="#626262"/>
<g opacity="0.6">
<path d="M72.0889 270.26L73.1533 268.215L97.3544 280.773C97.3544 280.773 98.2573 281.813 97.7431 282.567L72.0889 270.26Z" fill="white"/>
</g>
<path d="M88.3306 268.82C88.2708 268.945 87.613 268.7 86.8057 268.82C85.9984 268.939 85.4123 269.298 85.3226 269.19C85.2329 269.083 85.7652 268.455 86.7459 268.341C87.7266 268.228 88.4143 268.718 88.3306 268.82Z" fill="#263238"/>
<path d="M90.4893 271.224C90.4893 271.361 89.8136 271.313 89.1379 271.636C88.4621 271.959 88.0674 272.468 87.9419 272.402C87.8163 272.336 88.0794 271.588 88.9345 271.206C89.7897 270.823 90.5432 271.104 90.4893 271.224Z" fill="#263238"/>
<path d="M90.4714 275.174C90.3458 275.174 90.4714 274.439 91.1232 273.907C91.7751 273.374 92.4927 273.38 92.4927 273.512C92.4927 273.643 91.9604 273.835 91.4282 274.277C90.896 274.72 90.603 275.222 90.4714 275.174Z" fill="#263238"/>
<path d="M89.5565 265.689C89.4488 265.778 88.9585 265.33 88.2289 265.037C87.4994 264.744 86.8356 264.702 86.8236 264.565C86.8117 264.427 87.5532 264.236 88.4083 264.565C89.2635 264.893 89.6641 265.617 89.5565 265.689Z" fill="#263238"/>
<path d="M94.5199 258.51L113.758 210.377C113.758 210.377 113.321 202.161 111.808 199.572C110.295 196.982 64.4764 181.847 64.4764 181.847C64.4764 181.847 52.8094 179.036 45.0234 181.847C37.2375 184.657 31.407 194.405 32.4654 199.787C33.5239 205.169 38.1046 209.157 38.1046 209.157L71.8019 210.162L90.1665 216.86L77.7998 252.303L94.5199 258.51Z" fill="#263238"/>
<path d="M111.629 225.62L112.065 243.028L99.0946 243.351L97.2288 222.457L111.629 225.62Z" fill="#FFBE9D"/>
<path d="M112.837 241.47L112.597 250.649C112.597 250.649 127.368 255.953 127.547 258.674L99.1006 258.961L98.2215 241.219L112.837 241.47Z" fill="#455A64"/>
<path d="M103.789 249.509C103.516 249.595 103.285 249.779 103.139 250.025C102.993 250.271 102.944 250.563 103 250.843C103.076 251.119 103.254 251.355 103.499 251.503C103.744 251.651 104.036 251.699 104.315 251.638C104.603 251.546 104.847 251.35 105 251.088C105.152 250.826 105.202 250.518 105.14 250.221C105.033 249.941 104.82 249.713 104.548 249.587C104.275 249.461 103.965 249.446 103.681 249.545" fill="#626262"/>
<g opacity="0.6">
<path d="M99.1185 258.965L99.1723 256.656L126.429 257.254C126.429 257.254 127.697 257.792 127.565 258.689L99.1185 258.965Z" fill="white"/>
</g>
<path d="M113.058 250.503C113.058 250.64 112.358 250.712 111.682 251.166C111.007 251.621 110.642 252.207 110.516 252.153C110.391 252.099 110.588 251.292 111.419 250.76C112.251 250.228 113.088 250.377 113.058 250.503Z" fill="#263238"/>
<path d="M116.054 251.702C116.09 251.84 115.486 252.079 115.019 252.671C114.553 253.263 114.421 253.867 114.29 253.867C114.158 253.867 114.051 253.077 114.649 252.348C115.247 251.618 116.048 251.57 116.054 251.702Z" fill="#263238"/>
<path d="M117.806 255.261C117.68 255.291 117.483 254.597 117.806 253.831C118.129 253.066 118.805 252.761 118.864 252.875C118.924 252.988 118.524 253.401 118.266 254.029C118.009 254.657 117.92 255.243 117.806 255.261Z" fill="#263238"/>
<path d="M112.771 247.152C112.717 247.277 112.077 247.092 111.294 247.152C110.51 247.211 109.9 247.469 109.823 247.349C109.745 247.229 110.331 246.751 111.258 246.673C112.185 246.595 112.843 247.038 112.771 247.152Z" fill="#263238"/>
<path d="M104.052 177.277C104.052 177.277 111.826 176.679 112.687 185.087C113.548 193.495 114.397 232.855 114.397 232.855L96.278 234.368L93.4674 194.165L64.5062 181.846C64.5062 181.846 98.8673 176.201 104.052 177.277Z" fill="#263238"/>
<path d="M72.035 165.902C72.035 165.902 76.7473 179.124 75.8503 180.595C74.9533 182.066 62.8318 188.13 62.8318 188.13L32.4893 199.785C32.4893 199.785 29.3737 194.828 29.3737 187.227C29.3737 179.626 39.9284 165.914 39.9284 165.914L72.035 165.902Z" fill="#263238"/>
<path d="M63.0411 181.191C63.0861 181.222 63.1342 181.248 63.1847 181.269L63.6152 181.466L65.2956 182.214L71.6045 184.965L93.3777 194.335L93.276 194.198C93.5511 198.169 93.874 202.456 94.1551 206.893C94.8966 217.269 95.5783 226.831 96.1165 234.401V234.539H96.2541L109.482 233.379L113.124 233.038L114.074 232.942L114.397 232.894C114.288 232.885 114.178 232.885 114.068 232.894L113.118 232.954L109.47 233.223L96.2301 234.264L96.3796 234.389C95.8594 226.825 95.1836 217.257 94.49 206.881C94.179 202.444 93.892 198.157 93.593 194.186V194.09L93.5033 194.048L71.6822 184.779L65.3375 182.124L63.6391 181.425L63.1966 181.251C63.1464 181.227 63.0944 181.207 63.0411 181.191Z" fill="#455A64"/>
<path d="M38.9119 182.489C39.2041 182.444 39.4908 182.368 39.767 182.262L42.0514 181.521C44.5445 180.678 47.0998 180.032 49.6938 179.589C52.289 179.166 54.9383 179.2 57.5216 179.691C59.495 180.103 60.6312 180.665 60.6551 180.6C60.41 180.433 60.1447 180.299 59.8658 180.199C59.1248 179.887 58.3586 179.639 57.5754 179.458C54.9649 178.889 52.2702 178.82 49.634 179.254C47.0192 179.696 44.4508 180.379 41.9617 181.293C41.0049 181.634 40.2394 181.927 39.7072 182.137C39.4328 182.232 39.1668 182.35 38.9119 182.489Z" fill="#455A64"/>
<path d="M43.1995 175.524C44.0837 175.47 44.9704 175.47 45.8546 175.524C46.6739 175.577 47.6486 175.703 48.725 175.829C49.8014 175.954 50.9915 176.104 52.2233 176.337C54.3311 176.672 56.3514 177.422 58.1675 178.544C58.8921 179.048 59.5814 179.601 60.2306 180.2C60.1115 179.99 59.9625 179.799 59.788 179.632C59.3396 179.149 58.8404 178.716 58.299 178.34C56.4836 177.14 54.4323 176.343 52.2831 176.002C51.0393 175.769 49.8433 175.631 48.7609 175.518C47.6785 175.404 46.6978 175.308 45.8666 175.284C45.2116 175.256 44.5553 175.284 43.9052 175.368C43.6637 175.386 43.4261 175.438 43.1995 175.524Z" fill="#455A64"/>
<path d="M56.6007 69.2956C53.1143 68.6976 50.0227 70.0431 47.0984 72.0105C44.1056 74.1142 41.8248 77.0799 40.5599 80.5125C39.295 83.945 39.106 87.6816 40.0181 91.2242C40.5231 93.0247 41.3875 94.7042 42.5592 96.1615C43.7308 97.6189 45.1854 98.8239 46.8353 99.7039C51.3741 102.006 57.1807 101.205 61.2471 98.1311C65.3135 95.0574 67.6278 89.9804 67.8251 84.8914C68.0135 81.3621 67.0889 77.8627 65.182 74.8869C64.2152 73.4167 62.9558 72.1615 61.4825 71.1995C60.0092 70.2375 58.3535 69.5894 56.6186 69.2956" fill="#263238"/>
<path d="M46.6739 81.1647C47.1882 79.8251 46.9848 78.3361 47.1882 76.9189C47.6367 73.8033 50.1782 71.3036 53.0486 70.0897C55.7515 68.9595 59.0286 69.2047 62.3056 70.2571C64.566 70.9423 66.5844 72.2574 68.1241 74.0485C69.104 75.2637 69.7783 76.696 70.0904 78.2255C70.4026 79.755 70.3435 81.3371 69.9181 82.8391L53.9755 80.5188C52.4805 81.7507 50.9496 83.0125 49.1376 83.7002C48.6153 83.9293 48.0427 84.0199 47.4752 83.9633C47.1925 83.9297 46.9254 83.8153 46.7059 83.634C46.4864 83.4527 46.3237 83.212 46.2373 82.9407C46.0938 82.3367 46.4526 81.7447 46.6739 81.1647Z" fill="#263238"/>
<path d="M62.6464 74.6596L48.725 77.6137C48.0798 77.6565 47.4737 77.9381 47.0248 78.4035C46.5759 78.869 46.3165 79.4849 46.2971 80.1313L46.4646 110.264C46.4787 112.322 47.1678 114.318 48.426 115.945L49.7536 117.656C52.7854 121.561 58.9149 121.166 61.2292 116.801C61.3707 116.553 61.4793 116.287 61.5521 116.011C61.594 115.742 61.6657 115.563 61.6777 115.336L61.9468 112.393C62.0783 109.714 62.1023 107.011 62.1023 107.011C62.1023 107.011 67.8012 106.294 69.2783 98.9503C70.0018 95.3025 70.0497 89.2687 69.9301 84.3352C69.8045 79.916 67.0836 74.3666 62.6464 74.6596Z" fill="#FFBE9D"/>
<path d="M67.7953 90.0149C67.7875 90.2613 67.6837 90.4949 67.506 90.6658C67.3284 90.8368 67.091 90.9315 66.8444 90.9298C66.7234 90.9355 66.6024 90.9167 66.4888 90.8746C66.3752 90.8325 66.2712 90.7679 66.183 90.6848C66.0948 90.6016 66.0243 90.5016 65.9756 90.3906C65.9269 90.2796 65.9011 90.16 65.8996 90.0388C65.9088 89.7924 66.0129 89.559 66.1901 89.3874C66.3672 89.2158 66.6038 89.1193 66.8504 89.1179C66.9718 89.1131 67.0929 89.1327 67.2065 89.1754C67.3202 89.2182 67.4241 89.2833 67.5122 89.3669C67.6003 89.4506 67.6707 89.551 67.7193 89.6623C67.7679 89.7736 67.7938 89.8935 67.7953 90.0149Z" fill="#263238"/>
<path d="M68.4889 87.4387C68.3634 87.5583 67.6697 87.0022 66.6471 86.9663C65.6245 86.9304 64.8531 87.4088 64.7574 87.2773C64.6617 87.1457 64.8292 87.0022 65.1641 86.7809C65.6175 86.4896 66.1507 86.3475 66.689 86.3743C67.2177 86.3923 67.7268 86.5788 68.1421 86.9065C68.4471 87.1637 68.5487 87.3909 68.4889 87.4387Z" fill="#263238"/>
<path d="M58.6578 89.7824C58.6515 90.0298 58.5484 90.2649 58.3706 90.4372C58.1928 90.6094 57.9545 90.7049 57.707 90.7033C57.5864 90.7081 57.4661 90.6887 57.3532 90.6462C57.2402 90.6037 57.137 90.5391 57.0494 90.456C56.9619 90.3729 56.8919 90.2732 56.8436 90.1626C56.7953 90.052 56.7696 89.9329 56.7681 89.8123C56.7744 89.5658 56.8767 89.3316 57.0532 89.1596C57.2297 88.9875 57.4665 88.8913 57.713 88.8913C57.8338 88.8865 57.9544 88.9059 58.0677 88.9483C58.181 88.9907 58.2846 89.0553 58.3726 89.1383C58.4606 89.2213 58.5312 89.321 58.5801 89.4316C58.6291 89.5422 58.6555 89.6614 58.6578 89.7824Z" fill="#263238"/>
<path d="M58.8073 87.1937C58.6817 87.3133 57.9881 86.7512 56.9655 86.7153C55.9429 86.6795 55.1715 87.1579 55.0758 87.0323C54.9801 86.9067 55.1476 86.7572 55.4884 86.53C55.9416 86.2431 56.4715 86.1013 57.0073 86.1233C57.5382 86.1446 58.0489 86.333 58.4665 86.6615C58.7655 86.9127 58.8671 87.1399 58.8073 87.1937Z" fill="#263238"/>
<path d="M61.8631 94.9436C62.4086 94.803 62.9684 94.7248 63.5315 94.7103C63.7946 94.7103 64.0398 94.6505 64.0936 94.4771C64.1244 94.2095 64.0744 93.9388 63.9501 93.6997C63.7289 93.0599 63.4956 92.3901 63.2564 91.6845C62.2937 88.82 61.6119 86.4699 61.7256 86.434C61.8392 86.3981 62.7182 88.6885 63.675 91.5529C63.9023 92.2585 64.1235 92.9283 64.3328 93.5741C64.4865 93.8946 64.5204 94.2594 64.4285 94.6027C64.3864 94.6925 64.3248 94.7718 64.2483 94.8348C64.1718 94.8979 64.0822 94.9432 63.986 94.9675C63.8405 94.9976 63.6921 95.0116 63.5435 95.0093C62.9829 95.0619 62.4178 95.0398 61.8631 94.9436Z" fill="#263238"/>
<path d="M62.1023 107.039C58.6223 106.96 55.233 105.914 52.313 104.02C52.313 104.02 54.5974 109.228 62.0186 108.804L62.1023 107.039Z" fill="#EB996E"/>
<path d="M61.3368 97.384C61.1523 97.1325 60.9065 96.9324 60.6229 96.8026C60.3393 96.6729 60.0272 96.6177 59.7162 96.6425C59.4865 96.6547 59.2617 96.714 59.056 96.8169C58.8502 96.9198 58.6678 97.064 58.5202 97.2405C58.3802 97.4033 58.2927 97.6047 58.2693 97.8181C58.2458 98.0316 58.2874 98.2471 58.3887 98.4365C58.5457 98.6249 58.7551 98.7625 58.9904 98.8317C59.2257 98.9009 59.4762 98.8986 59.7103 98.8252C60.1995 98.6747 60.6532 98.4265 61.0438 98.0956C61.1633 98.0208 61.2669 97.9233 61.3488 97.8086C61.3863 97.7518 61.4063 97.6853 61.4063 97.6172C61.4063 97.5492 61.3863 97.4826 61.3488 97.4259" fill="#EB996E"/>
<path d="M58.8372 95.5355C59.0047 95.5355 58.9628 96.6359 59.8777 97.4611C60.7927 98.2863 61.9767 98.2086 61.9827 98.3641C61.9827 98.4299 61.7076 98.5674 61.2113 98.5614C60.5618 98.5446 59.9392 98.2989 59.4532 97.8677C58.9913 97.4604 58.7042 96.8907 58.6519 96.2771C58.604 95.7927 58.7595 95.5236 58.8372 95.5355Z" fill="#263238"/>
<path d="M58.7475 84.1692C58.6399 84.4443 57.6233 84.2708 56.4213 84.3665C55.2193 84.4622 54.2446 84.7552 54.0951 84.4981C54.0293 84.3785 54.2027 84.1213 54.6034 83.8702C55.1346 83.5558 55.7333 83.3733 56.3495 83.338C56.9614 83.2859 57.5769 83.3823 58.1435 83.619C58.604 83.8104 58.7954 84.0376 58.7475 84.1692Z" fill="#263238"/>
<path d="M68.3633 82.971C68.1779 83.1983 67.4843 82.9292 66.6411 82.8813C65.7979 82.8335 65.0743 82.977 64.9188 82.7318C64.8471 82.6122 64.9727 82.385 65.2896 82.1757C65.7188 81.9224 66.2164 81.8095 66.7128 81.8528C67.2077 81.8795 67.682 82.0592 68.0703 82.3671C68.3573 82.6182 68.447 82.8634 68.3633 82.971Z" fill="#263238"/>
<path d="M44.1204 79.0145C45.5676 74.7747 51.8944 68.998 56.3316 69.3987L63.388 73.8179C63.1312 75.0314 62.551 76.1528 61.7088 77.0634C60.8666 77.9741 59.7938 78.64 58.604 78.9906C57.3303 79.3494 55.8113 79.4271 55.016 80.4975C54.2207 81.568 54.6453 83.2125 53.9097 84.3367C52.8871 85.9035 50.1901 85.7719 49.4127 87.4702C49.0779 88.2117 49.2274 89.1087 48.8746 89.8622C48.4081 90.8429 45.8845 92.0449 44.85 91.6981C43.8155 91.3512 43.8514 89.5871 43.5344 88.6543C43.1265 87.6048 43.0969 86.4461 43.4507 85.3772C43.965 83.2782 43.4327 81.0357 44.1204 79.0145Z" fill="#263238"/>
<path d="M47.9117 92.6131C47.9117 92.0629 47.3137 90.7414 46.8054 90.6337C45.3642 90.3527 42.745 90.3706 42.5776 94.0543C42.3503 99.0894 47.4513 98.2762 47.4692 98.1326C47.4871 97.9891 47.84 94.5147 47.9117 92.6131Z" fill="#FFBE9D"/>
<path d="M46.046 96.1577C46.046 96.1577 45.9563 96.2116 45.8008 96.2714C45.5917 96.3555 45.3581 96.3555 45.149 96.2714C44.6227 96.0501 44.2161 95.183 44.2281 94.28C44.2378 93.8462 44.3419 93.4197 44.533 93.0302C44.5883 92.8754 44.6803 92.7363 44.8011 92.6249C44.922 92.5135 45.068 92.433 45.2267 92.3903C45.3281 92.3672 45.4343 92.381 45.5264 92.4292C45.6185 92.4775 45.6904 92.557 45.729 92.6535C45.7888 92.797 45.729 92.8986 45.7829 92.9046C45.8367 92.9106 45.8905 92.8269 45.8606 92.6176C45.8418 92.4918 45.7781 92.3771 45.6812 92.2947C45.6148 92.2379 45.5378 92.1949 45.4547 92.1682C45.3715 92.1415 45.2838 92.1316 45.1968 92.1392C44.9885 92.172 44.7919 92.2573 44.6256 92.387C44.4592 92.5167 44.3286 92.6866 44.246 92.8807C44.0136 93.3067 43.8884 93.7829 43.8812 94.2681C43.8812 95.2847 44.3417 96.2594 45.0772 96.5046C45.2105 96.5493 45.352 96.5639 45.4916 96.5474C45.6312 96.5308 45.7654 96.4835 45.8845 96.4089C45.9981 96.2773 46.046 96.1637 46.046 96.1577Z" fill="#EB996E"/>
<path d="M43.056 77.7412C43.056 76.1625 41.1065 75.134 39.5697 74.7512C38.0016 74.4819 36.3891 74.7899 35.0308 75.6183C34.2235 76.0609 33.4103 76.6947 33.2368 77.5977C33.0634 78.5007 33.9245 79.5771 34.7857 79.2542C34.3648 79.3918 33.9798 79.6213 33.6584 79.9259C33.3371 80.2305 33.0874 80.6027 32.9274 81.0156C32.7674 81.4284 32.7011 81.8717 32.7333 82.3133C32.7654 82.755 32.8953 83.1839 33.1135 83.5692C33.3317 83.9545 33.6327 84.2866 33.9949 84.5414C34.357 84.7962 34.7712 84.9673 35.2076 85.0425C35.6439 85.1177 36.0916 85.0951 36.5181 84.9762C36.9446 84.8573 37.3394 84.6452 37.674 84.3551C37.2372 85.8156 36.3126 87.082 35.0548 87.9431C36.356 88.1298 37.6834 87.9704 38.9033 87.4809C40.1233 86.9914 41.1928 86.1891 42.004 85.1547C42.8152 84.1204 43.3396 82.8905 43.5243 81.5891C43.7089 80.2876 43.5474 78.9604 43.056 77.7412Z" fill="#263238"/>
<path d="M39.5517 85.7166C39.402 85.2269 39.3373 84.7152 39.3603 84.2036C39.3403 81.7159 40.1575 79.2937 41.6806 77.3266C41.9681 76.9037 42.3285 76.5352 42.745 76.2383C41.6933 77.5811 40.8543 79.0776 40.2573 80.6754C39.3304 83.3664 39.6653 85.7226 39.5517 85.7166Z" fill="#3F41D1"/>
<path d="M61.9169 72.2985C62.3774 74.3497 65.5049 76.9749 66.8624 78.5716C69.4697 81.6154 69.9839 82.626 69.96 89.4372C71.1919 87.0871 72.1368 84.7788 72.0411 82.1297C71.983 79.4462 70.945 76.8767 69.1228 74.9058C68.211 73.9442 67.0879 73.2081 65.8424 72.7555C64.597 72.303 63.2632 72.1466 61.9468 72.2985" fill="#263238"/>
<path d="M83.2715 128.318C83.2715 128.318 77.8416 119.27 76.3347 117.44C75.1247 116.026 73.604 114.911 71.8915 114.181C71.2152 113.889 70.5066 113.679 69.7806 113.553L61.9707 111.825C61.9707 111.825 61.9707 117.153 56.3794 117.482C50.7881 117.811 46.0998 110.031 46.0998 110.031C46.0998 110.031 37.076 111.431 34.9232 112.543C32.7704 113.655 29.3737 115.06 27.508 124.383L26.1984 133.521L41.7464 134.956L43.2354 158.063L50.9436 163.445C50.9436 163.445 72.3221 169 73.6676 169.365C75.0131 169.73 75.4616 134.968 75.4616 134.968C75.4616 134.968 80.9991 131.434 83.2715 128.318Z" fill="#263238"/>
<path d="M73.0337 124.43C73.1597 124.641 73.262 124.866 73.3387 125.099C73.5121 125.536 73.7393 126.176 73.9905 126.977C75.2977 131.176 75.8366 135.576 75.5812 139.966C75.5333 140.803 75.4676 141.479 75.3958 141.945C75.38 142.188 75.3379 142.429 75.2702 142.663C75.2416 142.42 75.2416 142.175 75.2702 141.933C75.3001 141.467 75.336 140.791 75.3539 139.954C75.4122 137.777 75.3123 135.598 75.0549 133.436C74.7853 131.276 74.3575 129.14 73.7752 127.043C73.554 126.236 73.3566 125.584 73.2131 125.141C73.1284 124.911 73.0683 124.673 73.0337 124.43Z" fill="#455A64"/>
<path d="M72.358 162.278L43.056 155.903L41.7045 134.973L28.686 133.777C28.686 133.777 29.1704 148.082 29.6668 152.315C30.3903 158.433 34.0023 166.781 36.1192 168.461C38.2361 170.142 73.6437 169.376 73.6437 169.376L72.358 162.278Z" fill="#FFBE9D"/>
<path d="M88.9883 166.071C88.8909 166.273 88.7352 166.441 88.5413 166.554C88.3473 166.667 88.124 166.72 87.9 166.705C87.8045 166.698 87.7101 166.68 87.6189 166.651C86.9671 166.441 87.0209 165.12 87.0209 165.12L83.9233 164.618C83.9233 164.618 79.8868 167.219 78.4516 168.941C77.0164 170.663 73.3566 169.27 73.3566 169.27L72.0889 162.656L77.7998 157.495C77.7998 157.495 77.4529 157.8 77.8476 156.838C78.2423 155.875 80.0303 156.24 80.0303 156.24C80.3114 155.761 81.4834 155.594 81.4834 155.594L86.4947 156.192C87.0038 156.251 87.4932 156.423 87.9269 156.696C88.3605 156.97 88.7273 157.337 89.0003 157.77L91.1232 161.125C91.1232 161.125 92.2415 163.517 92.0621 164.115C91.9822 164.355 91.8147 164.556 91.5929 164.678C91.3712 164.8 91.1116 164.834 90.8661 164.773C90.8661 164.773 90.6209 166.364 90.2023 166.418C89.7747 166.395 89.355 166.294 88.9644 166.119L88.9883 166.071Z" fill="#FFBE9D"/>
<path d="M78.338 161.323C78.338 161.377 79.0078 161.323 80.0782 161.359C81.4682 161.426 82.8425 161.684 84.1625 162.125C84.8892 162.369 85.5951 162.671 86.2735 163.028C86.8715 163.368 87.5054 163.626 87.7027 164.086C87.7472 164.182 87.7657 164.287 87.7563 164.392C87.7468 164.497 87.7098 164.598 87.6489 164.684C87.5582 164.825 87.4268 164.936 87.2721 165.001C87.1301 165.051 86.9799 165.073 86.8296 165.067C86.8296 165.067 86.9851 165.204 87.308 165.121C87.503 165.068 87.6739 164.949 87.7924 164.786C87.8785 164.677 87.9348 164.547 87.9558 164.41C87.9768 164.273 87.9617 164.132 87.912 164.002C87.7846 163.715 87.577 163.47 87.314 163.297C87.0389 163.123 86.7519 162.938 86.4349 162.764C85.7481 162.388 85.0298 162.072 84.2881 161.82C82.9396 161.364 81.5256 161.131 80.1021 161.132C79.5077 161.102 78.9123 161.167 78.338 161.323Z" fill="#EB996E"/>
<path d="M77.9792 164.515C77.9792 164.611 80.0243 164.515 82.53 164.671C85.0356 164.826 87.0449 165.125 87.0628 165.029C86.6447 164.865 86.2061 164.758 85.7592 164.712C84.6964 164.532 83.6243 164.412 82.5479 164.354C81.4703 164.294 80.3903 164.294 79.3127 164.354C78.8629 164.346 78.4141 164.4 77.9792 164.515Z" fill="#EB996E"/>
<path d="M88.9585 165.943C89.0025 165.769 89.0246 165.59 89.0242 165.411C89.0547 164.921 89.0547 164.43 89.0242 163.94C89.0072 163.598 88.9612 163.258 88.8867 162.923C88.7965 162.532 88.6299 162.162 88.3963 161.835C87.9027 161.078 87.2646 160.425 86.5186 159.915C85.7821 159.405 84.9767 159.002 84.1266 158.719C83.4215 158.52 82.6943 158.41 81.9619 158.39C81.3639 158.39 80.8496 158.39 80.5027 158.39C80.3216 158.378 80.1397 158.396 79.9645 158.444C80.6225 158.538 81.2854 158.594 81.9499 158.612C82.6599 158.659 83.3621 158.787 84.0429 158.994C84.8587 159.292 85.6325 159.694 86.3452 160.19C87.0506 160.685 87.6587 161.305 88.1392 162.02C88.5325 162.602 88.758 163.28 88.791 163.982C88.9226 165.172 88.8927 165.943 88.9585 165.943Z" fill="#EB996E"/>
<path d="M81.7286 156.855C81.7286 156.903 82.4761 156.927 83.6721 157.065C84.8681 157.202 86.6621 157.322 87.7206 158.912C88.739 160.099 89.5883 161.422 90.2442 162.841C90.4613 163.451 90.6214 164.08 90.7226 164.719C90.7578 164.543 90.7578 164.362 90.7226 164.187C90.6919 163.701 90.5933 163.222 90.4295 162.764C89.8234 161.288 88.9811 159.92 87.9359 158.715C87.6567 158.346 87.3311 158.014 86.9671 157.728C86.6081 157.469 86.2018 157.282 85.7711 157.178C85.0771 156.992 84.3657 156.878 83.6482 156.837C83.0099 156.767 82.3655 156.773 81.7286 156.855Z" fill="#EB996E"/>
<path d="M79.534 167.878C79.64 167.81 79.74 167.734 79.833 167.65L80.6702 166.975C81.7236 166.156 82.8238 165.399 83.9651 164.708H83.8934L86.991 165.234L86.8834 165.103C86.8735 165.357 86.8936 165.612 86.9432 165.862C86.9839 166.141 87.1067 166.401 87.296 166.61C87.4096 166.712 87.5511 166.779 87.7026 166.801C87.8469 166.828 87.9949 166.828 88.1392 166.801C88.4403 166.757 88.7148 166.604 88.9106 166.371C88.963 166.316 89.0091 166.256 89.0481 166.191L89.0781 166.137L88.8986 166.203L88.9943 166.239C89.1259 166.293 89.2574 166.341 89.395 166.383C89.5325 166.424 89.6701 166.46 89.8196 166.49C89.8972 166.497 89.9752 166.497 90.0528 166.49C90.1514 166.496 90.2501 166.478 90.3398 166.436C90.4759 166.329 90.5794 166.186 90.6388 166.024C90.7021 165.887 90.7541 165.745 90.7943 165.599C90.8784 165.311 90.9443 165.017 90.9916 164.72L90.8122 164.846C91.0223 164.889 91.2403 164.876 91.4434 164.806C91.6465 164.737 91.8271 164.614 91.9664 164.451C92.1046 164.282 92.1806 164.071 92.1817 163.853C92.1649 163.651 92.1289 163.45 92.074 163.255C91.8392 162.493 91.5535 161.748 91.2189 161.024L90.0887 159.23L89.3711 158.1C89.153 157.705 88.8902 157.335 88.5877 157C88.2673 156.677 87.8848 156.423 87.4634 156.252C87.0528 156.1 86.6212 156.011 86.1837 155.989L81.4655 155.457H81.4296C81.1458 155.502 80.8673 155.577 80.5984 155.678C80.3114 155.764 80.0598 155.94 79.8808 156.181L80.0542 156.127C79.7992 156.009 79.5192 155.956 79.2387 155.971C78.9583 155.987 78.6859 156.071 78.4456 156.217C78.0271 156.521 77.7422 156.975 77.6503 157.484L77.6861 157.418L73.7513 160.959L72.6928 161.933C72.5624 162.04 72.4441 162.16 72.34 162.292C72.4803 162.2 72.6124 162.096 72.7347 161.981L73.841 161.054L77.8416 157.598H77.8715V157.556C77.9571 157.112 78.207 156.717 78.5712 156.45C78.7768 156.333 79.0073 156.268 79.2434 156.258C79.4795 156.249 79.7145 156.296 79.9286 156.396L80.0363 156.438L80.1021 156.342C80.2581 156.157 80.4666 156.023 80.7001 155.959C80.9501 155.868 81.2085 155.802 81.4715 155.762H81.4296L86.1478 156.318C86.5567 156.342 86.9598 156.427 87.3438 156.569C87.7256 156.722 88.0717 156.952 88.3604 157.245C88.6459 157.565 88.8947 157.916 89.102 158.292L89.8196 159.428C90.2083 160.026 90.591 160.624 90.9498 161.222C91.2825 161.926 91.5643 162.654 91.793 163.398C91.8459 163.572 91.8799 163.75 91.8946 163.931C91.8979 164.086 91.8447 164.237 91.7451 164.355C91.6434 164.474 91.5112 164.563 91.3626 164.613C91.214 164.663 91.0548 164.671 90.9019 164.636H90.7405V164.786C90.6949 165.07 90.633 165.352 90.5551 165.629C90.5044 165.875 90.3934 166.106 90.2322 166.299C90.1906 166.305 90.1482 166.305 90.1066 166.299H89.9152C89.7897 166.299 89.6581 166.239 89.5266 166.203L89.1438 166.072L89.0541 166.036L88.8687 166.101V166.137C88.8398 166.188 88.8057 166.237 88.7671 166.281C88.6151 166.463 88.4029 166.584 88.1691 166.622C88.0567 166.646 87.9406 166.646 87.8282 166.622C87.7227 166.612 87.6226 166.57 87.5412 166.502C87.2788 166.123 87.16 165.663 87.2063 165.204V165.091H87.0987L83.9891 164.606H83.9532H83.9233C82.7857 165.318 81.6969 166.105 80.6642 166.963C80.3054 167.268 80.0363 167.513 79.8569 167.68C79.7425 167.734 79.6342 167.8 79.534 167.878Z" fill="#EB996E"/>
<path d="M126.967 146.832L88.4143 147.149C87.1585 147.149 85.9685 147.747 85.7771 148.985L81.5911 177.091H61.7016C61.4091 177.112 61.1354 177.243 60.9356 177.458C60.7358 177.672 60.6248 177.955 60.6248 178.248C60.6248 178.541 60.7358 178.824 60.9356 179.038C61.1354 179.253 61.4091 179.384 61.7016 179.405H125.137L129.473 149.744C129.527 149.384 129.503 149.016 129.402 148.665C129.301 148.315 129.125 147.99 128.888 147.714C128.65 147.437 128.355 147.216 128.024 147.063C127.692 146.911 127.332 146.832 126.967 146.832Z" fill="#626262"/>
<path d="M126.967 146.831C127.168 146.823 127.37 146.843 127.565 146.891C128.078 147.013 128.541 147.29 128.89 147.685C129.239 148.08 129.457 148.574 129.515 149.098C129.529 149.63 129.481 150.162 129.371 150.682L128.815 154.599C127.966 160.49 126.746 168.981 125.227 179.422V179.524H125.125L63.5853 179.56H61.9288C61.6278 179.588 61.3249 179.53 61.0558 179.392C60.85 179.279 60.6783 179.113 60.5588 178.911C60.4392 178.709 60.3761 178.479 60.3761 178.244C60.3761 178.009 60.4392 177.779 60.5588 177.577C60.6783 177.375 60.85 177.209 61.0558 177.096C61.3258 176.961 61.6284 176.905 61.9288 176.935H81.5672L81.4177 177.066C82.9306 167.002 84.3479 157.613 85.6037 149.187C85.6451 148.625 85.9022 148.1 86.3213 147.722C86.7396 147.369 87.25 147.143 87.7924 147.07C88.309 147.02 88.8283 147.002 89.3472 147.017H90.8601L96.6667 146.981L106.982 146.915L121.669 146.837H126.955C126.955 146.837 126.842 146.837 126.615 146.837H125.598L121.669 146.891L106.982 147.052L96.6667 147.16L90.8601 147.214H89.3472C88.8422 147.205 88.3372 147.223 87.8342 147.268C87.3375 147.333 86.8703 147.541 86.4887 147.866C86.3027 148.033 86.1514 148.235 86.0437 148.461C85.9359 148.687 85.8738 148.932 85.8608 149.181C84.605 157.607 83.2057 166.996 81.6748 177.06V177.192H61.9408C61.6951 177.161 61.4456 177.202 61.2232 177.311C61.0208 177.428 60.8646 177.61 60.7808 177.828C60.6969 178.045 60.6906 178.285 60.7628 178.507C60.8482 178.732 61.0088 178.92 61.2172 179.039C61.4419 179.148 61.6926 179.192 61.9408 179.165H63.5973L125.137 179.201L125.018 179.303C126.567 168.868 127.822 160.382 128.696 154.492C128.917 153.026 129.114 151.717 129.294 150.587C129.405 150.074 129.459 149.55 129.455 149.026C129.405 148.514 129.198 148.03 128.863 147.639C128.529 147.249 128.082 146.971 127.583 146.843C127.378 146.829 127.173 146.825 126.967 146.831Z" fill="#263238"/>
<path d="M106.055 165.179C107.39 165.179 108.471 164.098 108.471 162.764C108.471 161.429 107.39 160.348 106.055 160.348C104.721 160.348 103.639 161.429 103.639 162.764C103.639 164.098 104.721 165.179 106.055 165.179Z" fill="white"/>
<path d="M83.122 179.141C83.1758 179.141 84.4017 171.995 85.8608 163.163C87.32 154.33 88.4621 147.154 88.4083 147.148C88.3545 147.142 87.1226 154.295 85.6635 163.127C84.2044 171.959 83.0742 179.135 83.122 179.141Z" fill="#263238"/>
</svg>
