<svg width="16" height="16" viewBox="0 0 16 16" fill="none" xmlns="http://www.w3.org/2000/svg">
<path d="M5.24524 8.71413L5.24493 8.7146C4.72595 9.4873 5.26585 10.54 6.21333 10.54H9.78667C10.723 10.54 11.2766 9.49103 10.7551 8.7146L10.7548 8.71413C10.2679 7.99105 9.41197 7.50646 8.44231 7.39252C9.36501 7.19086 10.0533 6.37094 10.0533 5.38671C10.0533 4.25057 9.13614 3.33337 8 3.33337C6.86386 3.33337 5.94667 4.25057 5.94667 5.38671C5.94667 6.3644 6.63457 7.18974 7.55853 7.39242C6.58853 7.50619 5.73221 7.99084 5.24524 8.71413ZM4 1.83337H12C12.8349 1.83337 13.5 2.50054 13.5 3.31337V10.5867C13.5 11.3995 12.8349 12.0667 12 12.0667H11.5C10.8449 12.0667 10.2038 12.3231 9.73424 12.792C9.73387 12.7924 9.73349 12.7928 9.73311 12.7932L8.5954 13.9175C8.27013 14.2387 7.73654 14.2387 7.41127 13.9175L6.27355 12.7932C6.27318 12.7928 6.2728 12.7924 6.27242 12.792C5.80348 12.3237 5.16929 12.0667 4.50667 12.0667H4C3.1651 12.0667 2.5 11.3995 2.5 10.5867V3.31337C2.5 2.50054 3.1651 1.83337 4 1.83337Z" fill="#3F41D1" stroke="#3F41D1"/>
</svg>
