<svg width="18" height="20" viewBox="0 0 18 20" fill="none" xmlns="http://www.w3.org/2000/svg">
<path d="M8.75206 2.29276e-06C8.69773 2.29276e-06 8.64458 0.0118128 8.59734 0.0389771L0.159875 4.74785C0.10971 4.77598 0.0682688 4.8174 0.0401012 4.86755C0.0119335 4.91769 -0.0018709 4.97463 0.000203713 5.03211C0.00227833 5.08959 0.0201518 5.14539 0.0518614 5.19337C0.0835711 5.24136 0.12789 5.27968 0.179953 5.30412L2.18775 6.24306V7.18791H1.87595C1.79315 7.18759 1.71359 7.2201 1.65471 7.27832C1.59582 7.33654 1.56241 7.41572 1.56179 7.49853V10.3106C1.56179 10.4842 1.70233 10.6248 1.87595 10.6248H3.12669C3.29912 10.6248 3.4373 10.4831 3.4373 10.3106V7.49971C3.43731 7.41722 3.40462 7.33809 3.3464 7.27965C3.28818 7.22121 3.20918 7.18822 3.12669 7.18791H2.81253V6.53833L5.14511 7.62844C5.23251 7.84812 5.36715 8.07842 5.55494 8.28983V8.37605C4.95969 8.43983 4.50498 8.96776 4.50498 9.59962C4.50498 10.2622 5.00338 10.822 5.67068 10.8279C5.69785 10.8279 5.71792 10.8279 5.74391 10.8256C5.96358 11.4279 6.36396 11.9487 6.87418 12.3196V12.9975L6.78205 12.9054C6.75266 12.8759 6.71768 12.8525 6.67914 12.8367C6.64061 12.8209 6.59931 12.8129 6.55765 12.8133C6.47638 12.8148 6.39887 12.8478 6.34152 12.9054L5.47463 13.7711C3.94043 13.9022 2.3531 14.9085 1.62438 16.6741C1.5736 16.8159 1.25117 17.5139 1.25117 18.5816V19.687C1.25117 19.8595 1.38935 20 1.56179 20H15.9364C16.1089 20 16.2482 19.8583 16.2482 19.687V18.5816C16.2482 17.7194 16.0356 17.0604 15.8597 16.6446C15.1687 14.9782 13.6192 13.9105 12.0236 13.7699L11.1579 12.9054C11.1289 12.8762 11.0944 12.8529 11.0564 12.8371C11.0184 12.8213 10.9776 12.8131 10.9364 12.8131C10.8952 12.8131 10.8545 12.8213 10.8165 12.8371C10.7785 12.8529 10.744 12.8762 10.715 12.9054L10.6252 12.9952V12.3184C11.1342 11.9487 11.5346 11.4267 11.7543 10.8256C11.7803 10.8279 11.8015 10.8291 11.8287 10.8291C12.4806 10.8291 12.9944 10.2646 12.9944 9.59962C12.9944 8.97721 12.5503 8.44219 11.9433 8.37841L11.9456 8.28511C12.1216 8.0926 12.2645 7.84812 12.3531 7.62962L17.3183 5.30531C17.3701 5.28086 17.4142 5.24265 17.4458 5.19484C17.4774 5.14704 17.4953 5.09148 17.4975 5.03421C17.4997 4.97695 17.4861 4.92018 17.4582 4.8701C17.4304 4.82002 17.3893 4.77855 17.3395 4.75021L8.90205 0.0377961C8.85602 0.0127993 8.80443 -0.000198554 8.75206 2.29276e-06ZM8.74969 0.672023L16.5021 4.99469L12.5267 6.85721C12.5404 6.67574 12.5317 6.49327 12.5007 6.31393V4.49628C12.4963 4.36067 12.4425 4.23133 12.3496 4.13252C12.2685 4.04469 12.1725 3.97192 12.0661 3.91756C11.8081 3.78882 11.534 3.69509 11.2512 3.63884C10.5969 3.48884 9.72052 3.40026 8.74969 3.40026C7.77768 3.40026 6.90134 3.48884 6.24586 3.63884C5.96343 3.69518 5.68977 3.78891 5.43211 3.91756C5.32567 3.97192 5.22971 4.04469 5.14865 4.13252C5.0561 4.23151 5.00278 4.36083 4.99866 4.49628V6.3092C4.98567 6.3777 4.95614 6.5714 4.97386 6.85721L2.81253 5.84623V3.98252L8.74969 0.672023ZM11.1118 4.24708C11.3393 4.2931 11.5602 4.36688 11.7697 4.46676C11.8287 4.49982 11.8618 4.52581 11.8759 4.53998V5.65962C11.6742 5.57737 11.4655 5.51334 11.2524 5.46829C10.5969 5.3183 9.72052 5.2309 8.74851 5.2309C7.77768 5.2309 6.90134 5.3183 6.24704 5.46711C6.03458 5.51235 5.82636 5.57556 5.62462 5.65608V4.53998C5.65648 4.51075 5.69225 4.48611 5.73091 4.46676C5.86083 4.39589 6.09114 4.3144 6.38522 4.24708C6.9722 4.11362 7.81666 4.02622 8.74969 4.02622C9.68273 4.02622 10.5236 4.11362 11.1118 4.24708ZM2.18657 4.33211V5.55096L0.997244 4.99587L2.18657 4.33211ZM11.1106 6.07653C11.4059 6.14385 11.6374 6.22771 11.7697 6.29857C11.8098 6.32219 11.863 6.35526 11.8759 6.36944C11.8773 6.38385 11.8801 6.39809 11.8842 6.41195C11.8913 6.44739 12.0295 7.24224 11.4945 7.8493H9.79611C9.03551 7.8493 8.3942 7.28239 8.28081 6.54305C8.26755 6.46658 8.22634 6.39776 8.16519 6.34996C8.10404 6.30216 8.0273 6.27879 7.94989 6.28438C7.87247 6.28997 7.7999 6.32413 7.74625 6.38022C7.69261 6.43632 7.66172 6.51034 7.65958 6.58793C7.65587 6.92254 7.52081 7.24229 7.28353 7.47824C7.04625 7.7142 6.72575 7.84746 6.39113 7.8493H6.00374C5.451 7.19972 5.61871 6.41668 5.62108 6.37534C5.65439 6.34479 5.69175 6.31896 5.7321 6.29857C5.86201 6.22771 6.08759 6.14622 6.38168 6.08008C6.96866 5.94544 7.81784 5.85568 8.75088 5.85568C9.68391 5.85568 10.5248 5.94307 11.113 6.07653H11.1106ZM8.02216 7.5375C8.21868 7.82682 8.48317 8.0635 8.79246 8.22679C9.10174 8.39008 9.44637 8.47499 9.79611 8.47408H11.3197V9.72954C11.3197 11.1468 10.1788 12.2948 8.74969 12.2948C8.41219 12.296 8.07777 12.2306 7.76565 12.1022C7.45352 11.9738 7.16985 11.785 6.93092 11.5466C6.692 11.3082 6.50253 11.025 6.37341 10.7131C6.24429 10.4013 6.17807 10.067 6.17854 9.72954V8.47408H6.38876C7.16472 8.47408 7.74816 8.01465 8.02216 7.5375ZM2.18775 7.81151H2.81253V9.99882H2.18657L2.18775 7.81151ZM5.55376 9.01146V9.73072C5.55376 9.88898 5.56557 10.0449 5.58683 10.1961C5.34707 10.1571 5.12976 9.91615 5.12976 9.59962C5.12976 9.3079 5.31755 9.06461 5.55376 9.01146ZM11.9433 9.01146C12.1724 9.06697 12.3673 9.29845 12.3673 9.59962C12.3673 9.91615 12.1547 10.1547 11.909 10.1949C11.9317 10.0412 11.9432 9.88607 11.9433 9.73072V9.01146ZM7.49777 12.668C7.8828 12.831 8.30443 12.9196 8.74851 12.9196C9.17803 12.9212 9.60346 12.836 9.99925 12.6692V13.6199L8.74733 14.8719L7.49777 13.6211V12.668ZM6.55884 13.568L8.3068 15.3124L7.81194 15.8084L6.06634 14.0605L6.55884 13.568ZM10.9346 13.568L11.4307 14.064L9.68745 15.8096L9.18905 15.3124L10.9346 13.568ZM11.9822 14.3947C13.3109 14.5246 14.5499 15.3573 15.1947 16.686C15.4781 17.2776 15.6242 17.9256 15.6223 18.5816V19.3752H13.4349V18.4386C13.4349 18.2615 13.2932 18.1221 13.1172 18.1245C13.0764 18.1249 13.0361 18.1334 12.9986 18.1495C12.9611 18.1655 12.9271 18.1888 12.8986 18.218C12.8701 18.2471 12.8476 18.2816 12.8324 18.3195C12.8173 18.3574 12.8097 18.3979 12.8102 18.4386V19.3752H4.68804V18.4386C4.68804 18.2615 4.54632 18.1221 4.36916 18.1245C4.32837 18.1249 4.28806 18.1334 4.25056 18.1495C4.21305 18.1655 4.17906 18.1888 4.15055 18.218C4.12204 18.2471 4.09955 18.2816 4.08437 18.3195C4.06919 18.3574 4.06162 18.3979 4.06208 18.4386V19.3752H1.87595V18.5816C1.87595 17.9957 1.98697 17.4454 2.19129 16.9411C2.74166 15.571 4.00421 14.5412 5.51596 14.3959L7.59108 16.4698C7.71391 16.5915 7.90996 16.5915 8.03279 16.4698L8.74969 15.7541L9.46659 16.4698C9.58942 16.5915 9.78548 16.5915 9.90713 16.4698L11.9822 14.3947Z" fill="#3F41D1"/>
</svg>
