<svg width="20" height="20" viewBox="0 0 20 20" fill="none" xmlns="http://www.w3.org/2000/svg">
<path d="M14.793 5.87499C14.593 5.84166 14.3847 5.83334 14.168 5.83334H5.83467C5.60133 5.83334 5.37633 5.85 5.15967 5.88334C5.27633 5.65 5.443 5.43336 5.643 5.23336L8.35134 2.51669C9.493 1.38335 11.343 1.38335 12.4847 2.51669L13.943 3.99165C14.4763 4.51665 14.7597 5.18333 14.793 5.87499Z" stroke="#3F41D1" stroke-width="1.5" stroke-linecap="round" stroke-linejoin="round"/>
<path d="M7.50016 15.8333C7.50016 16.4583 7.32516 17.05 7.01683 17.55C6.44183 18.5167 5.3835 19.1667 4.16683 19.1667C2.95016 19.1667 1.89183 18.5167 1.31683 17.55C1.0085 17.05 0.833496 16.4583 0.833496 15.8333C0.833496 13.9917 2.32516 12.5 4.16683 12.5C6.0085 12.5 7.50016 13.9917 7.50016 15.8333Z" stroke="#3F41D1" stroke-width="1.5" stroke-miterlimit="10" stroke-linecap="round" stroke-linejoin="round"/>
<path d="M5.41009 15.8162H2.92676" stroke="#3F41D1" stroke-width="1.5" stroke-miterlimit="10" stroke-linecap="round" stroke-linejoin="round"/>
<path d="M4.16699 14.5996V17.0913" stroke="#3F41D1" stroke-width="1.5" stroke-miterlimit="10" stroke-linecap="round" stroke-linejoin="round"/>
<path d="M18.3332 9.99998V14.1666C18.3332 16.6666 16.6665 18.3333 14.1665 18.3333H6.35817C6.6165 18.1166 6.8415 17.85 7.0165 17.55C7.32484 17.05 7.49984 16.4583 7.49984 15.8333C7.49984 13.9916 6.00817 12.5 4.1665 12.5C3.1665 12.5 2.27484 12.9416 1.6665 13.6333V9.99998C1.6665 7.73331 3.03317 6.14998 5.15817 5.88331C5.37484 5.84998 5.59984 5.83331 5.83317 5.83331H14.1665C14.3832 5.83331 14.5915 5.84164 14.7915 5.87497C16.9415 6.12497 18.3332 7.71665 18.3332 9.99998Z" stroke="#3F41D1" stroke-width="1.5" stroke-linecap="round" stroke-linejoin="round"/>
<path d="M18.3332 10.4167H15.8332C14.9165 10.4167 14.1665 11.1667 14.1665 12.0834C14.1665 13 14.9165 13.75 15.8332 13.75H18.3332" stroke="#3F41D1" stroke-width="1.5" stroke-linecap="round" stroke-linejoin="round"/>
</svg>
